%TF.GenerationSoftware,KiCad,Pcbnew,9.0.6*%
%TF.CreationDate,2025-12-30T01:20:39+01:00*%
%TF.ProjectId,40Pin GPIO Breakout,34305069-6e20-4475-9049-4f2042726561,rev?*%
%TF.SameCoordinates,Original*%
%TF.FileFunction,Copper,L1,Top*%
%TF.FilePolarity,Positive*%
%FSLAX46Y46*%
G04 Gerber Fmt 4.6, Leading zero omitted, Abs format (unit mm)*
G04 Created by KiCad (PCBNEW 9.0.6) date 2025-12-30 01:20:39*
%MOMM*%
%LPD*%
G01*
G04 APERTURE LIST*
%TA.AperFunction,ComponentPad*%
%ADD10R,1.700000X1.700000*%
%TD*%
%TA.AperFunction,ComponentPad*%
%ADD11C,1.700000*%
%TD*%
%TA.AperFunction,ComponentPad*%
%ADD12C,1.800000*%
%TD*%
%TA.AperFunction,ViaPad*%
%ADD13C,8.000000*%
%TD*%
%TA.AperFunction,ViaPad*%
%ADD14C,0.600000*%
%TD*%
%TA.AperFunction,Conductor*%
%ADD15C,0.200000*%
%TD*%
G04 APERTURE END LIST*
D10*
%TO.P,J6,1,3V3*%
%TO.N,+3V3*%
X169960000Y-63980000D03*
D11*
%TO.P,J6,2,5V*%
%TO.N,+5V*%
X172500000Y-63980000D03*
%TO.P,J6,3,SDA_I2C1/GPIO02*%
%TO.N,IIC1_SDA*%
X169960000Y-66520000D03*
%TO.P,J6,4,5V*%
%TO.N,+5V*%
X172500000Y-66520000D03*
%TO.P,J6,5,SCL_I2C1/GPIO03*%
%TO.N,IIC1_SCL*%
X169960000Y-69060000D03*
%TO.P,J6,6,GND*%
%TO.N,GND*%
X172500000Y-69060000D03*
%TO.P,J6,7,GPCLK0/GPIO04*%
%TO.N,IIC3_SDA*%
X169960000Y-71600000D03*
%TO.P,J6,8,GPIO14/UART_TXD*%
%TO.N,UART0_TXD*%
X172500000Y-71600000D03*
%TO.P,J6,9,GND*%
%TO.N,GND*%
X169960000Y-74140000D03*
%TO.P,J6,10,GPIO15/UART_RXD*%
%TO.N,UART0_RXD*%
X172500000Y-74140000D03*
%TO.P,J6,11,GPIO17/SPI1_~{CE1}*%
%TO.N,DI2*%
X169960000Y-76680000D03*
%TO.P,J6,12,GPIO18/SPI1_~{CE0}/PCM_CLK/PWM0*%
%TO.N,PCM_CLK*%
X172500000Y-76680000D03*
%TO.P,J6,13,GPIO27/SDIO_DAT3*%
%TO.N,TP_INT*%
X169960000Y-79220000D03*
%TO.P,J6,14,GND*%
%TO.N,GND*%
X172500000Y-79220000D03*
%TO.P,J6,15,GPIO22/SDIO_CLK*%
%TO.N,DI3*%
X169960000Y-81760000D03*
%TO.P,J6,16,GPIO23/SDIO_CMD*%
%TO.N,DI4*%
X172500000Y-81760000D03*
%TO.P,J6,17,3V3*%
%TO.N,+3V3*%
X169960000Y-84300000D03*
%TO.P,J6,18,GPIO24/SDIO_DAT0*%
%TO.N,DO1*%
X172500000Y-84300000D03*
%TO.P,J6,19,MOSI_SPI0/GPIO10*%
%TO.N,SPI0_MOSI*%
X169960000Y-86840000D03*
%TO.P,J6,20,GND*%
%TO.N,GND*%
X172500000Y-86840000D03*
%TO.P,J6,21,MISO_SPI0/GPIO09*%
%TO.N,SPI0_MISO*%
X169960000Y-89380000D03*
%TO.P,J6,22,GPIO25/SDIO_DAT1*%
%TO.N,DO2*%
X172500000Y-89380000D03*
%TO.P,J6,23,SCLK_SPI0/GPIO11*%
%TO.N,SPI0_SCLK*%
X169960000Y-91920000D03*
%TO.P,J6,24,~{CE0}_SPI0/GPIO08*%
%TO.N,SPI0_CE0*%
X172500000Y-91920000D03*
%TO.P,J6,25,GND*%
%TO.N,GND*%
X169960000Y-94460000D03*
%TO.P,J6,26,~{CE1}_SPI0/GPIO07*%
%TO.N,SPI0_CE1*%
X172500000Y-94460000D03*
%TO.P,J6,27,ID_SD_I2C0/GPIO00*%
%TO.N,ID_SD*%
X169960000Y-97000000D03*
%TO.P,J6,28,ID_SC_I2C0/GPIO01*%
%TO.N,ID_SC*%
X172500000Y-97000000D03*
%TO.P,J6,29,GPCLK1/GPIO05*%
%TO.N,IIC3_SCL*%
X169960000Y-99540000D03*
%TO.P,J6,30,GND*%
%TO.N,GND*%
X172500000Y-99540000D03*
%TO.P,J6,31,GPCLK2/GPIO06*%
%TO.N,DO4*%
X169960000Y-102080000D03*
%TO.P,J6,32,GPIO12/PWM0*%
%TO.N,CAN_INT*%
X172500000Y-102080000D03*
%TO.P,J6,33,GPIO13/PWM1*%
%TO.N,LCD_PWM*%
X169960000Y-104620000D03*
%TO.P,J6,34,GND*%
%TO.N,GND*%
X172500000Y-104620000D03*
%TO.P,J6,35,GPIO19/SPI1_MISO/PCM_FS*%
%TO.N,PCM_FS*%
X169960000Y-107160000D03*
%TO.P,J6,36,GPIO16/SPI1_~{CE2}*%
%TO.N,DI1*%
X172500000Y-107160000D03*
%TO.P,J6,37,GPIO26/SDIO_DAT2*%
%TO.N,DO3*%
X169960000Y-109700000D03*
%TO.P,J6,38,GPIO20/SPI1_MOSI/PCM_DIN/PWM1*%
%TO.N,PCM_DIN*%
X172500000Y-109700000D03*
%TO.P,J6,39,GND*%
%TO.N,GND*%
X169960000Y-112240000D03*
%TO.P,J6,40,GPIO21/SPI1_SCLK/PCM_DOUT*%
%TO.N,PCM_DOUT*%
X172500000Y-112240000D03*
%TD*%
D12*
%TO.P,J4,1,1*%
%TO.N,GND*%
X132735000Y-105546400D03*
%TO.P,J4,2,2*%
%TO.N,+5V*%
X135275003Y-110546400D03*
%TO.P,J4,3,3*%
%TO.N,SPI0_CE0*%
X137815003Y-105546400D03*
%TO.P,J4,4,4*%
%TO.N,+3V3*%
X140355003Y-110546400D03*
%TO.P,J4,5,5*%
%TO.N,SPI0_CE1*%
X142895003Y-105546400D03*
%TO.P,J4,6,6*%
%TO.N,SPI0_MISO*%
X145435003Y-110546400D03*
%TO.P,J4,7,7*%
%TO.N,TP_INT*%
X147975003Y-105546400D03*
%TO.P,J4,8,8*%
%TO.N,SPI0_MOSI*%
X150515003Y-110546400D03*
%TO.P,J4,9,9*%
%TO.N,LCD_PWM*%
X153055003Y-105546400D03*
%TO.P,J4,10,10*%
%TO.N,SPI0_SCLK*%
X155595003Y-110546400D03*
%TD*%
%TO.P,J3,1,1*%
%TO.N,GND*%
X132735000Y-91886000D03*
%TO.P,J3,2,2*%
%TO.N,+5V*%
X135275003Y-96886000D03*
%TO.P,J3,3,3*%
%TO.N,DI1*%
X137815003Y-91886000D03*
%TO.P,J3,4,4*%
%TO.N,+3V3*%
X140355003Y-96886000D03*
%TO.P,J3,5,5*%
%TO.N,DI2*%
X142895003Y-91886000D03*
%TO.P,J3,6,6*%
%TO.N,CAN_INT*%
X145435003Y-96886000D03*
%TO.P,J3,7,7*%
%TO.N,DI3*%
X147975003Y-91886000D03*
%TO.P,J3,8,8*%
%TO.N,UART0_RXD*%
X150515003Y-96886000D03*
%TO.P,J3,9,9*%
%TO.N,DI4*%
X153055003Y-91886000D03*
%TO.P,J3,10,10*%
%TO.N,UART0_TXD*%
X155595003Y-96886000D03*
%TD*%
%TO.P,J2,1,1*%
%TO.N,GND*%
X132735000Y-78225600D03*
%TO.P,J2,2,2*%
%TO.N,+3V3*%
X135275003Y-83225600D03*
%TO.P,J2,3,3*%
%TO.N,DO1*%
X137815003Y-78225600D03*
%TO.P,J2,4,4*%
%TO.N,PCM_CLK*%
X140355003Y-83225600D03*
%TO.P,J2,5,5*%
%TO.N,DO2*%
X142895003Y-78225600D03*
%TO.P,J2,6,6*%
%TO.N,PCM_FS*%
X145435003Y-83225600D03*
%TO.P,J2,7,7*%
%TO.N,DO3*%
X147975003Y-78225600D03*
%TO.P,J2,8,8*%
%TO.N,PCM_DIN*%
X150515003Y-83225600D03*
%TO.P,J2,9,9*%
%TO.N,DO4*%
X153055003Y-78225600D03*
%TO.P,J2,10,10*%
%TO.N,PCM_DOUT*%
X155595003Y-83225600D03*
%TD*%
%TO.P,J1,1,1*%
%TO.N,GND*%
X132735000Y-64565200D03*
%TO.P,J1,2,2*%
%TO.N,+5V*%
X135275003Y-69565200D03*
%TO.P,J1,3,3*%
%TO.N,IIC1_SCL*%
X137815003Y-64565200D03*
%TO.P,J1,4,4*%
%TO.N,+3V3*%
X140355003Y-69565200D03*
%TO.P,J1,5,5*%
%TO.N,IIC3_SCL*%
X142895003Y-64565200D03*
%TO.P,J1,6,6*%
%TO.N,GND*%
X145435003Y-69565200D03*
%TO.P,J1,7,7*%
%TO.N,ID_SC*%
X147975003Y-64565200D03*
%TO.P,J1,8,8*%
%TO.N,IIC1_SDA*%
X150515003Y-69565200D03*
%TO.P,J1,9,9*%
%TO.N,ID_SD*%
X153055003Y-64565200D03*
%TO.P,J1,10,10*%
%TO.N,IIC3_SDA*%
X155595003Y-69565200D03*
%TD*%
D13*
%TO.N,*%
X163011600Y-89001700D03*
D14*
%TO.N,SPI0_CE0*%
X139866000Y-93536200D03*
%TO.N,SPI0_SCLK*%
X167565200Y-95896200D03*
X156757200Y-98200500D03*
%TO.N,SPI0_CE1*%
X145405500Y-98396300D03*
%TO.N,TP_INT*%
X166425400Y-79927800D03*
X165873000Y-104161800D03*
%TO.N,SPI0_MISO*%
X144800100Y-93392000D03*
%TO.N,SPI0_MOSI*%
X168098200Y-106962100D03*
%TO.N,UART0_TXD*%
X173851100Y-90779200D03*
%TO.N,DI4*%
X154016100Y-93772600D03*
%TO.N,UART0_RXD*%
X152448100Y-80056900D03*
%TO.N,DI2*%
X142741700Y-80104200D03*
%TO.N,PCM_FS*%
X154898500Y-106339400D03*
%TO.N,PCM_DOUT*%
X157013800Y-110408500D03*
%TO.N,DO3*%
X156957200Y-79095700D03*
%TO.N,DO4*%
X155408500Y-101508500D03*
%TO.N,PCM_CLK*%
X143425100Y-76068800D03*
%TO.N,PCM_DIN*%
X154075400Y-108979800D03*
%TO.N,ID_SD*%
X152409500Y-95636600D03*
%TO.N,IIC1_SDA*%
X151500700Y-67166500D03*
%TO.N,IIC3_SCL*%
X148304400Y-95737000D03*
%TO.N,ID_SC*%
X171416800Y-65063200D03*
%TD*%
D15*
%TO.N,+5V*%
X172500000Y-66520000D02*
X172500000Y-63980000D01*
X135275000Y-110546400D02*
X135275000Y-96886000D01*
X134018900Y-95629900D02*
X135275000Y-96886000D01*
X135275000Y-69565200D02*
X134018900Y-70821300D01*
X134018900Y-70821300D02*
X134018900Y-95629900D01*
%TO.N,ID_SC*%
X174452800Y-95047200D02*
X174452800Y-69371900D01*
%TO.N,GND*%
X172032500Y-90546900D02*
X171309400Y-89823800D01*
X171309400Y-89823800D02*
X171309400Y-86840000D01*
%TO.N,UART0_TXD*%
X173851100Y-90779200D02*
X173851100Y-72951100D01*
%TO.N,SPI0_CE0*%
X137815000Y-95587200D02*
X139866000Y-93536200D01*
X137815000Y-105546400D02*
X137815000Y-95587200D01*
%TO.N,SPI0_SCLK*%
X167565200Y-94314800D02*
X167565200Y-95896200D01*
X169960000Y-91920000D02*
X167565200Y-94314800D01*
X156757200Y-109384200D02*
X155595000Y-110546400D01*
X156757200Y-98200500D02*
X156757200Y-109384200D01*
%TO.N,SPI0_CE1*%
X142895000Y-100906800D02*
X142895000Y-105546400D01*
X145405500Y-98396300D02*
X142895000Y-100906800D01*
%TO.N,TP_INT*%
X165873000Y-93838100D02*
X165873000Y-104161800D01*
X167311600Y-92399500D02*
X165873000Y-93838100D01*
X167311600Y-80814000D02*
X167311600Y-92399500D01*
X166425400Y-79927800D02*
X167311600Y-80814000D01*
%TO.N,SPI0_MISO*%
X144800100Y-94551600D02*
X144800100Y-93392000D01*
X146642100Y-96393600D02*
X144800100Y-94551600D01*
X146642100Y-109339300D02*
X146642100Y-96393600D01*
X145435000Y-110546400D02*
X146642100Y-109339300D01*
%TO.N,SPI0_MOSI*%
X168570200Y-88229800D02*
X169960000Y-86840000D01*
X168570200Y-91850300D02*
X168570200Y-88229800D01*
X166888000Y-93532500D02*
X168570200Y-91850300D01*
X166888000Y-105751900D02*
X166888000Y-93532500D01*
X168098200Y-106962100D02*
X166888000Y-105751900D01*
%TO.N,UART0_TXD*%
X173851100Y-72951100D02*
X172500000Y-71600000D01*
%TO.N,DI4*%
X153055000Y-92811500D02*
X154016100Y-93772600D01*
X153055000Y-91886000D02*
X153055000Y-92811500D01*
%TO.N,UART0_RXD*%
X152022300Y-96886000D02*
X150515000Y-96886000D01*
X154617900Y-94290400D02*
X152022300Y-96886000D01*
X154617900Y-90348600D02*
X154617900Y-94290400D01*
X152448100Y-88178800D02*
X154617900Y-90348600D01*
X152448100Y-80056900D02*
X152448100Y-88178800D01*
%TO.N,DI2*%
X142895000Y-80257500D02*
X142895000Y-91886000D01*
X142741700Y-80104200D02*
X142895000Y-80257500D01*
%TO.N,PCM_FS*%
X154898500Y-103717100D02*
X154898500Y-106339400D01*
X145435000Y-94253600D02*
X154898500Y-103717100D01*
X145435000Y-83225600D02*
X145435000Y-94253600D01*
%TO.N,PCM_DOUT*%
X157389500Y-110032800D02*
X157013800Y-110408500D01*
X157389500Y-85020100D02*
X157389500Y-110032800D01*
X155595000Y-83225600D02*
X157389500Y-85020100D01*
%TO.N,DO3*%
X157916400Y-80054900D02*
X156957200Y-79095700D01*
X157916400Y-97656400D02*
X157916400Y-80054900D01*
X169960000Y-109700000D02*
X157916400Y-97656400D01*
%TO.N,DO4*%
X154144700Y-84627500D02*
X154311000Y-84793800D01*
X153055000Y-83537800D02*
X153055000Y-78225600D01*
X154144700Y-84627500D02*
X153055000Y-83537800D01*
X155019600Y-85502400D02*
X154311000Y-84793800D01*
X155019600Y-95096200D02*
X155019600Y-85502400D01*
X154311000Y-95804800D02*
X155019600Y-95096200D01*
X154311000Y-100411000D02*
X154311000Y-95804800D01*
X155408500Y-101508500D02*
X154311000Y-100411000D01*
%TO.N,PCM_CLK*%
X143348900Y-76068800D02*
X143425100Y-76068800D01*
X140355000Y-79062700D02*
X143348900Y-76068800D01*
X140355000Y-83225600D02*
X140355000Y-79062700D01*
%TO.N,PCM_DIN*%
X155510800Y-107544400D02*
X154075400Y-108979800D01*
X155510800Y-103678500D02*
X155510800Y-107544400D01*
X149307100Y-97474800D02*
X155510800Y-103678500D01*
X149307100Y-84433500D02*
X149307100Y-97474800D01*
X150515000Y-83225600D02*
X149307100Y-84433500D01*
%TO.N,+3V3*%
X135275000Y-74645200D02*
X135275000Y-83225600D01*
X140355000Y-69565200D02*
X135275000Y-74645200D01*
X140355000Y-110546400D02*
X140355000Y-96886000D01*
X140467700Y-88418300D02*
X135275000Y-83225600D01*
X140467700Y-96773300D02*
X140467700Y-88418300D01*
X168801900Y-83141900D02*
X169960000Y-84300000D01*
X168801900Y-66001900D02*
X168801900Y-83141900D01*
X169672100Y-65131700D02*
X168801900Y-66001900D01*
X169960000Y-65131700D02*
X169672100Y-65131700D01*
X169960000Y-63980000D02*
X169960000Y-65131700D01*
%TO.N,ID_SD*%
X151846400Y-95073500D02*
X152409500Y-95636600D01*
X151846400Y-68267900D02*
X151846400Y-95073500D01*
X153055000Y-67059300D02*
X151846400Y-68267900D01*
X153055000Y-64565200D02*
X153055000Y-67059300D01*
%TO.N,IIC1_SDA*%
X150515000Y-68152200D02*
X150515000Y-69565200D01*
X151500700Y-67166500D02*
X150515000Y-68152200D01*
%TO.N,GND*%
X132735000Y-64565200D02*
X132735000Y-78225600D01*
X171111700Y-106008300D02*
X172500000Y-104620000D01*
X171111700Y-111088300D02*
X171111700Y-106008300D01*
X169960000Y-112240000D02*
X171111700Y-111088300D01*
X171309400Y-80410600D02*
X171309400Y-86840000D01*
X172500000Y-79220000D02*
X171309400Y-80410600D01*
X171309400Y-103429400D02*
X172500000Y-104620000D01*
X171309400Y-100730600D02*
X171309400Y-103429400D01*
X172500000Y-99540000D02*
X171309400Y-100730600D01*
X172755700Y-90546900D02*
X172032500Y-90546900D01*
X173651700Y-91442900D02*
X172755700Y-90546900D01*
X173651700Y-92397100D02*
X173651700Y-91442900D01*
X172938200Y-93110600D02*
X173651700Y-92397100D01*
X172152700Y-93110600D02*
X172938200Y-93110600D01*
X171309400Y-93953900D02*
X172152700Y-93110600D01*
X171309400Y-94460000D02*
X171309400Y-93953900D01*
X171309400Y-94460000D02*
X169960000Y-94460000D01*
X171309400Y-98349400D02*
X172500000Y-99540000D01*
X171309400Y-94460000D02*
X171309400Y-98349400D01*
X132735000Y-105546400D02*
X132735000Y-91886000D01*
X171111700Y-77831700D02*
X171111700Y-74140000D01*
X172500000Y-79220000D02*
X171111700Y-77831700D01*
X169960000Y-74140000D02*
X171111700Y-74140000D01*
X171111700Y-70448300D02*
X172500000Y-69060000D01*
X171111700Y-74140000D02*
X171111700Y-70448300D01*
X132735000Y-91886000D02*
X132735000Y-78225600D01*
%TO.N,IIC3_SCL*%
X146719000Y-68389200D02*
X142895000Y-64565200D01*
X146719000Y-94151600D02*
X146719000Y-68389200D01*
X148304400Y-95737000D02*
X146719000Y-94151600D01*
%TO.N,ID_SC*%
X171289200Y-65190800D02*
X171416800Y-65063200D01*
X171289200Y-66968900D02*
X171289200Y-65190800D01*
X172110300Y-67790000D02*
X171289200Y-66968900D01*
X172870900Y-67790000D02*
X172110300Y-67790000D01*
X174452800Y-69371900D02*
X172870900Y-67790000D01*
X172500000Y-97000000D02*
X174452800Y-95047200D01*
%TD*%
%TA.AperFunction,Conductor*%
%TO.N,GND*%
G36*
X171301444Y-107813999D02*
G01*
X171340486Y-107859056D01*
X171344951Y-107867820D01*
X171469890Y-108039786D01*
X171620213Y-108190109D01*
X171792182Y-108315050D01*
X171800946Y-108319516D01*
X171851742Y-108367491D01*
X171868536Y-108435312D01*
X171845998Y-108501447D01*
X171800946Y-108540484D01*
X171792182Y-108544949D01*
X171620213Y-108669890D01*
X171469890Y-108820213D01*
X171344949Y-108992182D01*
X171340484Y-109000946D01*
X171292509Y-109051742D01*
X171224688Y-109068536D01*
X171158553Y-109045998D01*
X171119516Y-109000946D01*
X171115050Y-108992182D01*
X170990109Y-108820213D01*
X170839786Y-108669890D01*
X170667820Y-108544951D01*
X170667115Y-108544591D01*
X170659054Y-108540485D01*
X170608259Y-108492512D01*
X170591463Y-108424692D01*
X170613999Y-108358556D01*
X170659054Y-108319515D01*
X170667816Y-108315051D01*
X170729271Y-108270402D01*
X170839786Y-108190109D01*
X170839788Y-108190106D01*
X170839792Y-108190104D01*
X170990104Y-108039792D01*
X170990106Y-108039788D01*
X170990109Y-108039786D01*
X171115048Y-107867820D01*
X171115047Y-107867820D01*
X171115051Y-107867816D01*
X171119514Y-107859054D01*
X171167488Y-107808259D01*
X171235308Y-107791463D01*
X171301444Y-107813999D01*
G37*
%TD.AperFunction*%
%TA.AperFunction,Conductor*%
G36*
X171301444Y-92573999D02*
G01*
X171340484Y-92619054D01*
X171342686Y-92623375D01*
X171344951Y-92627820D01*
X171469890Y-92799786D01*
X171620213Y-92950109D01*
X171792182Y-93075050D01*
X171800946Y-93079516D01*
X171851742Y-93127491D01*
X171868536Y-93195312D01*
X171845998Y-93261447D01*
X171800946Y-93300484D01*
X171792182Y-93304949D01*
X171620213Y-93429890D01*
X171469890Y-93580213D01*
X171344951Y-93752179D01*
X171248444Y-93941585D01*
X171182753Y-94143760D01*
X171160717Y-94282889D01*
X171149500Y-94353713D01*
X171149500Y-94566287D01*
X171182754Y-94776243D01*
X171247107Y-94974301D01*
X171248444Y-94978414D01*
X171344951Y-95167820D01*
X171469890Y-95339786D01*
X171620213Y-95490109D01*
X171792182Y-95615050D01*
X171800946Y-95619516D01*
X171851742Y-95667491D01*
X171868536Y-95735312D01*
X171845998Y-95801447D01*
X171800946Y-95840484D01*
X171792182Y-95844949D01*
X171620213Y-95969890D01*
X171469890Y-96120213D01*
X171344949Y-96292182D01*
X171340484Y-96300946D01*
X171292509Y-96351742D01*
X171224688Y-96368536D01*
X171158553Y-96345998D01*
X171119516Y-96300946D01*
X171115050Y-96292182D01*
X170990109Y-96120213D01*
X170839786Y-95969890D01*
X170667820Y-95844951D01*
X170478414Y-95748444D01*
X170478413Y-95748443D01*
X170478412Y-95748443D01*
X170276243Y-95682754D01*
X170276241Y-95682753D01*
X170276240Y-95682753D01*
X170100141Y-95654862D01*
X170066287Y-95649500D01*
X169853713Y-95649500D01*
X169819859Y-95654862D01*
X169643760Y-95682753D01*
X169441585Y-95748444D01*
X169252179Y-95844951D01*
X169080213Y-95969890D01*
X168929890Y-96120213D01*
X168804951Y-96292179D01*
X168708444Y-96481585D01*
X168708443Y-96481587D01*
X168708443Y-96481588D01*
X168683600Y-96558047D01*
X168642753Y-96683760D01*
X168642753Y-96683762D01*
X168609500Y-96893713D01*
X168609500Y-97106287D01*
X168619534Y-97169644D01*
X168633008Y-97254713D01*
X168642754Y-97316243D01*
X168703568Y-97503409D01*
X168708444Y-97518414D01*
X168804951Y-97707820D01*
X168929890Y-97879786D01*
X169080213Y-98030109D01*
X169252182Y-98155050D01*
X169260946Y-98159516D01*
X169311742Y-98207491D01*
X169328536Y-98275312D01*
X169305998Y-98341447D01*
X169260946Y-98380484D01*
X169252182Y-98384949D01*
X169080213Y-98509890D01*
X168929890Y-98660213D01*
X168804951Y-98832179D01*
X168708444Y-99021585D01*
X168642753Y-99223760D01*
X168609500Y-99433713D01*
X168609500Y-99646286D01*
X168642753Y-99856239D01*
X168708444Y-100058414D01*
X168804951Y-100247820D01*
X168929890Y-100419786D01*
X169080213Y-100570109D01*
X169252182Y-100695050D01*
X169260946Y-100699516D01*
X169311742Y-100747491D01*
X169328536Y-100815312D01*
X169305998Y-100881447D01*
X169260946Y-100920484D01*
X169252182Y-100924949D01*
X169080213Y-101049890D01*
X168929890Y-101200213D01*
X168804951Y-101372179D01*
X168708444Y-101561585D01*
X168642753Y-101763760D01*
X168609500Y-101973713D01*
X168609500Y-102186287D01*
X168614506Y-102217894D01*
X168642753Y-102396239D01*
X168708444Y-102598414D01*
X168804951Y-102787820D01*
X168929890Y-102959786D01*
X169080213Y-103110109D01*
X169252182Y-103235050D01*
X169260946Y-103239516D01*
X169311742Y-103287491D01*
X169328536Y-103355312D01*
X169305998Y-103421447D01*
X169260946Y-103460484D01*
X169252182Y-103464949D01*
X169080213Y-103589890D01*
X168929890Y-103740213D01*
X168804951Y-103912179D01*
X168708444Y-104101585D01*
X168642753Y-104303760D01*
X168609500Y-104513713D01*
X168609500Y-104726286D01*
X168642008Y-104931537D01*
X168642754Y-104936243D01*
X168666327Y-105008794D01*
X168708444Y-105138414D01*
X168804951Y-105327820D01*
X168929890Y-105499786D01*
X169080213Y-105650109D01*
X169252182Y-105775050D01*
X169260946Y-105779516D01*
X169311742Y-105827491D01*
X169328536Y-105895312D01*
X169305998Y-105961447D01*
X169260946Y-106000484D01*
X169252182Y-106004949D01*
X169080213Y-106129890D01*
X168929894Y-106280209D01*
X168854691Y-106383718D01*
X168799361Y-106426383D01*
X168729748Y-106432362D01*
X168667953Y-106399756D01*
X168666692Y-106398513D01*
X168608492Y-106340313D01*
X168608488Y-106340310D01*
X168477385Y-106252709D01*
X168477372Y-106252702D01*
X168331701Y-106192364D01*
X168331691Y-106192361D01*
X168176349Y-106161461D01*
X168114438Y-106129076D01*
X168112860Y-106127525D01*
X167524819Y-105539484D01*
X167491334Y-105478161D01*
X167488500Y-105451803D01*
X167488500Y-96820700D01*
X167508185Y-96753661D01*
X167560989Y-96707906D01*
X167612500Y-96696700D01*
X167644044Y-96696700D01*
X167644045Y-96696699D01*
X167798697Y-96665937D01*
X167944379Y-96605594D01*
X168075489Y-96517989D01*
X168186989Y-96406489D01*
X168274594Y-96275379D01*
X168334937Y-96129697D01*
X168365700Y-95975042D01*
X168365700Y-95817358D01*
X168365700Y-95817355D01*
X168365699Y-95817353D01*
X168347541Y-95726066D01*
X168334937Y-95662703D01*
X168318768Y-95623668D01*
X168274597Y-95517027D01*
X168274590Y-95517014D01*
X168186598Y-95385325D01*
X168165720Y-95318647D01*
X168165700Y-95316434D01*
X168165700Y-94614896D01*
X168185385Y-94547857D01*
X168202014Y-94527220D01*
X169475478Y-93253755D01*
X169536799Y-93220272D01*
X169601473Y-93223506D01*
X169643757Y-93237246D01*
X169853713Y-93270500D01*
X169853714Y-93270500D01*
X170066286Y-93270500D01*
X170066287Y-93270500D01*
X170276243Y-93237246D01*
X170478412Y-93171557D01*
X170667816Y-93075051D01*
X170735452Y-93025911D01*
X170839786Y-92950109D01*
X170839788Y-92950106D01*
X170839792Y-92950104D01*
X170990104Y-92799792D01*
X170990106Y-92799788D01*
X170990109Y-92799786D01*
X171115048Y-92627820D01*
X171115047Y-92627820D01*
X171115051Y-92627816D01*
X171119514Y-92619054D01*
X171167488Y-92568259D01*
X171235308Y-92551463D01*
X171301444Y-92573999D01*
G37*
%TD.AperFunction*%
%TA.AperFunction,Conductor*%
G36*
X171301444Y-84953999D02*
G01*
X171340486Y-84999056D01*
X171344951Y-85007820D01*
X171469890Y-85179786D01*
X171620213Y-85330109D01*
X171792179Y-85455048D01*
X171792181Y-85455049D01*
X171792184Y-85455051D01*
X171981588Y-85551557D01*
X172183757Y-85617246D01*
X172393713Y-85650500D01*
X172393714Y-85650500D01*
X172606286Y-85650500D01*
X172606287Y-85650500D01*
X172816243Y-85617246D01*
X173018412Y-85551557D01*
X173070305Y-85525115D01*
X173138974Y-85512220D01*
X173203714Y-85538496D01*
X173243972Y-85595602D01*
X173250600Y-85635601D01*
X173250600Y-88044398D01*
X173230915Y-88111437D01*
X173178111Y-88157192D01*
X173108953Y-88167136D01*
X173070306Y-88154883D01*
X173018417Y-88128445D01*
X173018414Y-88128444D01*
X173018412Y-88128443D01*
X172816243Y-88062754D01*
X172816241Y-88062753D01*
X172816240Y-88062753D01*
X172654957Y-88037208D01*
X172606287Y-88029500D01*
X172393713Y-88029500D01*
X172345042Y-88037208D01*
X172183760Y-88062753D01*
X171981585Y-88128444D01*
X171792179Y-88224951D01*
X171620213Y-88349890D01*
X171469890Y-88500213D01*
X171344949Y-88672182D01*
X171340484Y-88680946D01*
X171292509Y-88731742D01*
X171224688Y-88748536D01*
X171158553Y-88725998D01*
X171119516Y-88680946D01*
X171115050Y-88672182D01*
X170990109Y-88500213D01*
X170839786Y-88349890D01*
X170667820Y-88224951D01*
X170667115Y-88224591D01*
X170659054Y-88220485D01*
X170608259Y-88172512D01*
X170591463Y-88104692D01*
X170613999Y-88038556D01*
X170659054Y-87999515D01*
X170667816Y-87995051D01*
X170707274Y-87966383D01*
X170839786Y-87870109D01*
X170839788Y-87870106D01*
X170839792Y-87870104D01*
X170990104Y-87719792D01*
X170990106Y-87719788D01*
X170990109Y-87719786D01*
X171115048Y-87547820D01*
X171115047Y-87547820D01*
X171115051Y-87547816D01*
X171211557Y-87358412D01*
X171277246Y-87156243D01*
X171310500Y-86946287D01*
X171310500Y-86733713D01*
X171277246Y-86523757D01*
X171211557Y-86321588D01*
X171115051Y-86132184D01*
X171115049Y-86132181D01*
X171115048Y-86132179D01*
X170990109Y-85960213D01*
X170839786Y-85809890D01*
X170667820Y-85684951D01*
X170667115Y-85684591D01*
X170659054Y-85680485D01*
X170608259Y-85632512D01*
X170591463Y-85564692D01*
X170613999Y-85498556D01*
X170659054Y-85459515D01*
X170667816Y-85455051D01*
X170711459Y-85423343D01*
X170839786Y-85330109D01*
X170839788Y-85330106D01*
X170839792Y-85330104D01*
X170990104Y-85179792D01*
X170990106Y-85179788D01*
X170990109Y-85179786D01*
X171115048Y-85007820D01*
X171115047Y-85007820D01*
X171115051Y-85007816D01*
X171119514Y-84999054D01*
X171167488Y-84948259D01*
X171235308Y-84931463D01*
X171301444Y-84953999D01*
G37*
%TD.AperFunction*%
%TA.AperFunction,Conductor*%
G36*
X171301444Y-82413999D02*
G01*
X171340486Y-82459056D01*
X171344951Y-82467820D01*
X171469890Y-82639786D01*
X171620213Y-82790109D01*
X171792182Y-82915050D01*
X171800946Y-82919516D01*
X171851742Y-82967491D01*
X171868536Y-83035312D01*
X171845998Y-83101447D01*
X171800946Y-83140484D01*
X171792182Y-83144949D01*
X171620213Y-83269890D01*
X171469890Y-83420213D01*
X171344949Y-83592182D01*
X171340484Y-83600946D01*
X171292509Y-83651742D01*
X171224688Y-83668536D01*
X171158553Y-83645998D01*
X171119516Y-83600946D01*
X171115050Y-83592182D01*
X170990109Y-83420213D01*
X170839786Y-83269890D01*
X170667820Y-83144951D01*
X170667115Y-83144591D01*
X170659054Y-83140485D01*
X170608259Y-83092512D01*
X170591463Y-83024692D01*
X170613999Y-82958556D01*
X170659054Y-82919515D01*
X170667816Y-82915051D01*
X170710601Y-82883966D01*
X170839786Y-82790109D01*
X170839788Y-82790106D01*
X170839792Y-82790104D01*
X170990104Y-82639792D01*
X170990106Y-82639788D01*
X170990109Y-82639786D01*
X171115048Y-82467820D01*
X171115047Y-82467820D01*
X171115051Y-82467816D01*
X171119514Y-82459054D01*
X171167488Y-82408259D01*
X171235308Y-82391463D01*
X171301444Y-82413999D01*
G37*
%TD.AperFunction*%
%TA.AperFunction,Conductor*%
G36*
X171247226Y-77315524D02*
G01*
X171259810Y-77314985D01*
X171279674Y-77326581D01*
X171301444Y-77333999D01*
X171310719Y-77344703D01*
X171320151Y-77350209D01*
X171340486Y-77379056D01*
X171344951Y-77387820D01*
X171469890Y-77559786D01*
X171620213Y-77710109D01*
X171792179Y-77835048D01*
X171792181Y-77835049D01*
X171792184Y-77835051D01*
X171981588Y-77931557D01*
X172183757Y-77997246D01*
X172393713Y-78030500D01*
X172393714Y-78030500D01*
X172606286Y-78030500D01*
X172606287Y-78030500D01*
X172816243Y-77997246D01*
X173018412Y-77931557D01*
X173070305Y-77905115D01*
X173138974Y-77892220D01*
X173203714Y-77918496D01*
X173243972Y-77975602D01*
X173250600Y-78015601D01*
X173250600Y-80424398D01*
X173230915Y-80491437D01*
X173178111Y-80537192D01*
X173108953Y-80547136D01*
X173070306Y-80534883D01*
X173018417Y-80508445D01*
X173018414Y-80508444D01*
X173018412Y-80508443D01*
X172816243Y-80442754D01*
X172816241Y-80442753D01*
X172816240Y-80442753D01*
X172654957Y-80417208D01*
X172606287Y-80409500D01*
X172393713Y-80409500D01*
X172345042Y-80417208D01*
X172183760Y-80442753D01*
X171981585Y-80508444D01*
X171792179Y-80604951D01*
X171620213Y-80729890D01*
X171469890Y-80880213D01*
X171344949Y-81052182D01*
X171340484Y-81060946D01*
X171292509Y-81111742D01*
X171224688Y-81128536D01*
X171158553Y-81105998D01*
X171119516Y-81060946D01*
X171115050Y-81052182D01*
X170990109Y-80880213D01*
X170839786Y-80729890D01*
X170667820Y-80604951D01*
X170667115Y-80604591D01*
X170659054Y-80600485D01*
X170608259Y-80552512D01*
X170591463Y-80484692D01*
X170613999Y-80418556D01*
X170659054Y-80379515D01*
X170667816Y-80375051D01*
X170731697Y-80328639D01*
X170839786Y-80250109D01*
X170839788Y-80250106D01*
X170839792Y-80250104D01*
X170990104Y-80099792D01*
X170990106Y-80099788D01*
X170990109Y-80099786D01*
X171115048Y-79927820D01*
X171115047Y-79927820D01*
X171115051Y-79927816D01*
X171211557Y-79738412D01*
X171277246Y-79536243D01*
X171310500Y-79326287D01*
X171310500Y-79113713D01*
X171277246Y-78903757D01*
X171211557Y-78701588D01*
X171115051Y-78512184D01*
X171115049Y-78512181D01*
X171115048Y-78512179D01*
X170990109Y-78340213D01*
X170839786Y-78189890D01*
X170667820Y-78064951D01*
X170667115Y-78064591D01*
X170659054Y-78060485D01*
X170608259Y-78012512D01*
X170591463Y-77944692D01*
X170613999Y-77878556D01*
X170659054Y-77839515D01*
X170667816Y-77835051D01*
X170710601Y-77803966D01*
X170839786Y-77710109D01*
X170839788Y-77710106D01*
X170839792Y-77710104D01*
X170990104Y-77559792D01*
X170990106Y-77559788D01*
X170990109Y-77559786D01*
X171115048Y-77387820D01*
X171115047Y-77387820D01*
X171115051Y-77387816D01*
X171119514Y-77379054D01*
X171128160Y-77369900D01*
X171132897Y-77358232D01*
X171151696Y-77344979D01*
X171167488Y-77328259D01*
X171179710Y-77325231D01*
X171190004Y-77317976D01*
X171212985Y-77316991D01*
X171235308Y-77311463D01*
X171247226Y-77315524D01*
G37*
%TD.AperFunction*%
%TA.AperFunction,Conductor*%
G36*
X171301444Y-72253999D02*
G01*
X171340486Y-72299056D01*
X171344951Y-72307820D01*
X171469890Y-72479786D01*
X171620213Y-72630109D01*
X171792182Y-72755050D01*
X171800946Y-72759516D01*
X171851742Y-72807491D01*
X171868536Y-72875312D01*
X171845998Y-72941447D01*
X171800946Y-72980484D01*
X171792182Y-72984949D01*
X171620213Y-73109890D01*
X171469890Y-73260213D01*
X171344951Y-73432179D01*
X171248444Y-73621585D01*
X171182753Y-73823760D01*
X171149500Y-74033713D01*
X171149500Y-74246286D01*
X171182753Y-74456239D01*
X171248444Y-74658414D01*
X171344951Y-74847820D01*
X171469890Y-75019786D01*
X171620213Y-75170109D01*
X171792182Y-75295050D01*
X171800946Y-75299516D01*
X171851742Y-75347491D01*
X171868536Y-75415312D01*
X171845998Y-75481447D01*
X171800946Y-75520484D01*
X171792182Y-75524949D01*
X171620213Y-75649890D01*
X171469890Y-75800213D01*
X171344949Y-75972182D01*
X171340484Y-75980946D01*
X171292509Y-76031742D01*
X171224688Y-76048536D01*
X171158553Y-76025998D01*
X171119516Y-75980946D01*
X171115050Y-75972182D01*
X170990109Y-75800213D01*
X170839786Y-75649890D01*
X170667820Y-75524951D01*
X170478414Y-75428444D01*
X170478413Y-75428443D01*
X170478412Y-75428443D01*
X170276243Y-75362754D01*
X170276241Y-75362753D01*
X170276240Y-75362753D01*
X170114957Y-75337208D01*
X170066287Y-75329500D01*
X169853713Y-75329500D01*
X169814202Y-75335757D01*
X169643759Y-75362753D01*
X169643755Y-75362754D01*
X169564717Y-75388435D01*
X169494876Y-75390430D01*
X169435043Y-75354349D01*
X169404216Y-75291648D01*
X169402400Y-75270504D01*
X169402400Y-73009495D01*
X169422085Y-72942456D01*
X169474889Y-72896701D01*
X169544047Y-72886757D01*
X169564709Y-72891561D01*
X169643757Y-72917246D01*
X169853713Y-72950500D01*
X169853714Y-72950500D01*
X170066286Y-72950500D01*
X170066287Y-72950500D01*
X170276243Y-72917246D01*
X170478412Y-72851557D01*
X170667816Y-72755051D01*
X170689789Y-72739086D01*
X170839786Y-72630109D01*
X170839788Y-72630106D01*
X170839792Y-72630104D01*
X170990104Y-72479792D01*
X170990106Y-72479788D01*
X170990109Y-72479786D01*
X171115048Y-72307820D01*
X171115047Y-72307820D01*
X171115051Y-72307816D01*
X171119514Y-72299054D01*
X171167488Y-72248259D01*
X171235308Y-72231463D01*
X171301444Y-72253999D01*
G37*
%TD.AperFunction*%
%TA.AperFunction,Conductor*%
G36*
X170973805Y-67518593D02*
G01*
X171018161Y-67547097D01*
X171371550Y-67900486D01*
X171741584Y-68270520D01*
X171741586Y-68270521D01*
X171741590Y-68270524D01*
X171810215Y-68310144D01*
X171878516Y-68349577D01*
X172031243Y-68390501D01*
X172031245Y-68390501D01*
X172196954Y-68390501D01*
X172196970Y-68390500D01*
X172570803Y-68390500D01*
X172637842Y-68410185D01*
X172658484Y-68426819D01*
X173815981Y-69584316D01*
X173849466Y-69645639D01*
X173852300Y-69671997D01*
X173852300Y-70782040D01*
X173832615Y-70849079D01*
X173779811Y-70894834D01*
X173710653Y-70904778D01*
X173647097Y-70875753D01*
X173627982Y-70854925D01*
X173530109Y-70720214D01*
X173530105Y-70720209D01*
X173379786Y-70569890D01*
X173207820Y-70444951D01*
X173018414Y-70348444D01*
X173018413Y-70348443D01*
X173018412Y-70348443D01*
X172816243Y-70282754D01*
X172816241Y-70282753D01*
X172816240Y-70282753D01*
X172654957Y-70257208D01*
X172606287Y-70249500D01*
X172393713Y-70249500D01*
X172345042Y-70257208D01*
X172183760Y-70282753D01*
X171981585Y-70348444D01*
X171792179Y-70444951D01*
X171620213Y-70569890D01*
X171469890Y-70720213D01*
X171344949Y-70892182D01*
X171340484Y-70900946D01*
X171292509Y-70951742D01*
X171224688Y-70968536D01*
X171158553Y-70945998D01*
X171119516Y-70900946D01*
X171115050Y-70892182D01*
X170990109Y-70720213D01*
X170839786Y-70569890D01*
X170667820Y-70444951D01*
X170667115Y-70444591D01*
X170659054Y-70440485D01*
X170608259Y-70392512D01*
X170591463Y-70324692D01*
X170613999Y-70258556D01*
X170659054Y-70219515D01*
X170667816Y-70215051D01*
X170689789Y-70199086D01*
X170839786Y-70090109D01*
X170839788Y-70090106D01*
X170839792Y-70090104D01*
X170990104Y-69939792D01*
X170990106Y-69939788D01*
X170990109Y-69939786D01*
X171115048Y-69767820D01*
X171115047Y-69767820D01*
X171115051Y-69767816D01*
X171211557Y-69578412D01*
X171277246Y-69376243D01*
X171310500Y-69166287D01*
X171310500Y-68953713D01*
X171277246Y-68743757D01*
X171211557Y-68541588D01*
X171115051Y-68352184D01*
X171115049Y-68352181D01*
X171115048Y-68352179D01*
X170990109Y-68180213D01*
X170839786Y-68029890D01*
X170667820Y-67904951D01*
X170667115Y-67904591D01*
X170659054Y-67900485D01*
X170608259Y-67852512D01*
X170591463Y-67784692D01*
X170613999Y-67718556D01*
X170659054Y-67679515D01*
X170667816Y-67675051D01*
X170788237Y-67587561D01*
X170839789Y-67550107D01*
X170839789Y-67550105D01*
X170839792Y-67550104D01*
X170842792Y-67547104D01*
X170904113Y-67513614D01*
X170973805Y-67518593D01*
G37*
%TD.AperFunction*%
%TA.AperFunction,Conductor*%
G36*
X175006922Y-61501280D02*
G01*
X175097266Y-61511459D01*
X175124331Y-61517636D01*
X175203540Y-61545352D01*
X175228553Y-61557398D01*
X175299606Y-61602043D01*
X175321313Y-61619355D01*
X175380644Y-61678686D01*
X175397957Y-61700395D01*
X175442600Y-61771444D01*
X175454648Y-61796462D01*
X175482362Y-61875666D01*
X175488540Y-61902735D01*
X175498720Y-61993076D01*
X175499500Y-62006961D01*
X175499500Y-115493038D01*
X175498720Y-115506922D01*
X175498720Y-115506923D01*
X175488540Y-115597264D01*
X175482362Y-115624333D01*
X175454648Y-115703537D01*
X175442600Y-115728555D01*
X175397957Y-115799604D01*
X175380644Y-115821313D01*
X175321313Y-115880644D01*
X175299604Y-115897957D01*
X175228555Y-115942600D01*
X175203537Y-115954648D01*
X175124333Y-115982362D01*
X175097264Y-115988540D01*
X175017075Y-115997576D01*
X175006921Y-115998720D01*
X174993038Y-115999500D01*
X128006962Y-115999500D01*
X127993078Y-115998720D01*
X127980553Y-115997308D01*
X127902735Y-115988540D01*
X127875666Y-115982362D01*
X127796462Y-115954648D01*
X127771444Y-115942600D01*
X127700395Y-115897957D01*
X127678686Y-115880644D01*
X127619355Y-115821313D01*
X127602042Y-115799604D01*
X127557399Y-115728555D01*
X127545351Y-115703537D01*
X127517637Y-115624333D01*
X127511459Y-115597263D01*
X127501280Y-115506922D01*
X127500500Y-115493038D01*
X127500500Y-105436218D01*
X131335000Y-105436218D01*
X131335000Y-105656581D01*
X131369473Y-105874235D01*
X131437567Y-106083810D01*
X131537611Y-106280156D01*
X131583932Y-106343913D01*
X132211212Y-105716633D01*
X132222482Y-105758692D01*
X132294890Y-105884108D01*
X132397292Y-105986510D01*
X132522708Y-106058918D01*
X132564765Y-106070187D01*
X131937485Y-106697465D01*
X131937485Y-106697466D01*
X132001243Y-106743788D01*
X132197589Y-106843832D01*
X132407164Y-106911926D01*
X132624819Y-106946400D01*
X132845181Y-106946400D01*
X133062835Y-106911926D01*
X133272410Y-106843832D01*
X133468760Y-106743786D01*
X133532513Y-106697466D01*
X133532514Y-106697466D01*
X132905234Y-106070187D01*
X132947292Y-106058918D01*
X133072708Y-105986510D01*
X133175110Y-105884108D01*
X133247518Y-105758692D01*
X133258787Y-105716634D01*
X133886066Y-106343914D01*
X133886066Y-106343913D01*
X133932386Y-106280160D01*
X134032432Y-106083810D01*
X134100526Y-105874235D01*
X134135000Y-105656581D01*
X134135000Y-105436218D01*
X134100526Y-105218564D01*
X134032432Y-105008989D01*
X133932388Y-104812643D01*
X133886066Y-104748885D01*
X133886065Y-104748885D01*
X133258787Y-105376164D01*
X133247518Y-105334108D01*
X133175110Y-105208692D01*
X133072708Y-105106290D01*
X132947292Y-105033882D01*
X132905232Y-105022612D01*
X133532513Y-104395332D01*
X133468756Y-104349011D01*
X133272410Y-104248967D01*
X133062835Y-104180873D01*
X132845181Y-104146400D01*
X132624819Y-104146400D01*
X132407164Y-104180873D01*
X132197589Y-104248967D01*
X132001233Y-104349016D01*
X131937485Y-104395331D01*
X131937485Y-104395332D01*
X132564765Y-105022612D01*
X132522708Y-105033882D01*
X132397292Y-105106290D01*
X132294890Y-105208692D01*
X132222482Y-105334108D01*
X132211212Y-105376165D01*
X131583932Y-104748885D01*
X131583931Y-104748885D01*
X131537616Y-104812633D01*
X131437567Y-105008989D01*
X131369473Y-105218564D01*
X131335000Y-105436218D01*
X127500500Y-105436218D01*
X127500500Y-78115418D01*
X131335000Y-78115418D01*
X131335000Y-78335781D01*
X131369473Y-78553435D01*
X131437567Y-78763010D01*
X131537611Y-78959356D01*
X131583932Y-79023113D01*
X132211212Y-78395833D01*
X132222482Y-78437892D01*
X132294890Y-78563308D01*
X132397292Y-78665710D01*
X132522708Y-78738118D01*
X132564764Y-78749387D01*
X131937485Y-79376665D01*
X131937485Y-79376666D01*
X132001243Y-79422988D01*
X132197589Y-79523032D01*
X132407164Y-79591126D01*
X132624819Y-79625600D01*
X132845181Y-79625600D01*
X133062832Y-79591127D01*
X133256081Y-79528336D01*
X133325922Y-79526341D01*
X133385755Y-79562421D01*
X133416584Y-79625122D01*
X133418400Y-79646267D01*
X133418400Y-90465331D01*
X133398715Y-90532370D01*
X133345911Y-90578125D01*
X133276753Y-90588069D01*
X133256082Y-90583262D01*
X133062835Y-90520473D01*
X132845181Y-90486000D01*
X132624819Y-90486000D01*
X132407164Y-90520473D01*
X132197589Y-90588567D01*
X132001233Y-90688616D01*
X131937485Y-90734931D01*
X131937485Y-90734932D01*
X132564765Y-91362212D01*
X132522708Y-91373482D01*
X132397292Y-91445890D01*
X132294890Y-91548292D01*
X132222482Y-91673708D01*
X132211212Y-91715765D01*
X131583932Y-91088485D01*
X131583931Y-91088485D01*
X131537616Y-91152233D01*
X131437567Y-91348589D01*
X131369473Y-91558164D01*
X131335000Y-91775818D01*
X131335000Y-91996181D01*
X131369473Y-92213835D01*
X131437567Y-92423410D01*
X131537611Y-92619756D01*
X131583932Y-92683513D01*
X132211212Y-92056233D01*
X132222482Y-92098292D01*
X132294890Y-92223708D01*
X132397292Y-92326110D01*
X132522708Y-92398518D01*
X132564764Y-92409787D01*
X131937485Y-93037065D01*
X131937485Y-93037066D01*
X132001243Y-93083388D01*
X132197589Y-93183432D01*
X132407164Y-93251526D01*
X132624819Y-93286000D01*
X132845181Y-93286000D01*
X133062832Y-93251527D01*
X133256081Y-93188736D01*
X133325922Y-93186741D01*
X133385755Y-93222821D01*
X133416584Y-93285522D01*
X133418400Y-93306667D01*
X133418400Y-95543230D01*
X133418399Y-95543248D01*
X133418399Y-95708954D01*
X133418398Y-95708954D01*
X133425461Y-95735312D01*
X133459323Y-95861685D01*
X133464175Y-95870089D01*
X133464178Y-95870099D01*
X133464180Y-95870098D01*
X133538375Y-95998609D01*
X133538381Y-95998617D01*
X133657249Y-96117485D01*
X133657255Y-96117490D01*
X133901563Y-96361798D01*
X133935048Y-96423121D01*
X133931813Y-96487796D01*
X133908988Y-96558045D01*
X133874503Y-96775778D01*
X133874503Y-96996221D01*
X133908988Y-97213952D01*
X133977106Y-97423603D01*
X133977107Y-97423606D01*
X134077190Y-97620025D01*
X134206755Y-97798358D01*
X134206759Y-97798363D01*
X134362639Y-97954243D01*
X134362644Y-97954247D01*
X134513068Y-98063535D01*
X134540981Y-98083815D01*
X134606795Y-98117349D01*
X134657591Y-98165324D01*
X134674500Y-98227834D01*
X134674500Y-109204565D01*
X134654815Y-109271604D01*
X134606796Y-109315049D01*
X134540986Y-109348581D01*
X134540977Y-109348586D01*
X134362644Y-109478152D01*
X134362639Y-109478156D01*
X134206759Y-109634036D01*
X134206755Y-109634041D01*
X134077190Y-109812374D01*
X133977107Y-110008793D01*
X133977106Y-110008796D01*
X133908988Y-110218447D01*
X133874503Y-110436178D01*
X133874503Y-110656619D01*
X133874502Y-110656619D01*
X133908988Y-110874352D01*
X133977106Y-111084003D01*
X133977107Y-111084006D01*
X134077190Y-111280425D01*
X134206755Y-111458758D01*
X134206759Y-111458763D01*
X134362639Y-111614643D01*
X134362644Y-111614647D01*
X134509833Y-111721585D01*
X134540981Y-111744215D01*
X134669378Y-111809637D01*
X134737396Y-111844295D01*
X134737399Y-111844296D01*
X134842224Y-111878355D01*
X134947052Y-111912415D01*
X135164781Y-111946900D01*
X135164782Y-111946900D01*
X135385224Y-111946900D01*
X135385225Y-111946900D01*
X135602954Y-111912415D01*
X135812609Y-111844295D01*
X136009025Y-111744215D01*
X136187368Y-111614642D01*
X136343245Y-111458765D01*
X136472818Y-111280422D01*
X136572898Y-111084006D01*
X136641018Y-110874351D01*
X136675503Y-110656622D01*
X136675503Y-110436178D01*
X136641018Y-110218449D01*
X136606384Y-110111854D01*
X136572899Y-110008796D01*
X136572898Y-110008793D01*
X136511228Y-109887762D01*
X136472818Y-109812378D01*
X136444051Y-109772783D01*
X136343250Y-109634041D01*
X136343246Y-109634036D01*
X136187366Y-109478156D01*
X136187361Y-109478152D01*
X136009026Y-109348585D01*
X135943204Y-109315046D01*
X135892408Y-109267071D01*
X135875500Y-109204562D01*
X135875500Y-98227837D01*
X135895185Y-98160798D01*
X135943204Y-98117352D01*
X136009025Y-98083815D01*
X136187368Y-97954242D01*
X136343245Y-97798365D01*
X136472818Y-97620022D01*
X136572898Y-97423606D01*
X136641018Y-97213951D01*
X136675503Y-96996222D01*
X136675503Y-96775778D01*
X136641018Y-96558049D01*
X136604740Y-96446394D01*
X136572899Y-96348396D01*
X136572898Y-96348393D01*
X136527204Y-96258715D01*
X136472818Y-96151978D01*
X136396573Y-96047035D01*
X136343250Y-95973641D01*
X136343246Y-95973636D01*
X136187366Y-95817756D01*
X136187361Y-95817752D01*
X136009028Y-95688187D01*
X136009027Y-95688186D01*
X136009025Y-95688185D01*
X135933102Y-95649500D01*
X135812609Y-95588104D01*
X135812606Y-95588103D01*
X135602955Y-95519985D01*
X135494089Y-95502742D01*
X135385225Y-95485500D01*
X135164781Y-95485500D01*
X135092204Y-95496995D01*
X134947050Y-95519985D01*
X134876796Y-95542812D01*
X134861582Y-95543246D01*
X134847323Y-95548565D01*
X134827367Y-95544223D01*
X134806955Y-95544807D01*
X134792868Y-95536718D01*
X134779051Y-95533713D01*
X134750801Y-95512565D01*
X134655717Y-95417481D01*
X134622234Y-95356159D01*
X134619400Y-95329802D01*
X134619400Y-91775778D01*
X136414503Y-91775778D01*
X136414503Y-91996222D01*
X136422244Y-92045099D01*
X136448988Y-92213952D01*
X136517106Y-92423603D01*
X136517107Y-92423606D01*
X136582255Y-92551463D01*
X136617052Y-92619756D01*
X136617190Y-92620025D01*
X136746755Y-92798358D01*
X136746759Y-92798363D01*
X136902639Y-92954243D01*
X136902644Y-92954247D01*
X137016635Y-93037065D01*
X137080981Y-93083815D01*
X137206899Y-93147974D01*
X137277396Y-93183895D01*
X137277399Y-93183896D01*
X137337628Y-93203465D01*
X137487052Y-93252015D01*
X137704781Y-93286500D01*
X137704782Y-93286500D01*
X137925224Y-93286500D01*
X137925225Y-93286500D01*
X138142954Y-93252015D01*
X138352609Y-93183895D01*
X138549025Y-93083815D01*
X138727368Y-92954242D01*
X138883245Y-92798365D01*
X139012818Y-92620022D01*
X139112898Y-92423606D01*
X139181018Y-92213951D01*
X139215503Y-91996222D01*
X139215503Y-91775778D01*
X139181018Y-91558049D01*
X139130182Y-91401588D01*
X139112899Y-91348396D01*
X139112898Y-91348393D01*
X139047959Y-91220946D01*
X139012818Y-91151978D01*
X138961821Y-91081786D01*
X138883250Y-90973641D01*
X138883246Y-90973636D01*
X138727366Y-90817756D01*
X138727361Y-90817752D01*
X138549028Y-90688187D01*
X138549027Y-90688186D01*
X138549025Y-90688185D01*
X138463666Y-90644692D01*
X138352609Y-90588104D01*
X138352606Y-90588103D01*
X138142955Y-90519985D01*
X138034089Y-90502742D01*
X137925225Y-90485500D01*
X137704781Y-90485500D01*
X137632204Y-90496995D01*
X137487050Y-90519985D01*
X137277399Y-90588103D01*
X137277396Y-90588104D01*
X137080977Y-90688187D01*
X136902644Y-90817752D01*
X136902639Y-90817756D01*
X136746759Y-90973636D01*
X136746755Y-90973641D01*
X136617190Y-91151974D01*
X136517107Y-91348393D01*
X136517106Y-91348396D01*
X136448988Y-91558047D01*
X136432973Y-91659165D01*
X136414503Y-91775778D01*
X134619400Y-91775778D01*
X134619400Y-84655827D01*
X134639085Y-84588788D01*
X134691889Y-84543033D01*
X134761047Y-84533089D01*
X134781718Y-84537896D01*
X134841313Y-84557259D01*
X134947052Y-84591615D01*
X135164781Y-84626100D01*
X135164782Y-84626100D01*
X135385224Y-84626100D01*
X135385225Y-84626100D01*
X135602954Y-84591615D01*
X135673205Y-84568788D01*
X135743046Y-84566794D01*
X135799204Y-84599039D01*
X139830881Y-88630716D01*
X139864366Y-88692039D01*
X139867200Y-88718397D01*
X139867200Y-92618014D01*
X139847515Y-92685053D01*
X139794711Y-92730808D01*
X139767392Y-92739631D01*
X139632508Y-92766461D01*
X139632498Y-92766464D01*
X139486827Y-92826802D01*
X139486814Y-92826809D01*
X139355711Y-92914410D01*
X139355707Y-92914413D01*
X139244213Y-93025907D01*
X139244210Y-93025911D01*
X139156609Y-93157014D01*
X139156602Y-93157027D01*
X139096264Y-93302698D01*
X139096261Y-93302708D01*
X139065361Y-93458050D01*
X139032976Y-93519961D01*
X139031425Y-93521539D01*
X137334481Y-95218482D01*
X137334479Y-95218484D01*
X137313290Y-95255185D01*
X137304334Y-95270699D01*
X137255423Y-95355415D01*
X137214499Y-95508143D01*
X137214499Y-95508145D01*
X137214499Y-95676246D01*
X137214500Y-95676259D01*
X137214500Y-104204565D01*
X137194815Y-104271604D01*
X137146796Y-104315049D01*
X137080986Y-104348581D01*
X137080977Y-104348586D01*
X136902644Y-104478152D01*
X136902639Y-104478156D01*
X136746759Y-104634036D01*
X136746755Y-104634041D01*
X136617190Y-104812374D01*
X136517107Y-105008793D01*
X136517106Y-105008796D01*
X136448988Y-105218447D01*
X136414503Y-105436178D01*
X136414503Y-105656621D01*
X136448988Y-105874352D01*
X136517106Y-106084003D01*
X136517107Y-106084006D01*
X136572318Y-106192361D01*
X136617079Y-106280209D01*
X136617190Y-106280425D01*
X136746755Y-106458758D01*
X136746759Y-106458763D01*
X136902639Y-106614643D01*
X136902644Y-106614647D01*
X136939726Y-106641588D01*
X137080981Y-106744215D01*
X137209378Y-106809637D01*
X137277396Y-106844295D01*
X137277399Y-106844296D01*
X137382224Y-106878355D01*
X137487052Y-106912415D01*
X137704781Y-106946900D01*
X137704782Y-106946900D01*
X137925224Y-106946900D01*
X137925225Y-106946900D01*
X138142954Y-106912415D01*
X138352609Y-106844295D01*
X138549025Y-106744215D01*
X138727368Y-106614642D01*
X138883245Y-106458765D01*
X139012818Y-106280422D01*
X139112898Y-106084006D01*
X139181018Y-105874351D01*
X139215503Y-105656622D01*
X139215503Y-105436178D01*
X139181018Y-105218449D01*
X139144576Y-105106290D01*
X139112899Y-105008796D01*
X139112898Y-105008793D01*
X139073533Y-104931537D01*
X139012818Y-104812378D01*
X138950269Y-104726286D01*
X138883250Y-104634041D01*
X138883246Y-104634036D01*
X138727366Y-104478156D01*
X138727361Y-104478152D01*
X138549026Y-104348585D01*
X138483204Y-104315046D01*
X138432408Y-104267071D01*
X138415500Y-104204562D01*
X138415500Y-95887297D01*
X138435185Y-95820258D01*
X138451819Y-95799616D01*
X139655519Y-94595916D01*
X139716842Y-94562431D01*
X139786534Y-94567415D01*
X139842467Y-94609287D01*
X139866884Y-94674751D01*
X139867200Y-94683597D01*
X139867200Y-95486742D01*
X139847515Y-95553781D01*
X139799495Y-95597226D01*
X139671002Y-95662698D01*
X139620977Y-95688187D01*
X139442644Y-95817752D01*
X139442639Y-95817756D01*
X139286759Y-95973636D01*
X139286755Y-95973641D01*
X139157190Y-96151974D01*
X139057107Y-96348393D01*
X139057106Y-96348396D01*
X138988988Y-96558047D01*
X138954503Y-96775778D01*
X138954503Y-96996221D01*
X138988988Y-97213952D01*
X139057106Y-97423603D01*
X139057107Y-97423606D01*
X139157190Y-97620025D01*
X139286755Y-97798358D01*
X139286759Y-97798363D01*
X139442639Y-97954243D01*
X139442644Y-97954247D01*
X139593068Y-98063535D01*
X139620981Y-98083815D01*
X139686795Y-98117349D01*
X139737591Y-98165324D01*
X139754500Y-98227834D01*
X139754500Y-109204565D01*
X139734815Y-109271604D01*
X139686796Y-109315049D01*
X139620986Y-109348581D01*
X139620977Y-109348586D01*
X139442644Y-109478152D01*
X139442639Y-109478156D01*
X139286759Y-109634036D01*
X139286755Y-109634041D01*
X139157190Y-109812374D01*
X139057107Y-110008793D01*
X139057106Y-110008796D01*
X138988988Y-110218447D01*
X138954503Y-110436178D01*
X138954503Y-110656619D01*
X138954502Y-110656619D01*
X138988988Y-110874352D01*
X139057106Y-111084003D01*
X139057107Y-111084006D01*
X139157190Y-111280425D01*
X139286755Y-111458758D01*
X139286759Y-111458763D01*
X139442639Y-111614643D01*
X139442644Y-111614647D01*
X139589833Y-111721585D01*
X139620981Y-111744215D01*
X139749378Y-111809637D01*
X139817396Y-111844295D01*
X139817399Y-111844296D01*
X139922224Y-111878355D01*
X140027052Y-111912415D01*
X140244781Y-111946900D01*
X140244782Y-111946900D01*
X140465224Y-111946900D01*
X140465225Y-111946900D01*
X140682954Y-111912415D01*
X140892609Y-111844295D01*
X141089025Y-111744215D01*
X141267368Y-111614642D01*
X141423245Y-111458765D01*
X141552818Y-111280422D01*
X141652898Y-111084006D01*
X141721018Y-110874351D01*
X141755503Y-110656622D01*
X141755503Y-110436178D01*
X141721018Y-110218449D01*
X141686384Y-110111854D01*
X141652899Y-110008796D01*
X141652898Y-110008793D01*
X141591228Y-109887762D01*
X141552818Y-109812378D01*
X141524051Y-109772783D01*
X141423250Y-109634041D01*
X141423246Y-109634036D01*
X141267366Y-109478156D01*
X141267361Y-109478152D01*
X141089026Y-109348585D01*
X141023204Y-109315046D01*
X140972408Y-109267071D01*
X140955500Y-109204562D01*
X140955500Y-98227837D01*
X140975185Y-98160798D01*
X141023204Y-98117352D01*
X141089025Y-98083815D01*
X141267368Y-97954242D01*
X141423245Y-97798365D01*
X141552818Y-97620022D01*
X141652898Y-97423606D01*
X141721018Y-97213951D01*
X141755503Y-96996222D01*
X141755503Y-96775778D01*
X141721018Y-96558049D01*
X141684740Y-96446394D01*
X141652899Y-96348396D01*
X141652898Y-96348393D01*
X141607204Y-96258715D01*
X141552818Y-96151978D01*
X141476573Y-96047035D01*
X141423250Y-95973641D01*
X141423246Y-95973636D01*
X141267366Y-95817756D01*
X141267361Y-95817752D01*
X141119315Y-95710191D01*
X141076649Y-95654862D01*
X141068200Y-95609873D01*
X141068200Y-88507360D01*
X141068201Y-88507347D01*
X141068201Y-88339244D01*
X141068201Y-88339243D01*
X141027277Y-88186516D01*
X140993750Y-88128445D01*
X140948224Y-88049590D01*
X140948218Y-88049582D01*
X136648440Y-83749805D01*
X136614955Y-83688482D01*
X136618189Y-83623808D01*
X136641018Y-83553551D01*
X136675503Y-83335822D01*
X136675503Y-83115378D01*
X138954503Y-83115378D01*
X138954503Y-83335822D01*
X138967869Y-83420213D01*
X138988988Y-83553552D01*
X139057106Y-83763203D01*
X139057107Y-83763206D01*
X139111119Y-83869208D01*
X139152425Y-83950275D01*
X139157190Y-83959625D01*
X139286755Y-84137958D01*
X139286759Y-84137963D01*
X139442639Y-84293843D01*
X139442644Y-84293847D01*
X139526051Y-84354445D01*
X139620981Y-84423415D01*
X139749378Y-84488837D01*
X139817396Y-84523495D01*
X139817399Y-84523496D01*
X139921313Y-84557259D01*
X140027052Y-84591615D01*
X140244781Y-84626100D01*
X140244782Y-84626100D01*
X140465224Y-84626100D01*
X140465225Y-84626100D01*
X140682954Y-84591615D01*
X140892609Y-84523495D01*
X141089025Y-84423415D01*
X141267368Y-84293842D01*
X141423245Y-84137965D01*
X141552818Y-83959622D01*
X141652898Y-83763206D01*
X141721018Y-83553551D01*
X141755503Y-83335822D01*
X141755503Y-83115378D01*
X141721018Y-82897649D01*
X141652898Y-82687994D01*
X141652898Y-82687993D01*
X141618240Y-82619975D01*
X141552818Y-82491578D01*
X141480081Y-82391463D01*
X141423250Y-82313241D01*
X141423246Y-82313236D01*
X141267366Y-82157356D01*
X141267361Y-82157352D01*
X141089026Y-82027785D01*
X141023204Y-81994246D01*
X140972408Y-81946271D01*
X140955500Y-81883762D01*
X140955500Y-79362796D01*
X140975185Y-79295757D01*
X140991815Y-79275119D01*
X141444907Y-78822026D01*
X141506228Y-78788543D01*
X141575919Y-78793527D01*
X141631853Y-78835398D01*
X141643070Y-78853413D01*
X141697188Y-78959623D01*
X141826755Y-79137958D01*
X141826759Y-79137963D01*
X141826761Y-79137965D01*
X141982638Y-79293842D01*
X142118486Y-79392541D01*
X142161151Y-79447869D01*
X142167130Y-79517482D01*
X142134525Y-79579278D01*
X142133284Y-79580537D01*
X142119910Y-79593911D01*
X142032309Y-79725014D01*
X142032302Y-79725027D01*
X141971964Y-79870698D01*
X141971961Y-79870710D01*
X141941200Y-80025353D01*
X141941200Y-80183046D01*
X141971961Y-80337689D01*
X141971964Y-80337701D01*
X142032302Y-80483372D01*
X142032309Y-80483385D01*
X142119910Y-80614488D01*
X142119913Y-80614492D01*
X142231405Y-80725984D01*
X142231408Y-80725986D01*
X142231411Y-80725989D01*
X142239389Y-80731319D01*
X142284194Y-80784928D01*
X142294500Y-80834422D01*
X142294500Y-90544165D01*
X142274815Y-90611204D01*
X142226796Y-90654649D01*
X142160986Y-90688181D01*
X142160977Y-90688186D01*
X141982644Y-90817752D01*
X141982639Y-90817756D01*
X141826759Y-90973636D01*
X141826755Y-90973641D01*
X141697190Y-91151974D01*
X141597107Y-91348393D01*
X141597106Y-91348396D01*
X141528988Y-91558047D01*
X141512973Y-91659165D01*
X141494503Y-91775778D01*
X141494503Y-91996222D01*
X141502244Y-92045099D01*
X141528988Y-92213952D01*
X141597106Y-92423603D01*
X141597107Y-92423606D01*
X141662255Y-92551463D01*
X141697052Y-92619756D01*
X141697190Y-92620025D01*
X141826755Y-92798358D01*
X141826759Y-92798363D01*
X141982639Y-92954243D01*
X141982644Y-92954247D01*
X142096635Y-93037065D01*
X142160981Y-93083815D01*
X142286899Y-93147974D01*
X142357396Y-93183895D01*
X142357399Y-93183896D01*
X142417628Y-93203465D01*
X142567052Y-93252015D01*
X142784781Y-93286500D01*
X142784782Y-93286500D01*
X143005224Y-93286500D01*
X143005225Y-93286500D01*
X143222954Y-93252015D01*
X143432609Y-93183895D01*
X143629025Y-93083815D01*
X143807368Y-92954242D01*
X143892226Y-92869383D01*
X143953545Y-92835901D01*
X144023237Y-92840885D01*
X144079171Y-92882756D01*
X144103588Y-92948220D01*
X144091203Y-93006432D01*
X144093037Y-93007192D01*
X144030364Y-93158498D01*
X144030361Y-93158510D01*
X143999600Y-93313153D01*
X143999600Y-93470846D01*
X144030361Y-93625489D01*
X144030364Y-93625501D01*
X144090702Y-93771172D01*
X144090709Y-93771185D01*
X144178702Y-93902874D01*
X144199580Y-93969551D01*
X144199600Y-93971765D01*
X144199600Y-94464930D01*
X144199599Y-94464948D01*
X144199599Y-94630654D01*
X144199598Y-94630654D01*
X144199599Y-94630657D01*
X144240523Y-94783385D01*
X144258963Y-94815324D01*
X144269458Y-94833500D01*
X144269459Y-94833504D01*
X144269460Y-94833504D01*
X144318590Y-94918602D01*
X144319579Y-94920314D01*
X144319581Y-94920317D01*
X144438449Y-95039185D01*
X144438455Y-95039190D01*
X144836318Y-95437053D01*
X144869803Y-95498376D01*
X144864819Y-95568068D01*
X144822947Y-95624001D01*
X144804934Y-95635217D01*
X144751002Y-95662698D01*
X144700977Y-95688187D01*
X144522644Y-95817752D01*
X144522639Y-95817756D01*
X144366759Y-95973636D01*
X144366755Y-95973641D01*
X144237190Y-96151974D01*
X144137107Y-96348393D01*
X144137106Y-96348396D01*
X144068988Y-96558047D01*
X144034503Y-96775778D01*
X144034503Y-96996221D01*
X144068988Y-97213952D01*
X144137106Y-97423603D01*
X144137107Y-97423606D01*
X144237190Y-97620025D01*
X144366755Y-97798358D01*
X144366759Y-97798363D01*
X144366761Y-97798365D01*
X144522638Y-97954242D01*
X144596914Y-98008206D01*
X144639579Y-98063535D01*
X144645558Y-98133148D01*
X144645133Y-98135160D01*
X144642778Y-98145865D01*
X144635763Y-98162803D01*
X144605000Y-98317458D01*
X144605000Y-98317634D01*
X144604349Y-98320594D01*
X144588118Y-98350156D01*
X144572476Y-98380061D01*
X144570925Y-98381639D01*
X142414481Y-100538082D01*
X142414479Y-100538085D01*
X142364361Y-100624894D01*
X142364359Y-100624896D01*
X142335425Y-100675009D01*
X142335424Y-100675010D01*
X142320824Y-100729500D01*
X142294499Y-100827743D01*
X142294499Y-100827745D01*
X142294499Y-100995846D01*
X142294500Y-100995859D01*
X142294500Y-104204565D01*
X142274815Y-104271604D01*
X142226796Y-104315049D01*
X142160986Y-104348581D01*
X142160977Y-104348586D01*
X141982644Y-104478152D01*
X141982639Y-104478156D01*
X141826759Y-104634036D01*
X141826755Y-104634041D01*
X141697190Y-104812374D01*
X141597107Y-105008793D01*
X141597106Y-105008796D01*
X141528988Y-105218447D01*
X141494503Y-105436178D01*
X141494503Y-105656621D01*
X141528988Y-105874352D01*
X141597106Y-106084003D01*
X141597107Y-106084006D01*
X141652318Y-106192361D01*
X141697079Y-106280209D01*
X141697190Y-106280425D01*
X141826755Y-106458758D01*
X141826759Y-106458763D01*
X141982639Y-106614643D01*
X141982644Y-106614647D01*
X142019726Y-106641588D01*
X142160981Y-106744215D01*
X142289378Y-106809637D01*
X142357396Y-106844295D01*
X142357399Y-106844296D01*
X142462224Y-106878355D01*
X142567052Y-106912415D01*
X142784781Y-106946900D01*
X142784782Y-106946900D01*
X143005224Y-106946900D01*
X143005225Y-106946900D01*
X143222954Y-106912415D01*
X143432609Y-106844295D01*
X143629025Y-106744215D01*
X143807368Y-106614642D01*
X143963245Y-106458765D01*
X144092818Y-106280422D01*
X144192898Y-106084006D01*
X144261018Y-105874351D01*
X144295503Y-105656622D01*
X144295503Y-105436178D01*
X144261018Y-105218449D01*
X144224576Y-105106290D01*
X144192899Y-105008796D01*
X144192898Y-105008793D01*
X144153533Y-104931537D01*
X144092818Y-104812378D01*
X144030269Y-104726286D01*
X143963250Y-104634041D01*
X143963246Y-104634036D01*
X143807366Y-104478156D01*
X143807361Y-104478152D01*
X143629026Y-104348585D01*
X143563204Y-104315046D01*
X143512408Y-104267071D01*
X143495500Y-104204562D01*
X143495500Y-101206897D01*
X143515185Y-101139858D01*
X143531819Y-101119216D01*
X144452451Y-100198584D01*
X145420162Y-99230872D01*
X145481483Y-99197389D01*
X145483650Y-99196938D01*
X145541585Y-99185413D01*
X145638997Y-99166037D01*
X145784679Y-99105694D01*
X145784684Y-99105690D01*
X145784687Y-99105689D01*
X145848708Y-99062911D01*
X145915385Y-99042032D01*
X145982766Y-99060516D01*
X146029456Y-99112494D01*
X146041600Y-99166012D01*
X146041600Y-109039201D01*
X146032955Y-109068641D01*
X146026432Y-109098628D01*
X146022677Y-109103643D01*
X146021915Y-109106240D01*
X146005281Y-109126882D01*
X145959203Y-109172960D01*
X145897880Y-109206445D01*
X145833204Y-109203210D01*
X145762955Y-109180385D01*
X145617372Y-109157327D01*
X145545225Y-109145900D01*
X145324781Y-109145900D01*
X145252634Y-109157327D01*
X145107050Y-109180385D01*
X144897399Y-109248503D01*
X144897396Y-109248504D01*
X144700977Y-109348587D01*
X144522644Y-109478152D01*
X144522639Y-109478156D01*
X144366759Y-109634036D01*
X144366755Y-109634041D01*
X144237190Y-109812374D01*
X144137107Y-110008793D01*
X144137106Y-110008796D01*
X144068988Y-110218447D01*
X144034503Y-110436178D01*
X144034503Y-110656619D01*
X144034502Y-110656619D01*
X144068988Y-110874352D01*
X144137106Y-111084003D01*
X144137107Y-111084006D01*
X144237190Y-111280425D01*
X144366755Y-111458758D01*
X144366759Y-111458763D01*
X144522639Y-111614643D01*
X144522644Y-111614647D01*
X144669833Y-111721585D01*
X144700981Y-111744215D01*
X144829378Y-111809637D01*
X144897396Y-111844295D01*
X144897399Y-111844296D01*
X145002224Y-111878355D01*
X145107052Y-111912415D01*
X145324781Y-111946900D01*
X145324782Y-111946900D01*
X145545224Y-111946900D01*
X145545225Y-111946900D01*
X145762954Y-111912415D01*
X145972609Y-111844295D01*
X146169025Y-111744215D01*
X146347368Y-111614642D01*
X146503245Y-111458765D01*
X146632818Y-111280422D01*
X146732898Y-111084006D01*
X146801018Y-110874351D01*
X146835503Y-110656622D01*
X146835503Y-110656619D01*
X149114502Y-110656619D01*
X149148988Y-110874352D01*
X149217106Y-111084003D01*
X149217107Y-111084006D01*
X149317190Y-111280425D01*
X149446755Y-111458758D01*
X149446759Y-111458763D01*
X149602639Y-111614643D01*
X149602644Y-111614647D01*
X149749833Y-111721585D01*
X149780981Y-111744215D01*
X149909378Y-111809637D01*
X149977396Y-111844295D01*
X149977399Y-111844296D01*
X150082224Y-111878355D01*
X150187052Y-111912415D01*
X150404781Y-111946900D01*
X150404782Y-111946900D01*
X150625224Y-111946900D01*
X150625225Y-111946900D01*
X150842954Y-111912415D01*
X151052609Y-111844295D01*
X151249025Y-111744215D01*
X151427368Y-111614642D01*
X151583245Y-111458765D01*
X151712818Y-111280422D01*
X151812898Y-111084006D01*
X151881018Y-110874351D01*
X151915503Y-110656622D01*
X151915503Y-110436178D01*
X151881018Y-110218449D01*
X151846384Y-110111854D01*
X151812899Y-110008796D01*
X151812898Y-110008793D01*
X151751228Y-109887762D01*
X151712818Y-109812378D01*
X151684051Y-109772783D01*
X151583250Y-109634041D01*
X151583246Y-109634036D01*
X151427366Y-109478156D01*
X151427361Y-109478152D01*
X151249028Y-109348587D01*
X151249027Y-109348586D01*
X151249025Y-109348585D01*
X151183202Y-109315046D01*
X151052609Y-109248504D01*
X151052606Y-109248503D01*
X150842955Y-109180385D01*
X150697372Y-109157327D01*
X150625225Y-109145900D01*
X150404781Y-109145900D01*
X150332634Y-109157327D01*
X150187050Y-109180385D01*
X149977399Y-109248503D01*
X149977396Y-109248504D01*
X149780977Y-109348587D01*
X149602644Y-109478152D01*
X149602639Y-109478156D01*
X149446759Y-109634036D01*
X149446755Y-109634041D01*
X149317190Y-109812374D01*
X149217107Y-110008793D01*
X149217106Y-110008796D01*
X149148988Y-110218447D01*
X149114503Y-110436178D01*
X149114503Y-110656619D01*
X149114502Y-110656619D01*
X146835503Y-110656619D01*
X146835503Y-110436178D01*
X146801018Y-110218449D01*
X146801017Y-110218447D01*
X146778190Y-110148193D01*
X146776194Y-110078352D01*
X146808438Y-110022195D01*
X147000606Y-109830028D01*
X147000611Y-109830024D01*
X147010814Y-109819820D01*
X147010816Y-109819820D01*
X147122620Y-109708016D01*
X147184140Y-109601459D01*
X147201677Y-109571085D01*
X147242600Y-109418358D01*
X147242600Y-109260243D01*
X147242600Y-106947389D01*
X147262285Y-106880350D01*
X147315089Y-106834595D01*
X147384247Y-106824651D01*
X147422893Y-106836904D01*
X147437397Y-106844295D01*
X147437399Y-106844295D01*
X147437402Y-106844297D01*
X147545874Y-106879540D01*
X147647052Y-106912415D01*
X147864781Y-106946900D01*
X147864782Y-106946900D01*
X148085224Y-106946900D01*
X148085225Y-106946900D01*
X148302954Y-106912415D01*
X148512609Y-106844295D01*
X148709025Y-106744215D01*
X148887368Y-106614642D01*
X149043245Y-106458765D01*
X149172818Y-106280422D01*
X149272898Y-106084006D01*
X149341018Y-105874351D01*
X149375503Y-105656622D01*
X149375503Y-105436178D01*
X149341018Y-105218449D01*
X149304576Y-105106290D01*
X149272899Y-105008796D01*
X149272898Y-105008793D01*
X149233533Y-104931537D01*
X149172818Y-104812378D01*
X149110269Y-104726286D01*
X149043250Y-104634041D01*
X149043246Y-104634036D01*
X148887366Y-104478156D01*
X148887361Y-104478152D01*
X148709028Y-104348587D01*
X148709027Y-104348586D01*
X148709025Y-104348585D01*
X148621046Y-104303757D01*
X148512609Y-104248504D01*
X148512606Y-104248503D01*
X148302955Y-104180385D01*
X148194089Y-104163142D01*
X148085225Y-104145900D01*
X147864781Y-104145900D01*
X147792204Y-104157395D01*
X147647050Y-104180385D01*
X147437399Y-104248503D01*
X147437396Y-104248504D01*
X147422895Y-104255894D01*
X147354226Y-104268790D01*
X147289485Y-104242514D01*
X147249228Y-104185407D01*
X147242600Y-104145409D01*
X147242600Y-97209797D01*
X147262285Y-97142758D01*
X147315089Y-97097003D01*
X147384247Y-97087059D01*
X147447803Y-97116084D01*
X147454281Y-97122116D01*
X154261681Y-103929516D01*
X154295166Y-103990839D01*
X154298000Y-104017197D01*
X154298000Y-104509428D01*
X154278315Y-104576467D01*
X154225511Y-104622222D01*
X154156353Y-104632166D01*
X154092797Y-104603141D01*
X154086319Y-104597109D01*
X153967366Y-104478156D01*
X153967361Y-104478152D01*
X153789028Y-104348587D01*
X153789027Y-104348586D01*
X153789025Y-104348585D01*
X153701046Y-104303757D01*
X153592609Y-104248504D01*
X153592606Y-104248503D01*
X153382955Y-104180385D01*
X153274089Y-104163142D01*
X153165225Y-104145900D01*
X152944781Y-104145900D01*
X152872204Y-104157395D01*
X152727050Y-104180385D01*
X152517399Y-104248503D01*
X152517396Y-104248504D01*
X152320977Y-104348587D01*
X152142644Y-104478152D01*
X152142639Y-104478156D01*
X151986759Y-104634036D01*
X151986755Y-104634041D01*
X151857190Y-104812374D01*
X151757107Y-105008793D01*
X151757106Y-105008796D01*
X151688988Y-105218447D01*
X151654503Y-105436178D01*
X151654503Y-105656621D01*
X151688988Y-105874352D01*
X151757106Y-106084003D01*
X151757107Y-106084006D01*
X151812318Y-106192361D01*
X151857079Y-106280209D01*
X151857190Y-106280425D01*
X151986755Y-106458758D01*
X151986759Y-106458763D01*
X152142639Y-106614643D01*
X152142644Y-106614647D01*
X152179726Y-106641588D01*
X152320981Y-106744215D01*
X152449378Y-106809637D01*
X152517396Y-106844295D01*
X152517399Y-106844296D01*
X152622224Y-106878355D01*
X152727052Y-106912415D01*
X152944781Y-106946900D01*
X152944782Y-106946900D01*
X153165224Y-106946900D01*
X153165225Y-106946900D01*
X153382954Y-106912415D01*
X153592609Y-106844295D01*
X153789025Y-106744215D01*
X153931451Y-106640737D01*
X153967363Y-106614646D01*
X153969568Y-106612763D01*
X153970579Y-106612309D01*
X153971310Y-106611779D01*
X153971421Y-106611932D01*
X154033326Y-106584184D01*
X154102413Y-106594613D01*
X154154894Y-106640737D01*
X154164672Y-106659591D01*
X154189102Y-106718572D01*
X154189109Y-106718585D01*
X154276710Y-106849688D01*
X154276713Y-106849692D01*
X154388207Y-106961186D01*
X154388211Y-106961189D01*
X154519314Y-107048790D01*
X154519327Y-107048797D01*
X154664998Y-107109135D01*
X154665003Y-107109137D01*
X154771533Y-107130327D01*
X154797653Y-107135523D01*
X154859564Y-107167908D01*
X154894138Y-107228623D01*
X154890399Y-107298393D01*
X154861143Y-107344821D01*
X154060739Y-108145225D01*
X153999416Y-108178710D01*
X153997250Y-108179161D01*
X153841908Y-108210061D01*
X153841898Y-108210064D01*
X153696227Y-108270402D01*
X153696214Y-108270409D01*
X153565111Y-108358010D01*
X153565107Y-108358013D01*
X153453613Y-108469507D01*
X153453610Y-108469511D01*
X153366009Y-108600614D01*
X153366002Y-108600627D01*
X153305664Y-108746298D01*
X153305661Y-108746310D01*
X153274900Y-108900953D01*
X153274900Y-109058646D01*
X153305661Y-109213289D01*
X153305664Y-109213301D01*
X153366002Y-109358972D01*
X153366009Y-109358985D01*
X153453610Y-109490088D01*
X153453613Y-109490092D01*
X153565107Y-109601586D01*
X153565111Y-109601589D01*
X153696214Y-109689190D01*
X153696227Y-109689197D01*
X153841898Y-109749535D01*
X153841903Y-109749537D01*
X153958768Y-109772783D01*
X153996553Y-109780299D01*
X153996556Y-109780300D01*
X153996558Y-109780300D01*
X154154244Y-109780300D01*
X154192034Y-109772783D01*
X154261626Y-109779010D01*
X154316803Y-109821873D01*
X154340048Y-109887762D01*
X154326711Y-109950695D01*
X154297107Y-110008793D01*
X154297106Y-110008796D01*
X154228988Y-110218447D01*
X154194503Y-110436178D01*
X154194503Y-110656619D01*
X154194502Y-110656619D01*
X154228988Y-110874352D01*
X154297106Y-111084003D01*
X154297107Y-111084006D01*
X154397190Y-111280425D01*
X154526755Y-111458758D01*
X154526759Y-111458763D01*
X154682639Y-111614643D01*
X154682644Y-111614647D01*
X154829833Y-111721585D01*
X154860981Y-111744215D01*
X154989378Y-111809637D01*
X155057396Y-111844295D01*
X155057399Y-111844296D01*
X155162224Y-111878355D01*
X155267052Y-111912415D01*
X155484781Y-111946900D01*
X155484782Y-111946900D01*
X155705224Y-111946900D01*
X155705225Y-111946900D01*
X155922954Y-111912415D01*
X156132609Y-111844295D01*
X156329025Y-111744215D01*
X156507368Y-111614642D01*
X156663245Y-111458765D01*
X156792818Y-111280422D01*
X156796324Y-111273540D01*
X156844293Y-111222743D01*
X156912113Y-111205943D01*
X156931012Y-111208215D01*
X156934957Y-111209000D01*
X156934958Y-111209000D01*
X157092644Y-111209000D01*
X157092645Y-111208999D01*
X157247297Y-111178237D01*
X157392979Y-111117894D01*
X157524089Y-111030289D01*
X157635589Y-110918789D01*
X157723194Y-110787679D01*
X157783537Y-110641997D01*
X157814300Y-110487342D01*
X157814300Y-110487340D01*
X157814437Y-110486652D01*
X157833129Y-110441687D01*
X157839846Y-110431689D01*
X157870020Y-110401516D01*
X157928341Y-110300500D01*
X157949077Y-110264585D01*
X157990001Y-110111857D01*
X157990001Y-109953743D01*
X157990001Y-109946148D01*
X157990000Y-109946130D01*
X157990000Y-98878597D01*
X158009685Y-98811558D01*
X158062489Y-98765803D01*
X158131647Y-98755859D01*
X158195203Y-98784884D01*
X158201681Y-98790916D01*
X168626241Y-109215476D01*
X168659726Y-109276799D01*
X168656492Y-109341473D01*
X168642753Y-109383757D01*
X168625912Y-109490092D01*
X168609500Y-109593713D01*
X168609500Y-109806287D01*
X168611644Y-109819821D01*
X168641574Y-110008796D01*
X168642754Y-110016243D01*
X168685627Y-110148193D01*
X168708444Y-110218414D01*
X168804951Y-110407820D01*
X168929890Y-110579786D01*
X169080213Y-110730109D01*
X169252179Y-110855048D01*
X169252181Y-110855049D01*
X169252184Y-110855051D01*
X169441588Y-110951557D01*
X169643757Y-111017246D01*
X169853713Y-111050500D01*
X169853714Y-111050500D01*
X170066286Y-111050500D01*
X170066287Y-111050500D01*
X170276243Y-111017246D01*
X170478412Y-110951557D01*
X170667816Y-110855051D01*
X170760538Y-110787685D01*
X170839786Y-110730109D01*
X170839788Y-110730106D01*
X170839792Y-110730104D01*
X170990104Y-110579792D01*
X170990106Y-110579788D01*
X170990109Y-110579786D01*
X171115048Y-110407820D01*
X171115047Y-110407820D01*
X171115051Y-110407816D01*
X171119514Y-110399054D01*
X171167488Y-110348259D01*
X171235308Y-110331463D01*
X171301444Y-110353999D01*
X171340486Y-110399056D01*
X171344951Y-110407820D01*
X171469890Y-110579786D01*
X171620213Y-110730109D01*
X171792182Y-110855050D01*
X171800946Y-110859516D01*
X171851742Y-110907491D01*
X171868536Y-110975312D01*
X171845998Y-111041447D01*
X171800946Y-111080484D01*
X171792182Y-111084949D01*
X171620213Y-111209890D01*
X171469890Y-111360213D01*
X171344951Y-111532179D01*
X171248444Y-111721585D01*
X171182753Y-111923760D01*
X171149500Y-112133713D01*
X171149500Y-112346286D01*
X171182753Y-112556239D01*
X171248444Y-112758414D01*
X171344951Y-112947820D01*
X171469890Y-113119786D01*
X171620213Y-113270109D01*
X171792179Y-113395048D01*
X171792181Y-113395049D01*
X171792184Y-113395051D01*
X171981588Y-113491557D01*
X172183757Y-113557246D01*
X172393713Y-113590500D01*
X172393714Y-113590500D01*
X172606286Y-113590500D01*
X172606287Y-113590500D01*
X172816243Y-113557246D01*
X173018412Y-113491557D01*
X173207816Y-113395051D01*
X173229789Y-113379086D01*
X173379786Y-113270109D01*
X173379788Y-113270106D01*
X173379792Y-113270104D01*
X173530104Y-113119792D01*
X173530106Y-113119788D01*
X173530109Y-113119786D01*
X173655048Y-112947820D01*
X173655047Y-112947820D01*
X173655051Y-112947816D01*
X173751557Y-112758412D01*
X173817246Y-112556243D01*
X173850500Y-112346287D01*
X173850500Y-112133713D01*
X173817246Y-111923757D01*
X173751557Y-111721588D01*
X173655051Y-111532184D01*
X173655049Y-111532181D01*
X173655048Y-111532179D01*
X173530109Y-111360213D01*
X173379786Y-111209890D01*
X173207820Y-111084951D01*
X173205959Y-111084003D01*
X173199054Y-111080485D01*
X173148259Y-111032512D01*
X173131463Y-110964692D01*
X173153999Y-110898556D01*
X173199054Y-110859515D01*
X173207816Y-110855051D01*
X173300538Y-110787685D01*
X173379786Y-110730109D01*
X173379788Y-110730106D01*
X173379792Y-110730104D01*
X173530104Y-110579792D01*
X173530106Y-110579788D01*
X173530109Y-110579786D01*
X173655048Y-110407820D01*
X173655047Y-110407820D01*
X173655051Y-110407816D01*
X173751557Y-110218412D01*
X173817246Y-110016243D01*
X173850500Y-109806287D01*
X173850500Y-109593713D01*
X173817246Y-109383757D01*
X173751557Y-109181588D01*
X173655051Y-108992184D01*
X173655049Y-108992181D01*
X173655048Y-108992179D01*
X173530109Y-108820213D01*
X173379786Y-108669890D01*
X173207820Y-108544951D01*
X173207115Y-108544591D01*
X173199054Y-108540485D01*
X173148259Y-108492512D01*
X173131463Y-108424692D01*
X173153999Y-108358556D01*
X173199054Y-108319515D01*
X173207816Y-108315051D01*
X173269271Y-108270402D01*
X173379786Y-108190109D01*
X173379788Y-108190106D01*
X173379792Y-108190104D01*
X173530104Y-108039792D01*
X173530106Y-108039788D01*
X173530109Y-108039786D01*
X173655048Y-107867820D01*
X173655047Y-107867820D01*
X173655051Y-107867816D01*
X173751557Y-107678412D01*
X173817246Y-107476243D01*
X173850500Y-107266287D01*
X173850500Y-107053713D01*
X173817246Y-106843757D01*
X173751557Y-106641588D01*
X173655051Y-106452184D01*
X173655049Y-106452181D01*
X173655048Y-106452179D01*
X173530109Y-106280213D01*
X173379786Y-106129890D01*
X173207820Y-106004951D01*
X173018414Y-105908444D01*
X173018413Y-105908443D01*
X173018412Y-105908443D01*
X172816243Y-105842754D01*
X172816241Y-105842753D01*
X172816240Y-105842753D01*
X172654957Y-105817208D01*
X172606287Y-105809500D01*
X172393713Y-105809500D01*
X172345042Y-105817208D01*
X172183760Y-105842753D01*
X171981585Y-105908444D01*
X171792179Y-106004951D01*
X171620213Y-106129890D01*
X171469890Y-106280213D01*
X171344949Y-106452182D01*
X171340484Y-106460946D01*
X171292509Y-106511742D01*
X171224688Y-106528536D01*
X171158553Y-106505998D01*
X171119516Y-106460946D01*
X171115050Y-106452182D01*
X170990109Y-106280213D01*
X170839786Y-106129890D01*
X170667820Y-106004951D01*
X170667115Y-106004591D01*
X170659054Y-106000485D01*
X170608259Y-105952512D01*
X170591463Y-105884692D01*
X170613999Y-105818556D01*
X170659054Y-105779515D01*
X170667816Y-105775051D01*
X170690332Y-105758692D01*
X170839786Y-105650109D01*
X170839788Y-105650106D01*
X170839792Y-105650104D01*
X170990104Y-105499792D01*
X170990106Y-105499788D01*
X170990109Y-105499786D01*
X171115048Y-105327820D01*
X171115047Y-105327820D01*
X171115051Y-105327816D01*
X171211557Y-105138412D01*
X171277246Y-104936243D01*
X171310500Y-104726287D01*
X171310500Y-104513713D01*
X171277246Y-104303757D01*
X171211557Y-104101588D01*
X171115051Y-103912184D01*
X171115049Y-103912181D01*
X171115048Y-103912179D01*
X170990109Y-103740213D01*
X170839786Y-103589890D01*
X170667820Y-103464951D01*
X170667115Y-103464591D01*
X170659054Y-103460485D01*
X170608259Y-103412512D01*
X170591463Y-103344692D01*
X170613999Y-103278556D01*
X170659054Y-103239515D01*
X170667816Y-103235051D01*
X170749366Y-103175802D01*
X170839786Y-103110109D01*
X170839788Y-103110106D01*
X170839792Y-103110104D01*
X170990104Y-102959792D01*
X170990106Y-102959788D01*
X170990109Y-102959786D01*
X171115048Y-102787820D01*
X171115047Y-102787820D01*
X171115051Y-102787816D01*
X171119514Y-102779054D01*
X171167488Y-102728259D01*
X171235308Y-102711463D01*
X171301444Y-102733999D01*
X171340486Y-102779056D01*
X171344951Y-102787820D01*
X171469890Y-102959786D01*
X171620213Y-103110109D01*
X171792179Y-103235048D01*
X171792181Y-103235049D01*
X171792184Y-103235051D01*
X171981588Y-103331557D01*
X172183757Y-103397246D01*
X172393713Y-103430500D01*
X172393714Y-103430500D01*
X172606286Y-103430500D01*
X172606287Y-103430500D01*
X172816243Y-103397246D01*
X173018412Y-103331557D01*
X173207816Y-103235051D01*
X173289366Y-103175802D01*
X173379786Y-103110109D01*
X173379788Y-103110106D01*
X173379792Y-103110104D01*
X173530104Y-102959792D01*
X173530106Y-102959788D01*
X173530109Y-102959786D01*
X173655048Y-102787820D01*
X173655047Y-102787820D01*
X173655051Y-102787816D01*
X173751557Y-102598412D01*
X173817246Y-102396243D01*
X173850500Y-102186287D01*
X173850500Y-101973713D01*
X173817246Y-101763757D01*
X173751557Y-101561588D01*
X173655051Y-101372184D01*
X173655049Y-101372181D01*
X173655048Y-101372179D01*
X173530109Y-101200213D01*
X173379786Y-101049890D01*
X173207820Y-100924951D01*
X173018414Y-100828444D01*
X173018413Y-100828443D01*
X173018412Y-100828443D01*
X172816243Y-100762754D01*
X172816241Y-100762753D01*
X172816240Y-100762753D01*
X172654957Y-100737208D01*
X172606287Y-100729500D01*
X172393713Y-100729500D01*
X172345042Y-100737208D01*
X172183760Y-100762753D01*
X171981585Y-100828444D01*
X171792179Y-100924951D01*
X171620213Y-101049890D01*
X171469890Y-101200213D01*
X171344949Y-101372182D01*
X171340484Y-101380946D01*
X171292509Y-101431742D01*
X171224688Y-101448536D01*
X171158553Y-101425998D01*
X171119516Y-101380946D01*
X171115050Y-101372182D01*
X170990109Y-101200213D01*
X170839786Y-101049890D01*
X170667820Y-100924951D01*
X170667115Y-100924591D01*
X170659054Y-100920485D01*
X170608259Y-100872512D01*
X170591463Y-100804692D01*
X170613999Y-100738556D01*
X170659054Y-100699515D01*
X170667816Y-100695051D01*
X170739749Y-100642789D01*
X170839786Y-100570109D01*
X170839788Y-100570106D01*
X170839792Y-100570104D01*
X170990104Y-100419792D01*
X170990106Y-100419788D01*
X170990109Y-100419786D01*
X171115048Y-100247820D01*
X171115047Y-100247820D01*
X171115051Y-100247816D01*
X171211557Y-100058412D01*
X171277246Y-99856243D01*
X171310500Y-99646287D01*
X171310500Y-99433713D01*
X171277246Y-99223757D01*
X171211557Y-99021588D01*
X171115051Y-98832184D01*
X171115049Y-98832181D01*
X171115048Y-98832179D01*
X170990109Y-98660213D01*
X170839786Y-98509890D01*
X170667820Y-98384951D01*
X170667115Y-98384591D01*
X170659054Y-98380485D01*
X170608259Y-98332512D01*
X170591463Y-98264692D01*
X170613999Y-98198556D01*
X170659054Y-98159515D01*
X170667816Y-98155051D01*
X170719709Y-98117349D01*
X170839786Y-98030109D01*
X170839788Y-98030106D01*
X170839792Y-98030104D01*
X170990104Y-97879792D01*
X170990106Y-97879788D01*
X170990109Y-97879786D01*
X171115048Y-97707820D01*
X171115047Y-97707820D01*
X171115051Y-97707816D01*
X171119514Y-97699054D01*
X171167488Y-97648259D01*
X171235308Y-97631463D01*
X171301444Y-97653999D01*
X171340486Y-97699056D01*
X171344951Y-97707820D01*
X171469890Y-97879786D01*
X171620213Y-98030109D01*
X171792179Y-98155048D01*
X171792181Y-98155049D01*
X171792184Y-98155051D01*
X171981588Y-98251557D01*
X172183757Y-98317246D01*
X172393713Y-98350500D01*
X172393714Y-98350500D01*
X172606286Y-98350500D01*
X172606287Y-98350500D01*
X172816243Y-98317246D01*
X173018412Y-98251557D01*
X173207816Y-98155051D01*
X173259709Y-98117349D01*
X173379786Y-98030109D01*
X173379788Y-98030106D01*
X173379792Y-98030104D01*
X173530104Y-97879792D01*
X173530106Y-97879788D01*
X173530109Y-97879786D01*
X173655048Y-97707820D01*
X173655047Y-97707820D01*
X173655051Y-97707816D01*
X173751557Y-97518412D01*
X173817246Y-97316243D01*
X173850500Y-97106287D01*
X173850500Y-96893713D01*
X173817246Y-96683757D01*
X173803506Y-96641473D01*
X173801512Y-96571635D01*
X173833755Y-96515478D01*
X174811306Y-95537928D01*
X174811311Y-95537924D01*
X174821514Y-95527720D01*
X174821516Y-95527720D01*
X174933320Y-95415916D01*
X174988850Y-95319735D01*
X175012377Y-95278985D01*
X175053300Y-95126258D01*
X175053300Y-94968143D01*
X175053300Y-69292843D01*
X175012377Y-69140116D01*
X175003702Y-69125090D01*
X174933324Y-69003190D01*
X174933321Y-69003186D01*
X174933320Y-69003184D01*
X174821516Y-68891380D01*
X174821515Y-68891379D01*
X174817185Y-68887049D01*
X174817174Y-68887039D01*
X173517696Y-67587561D01*
X173484211Y-67526238D01*
X173489195Y-67456546D01*
X173517697Y-67412198D01*
X173530104Y-67399792D01*
X173655051Y-67227816D01*
X173751557Y-67038412D01*
X173817246Y-66836243D01*
X173850500Y-66626287D01*
X173850500Y-66413713D01*
X173817246Y-66203757D01*
X173751557Y-66001588D01*
X173655051Y-65812184D01*
X173655049Y-65812181D01*
X173655048Y-65812179D01*
X173530109Y-65640213D01*
X173379786Y-65489890D01*
X173207820Y-65364951D01*
X173207205Y-65364637D01*
X173199054Y-65360484D01*
X173148259Y-65312512D01*
X173131463Y-65244692D01*
X173153999Y-65178556D01*
X173199054Y-65139515D01*
X173207816Y-65135051D01*
X173235139Y-65115200D01*
X173379786Y-65010109D01*
X173379788Y-65010106D01*
X173379792Y-65010104D01*
X173530104Y-64859792D01*
X173530106Y-64859788D01*
X173530109Y-64859786D01*
X173655048Y-64687820D01*
X173655047Y-64687820D01*
X173655051Y-64687816D01*
X173751557Y-64498412D01*
X173817246Y-64296243D01*
X173850500Y-64086287D01*
X173850500Y-63873713D01*
X173817246Y-63663757D01*
X173751557Y-63461588D01*
X173655051Y-63272184D01*
X173655049Y-63272181D01*
X173655048Y-63272179D01*
X173530109Y-63100213D01*
X173379786Y-62949890D01*
X173207820Y-62824951D01*
X173018414Y-62728444D01*
X173018413Y-62728443D01*
X173018412Y-62728443D01*
X172816243Y-62662754D01*
X172816241Y-62662753D01*
X172816240Y-62662753D01*
X172654957Y-62637208D01*
X172606287Y-62629500D01*
X172393713Y-62629500D01*
X172345042Y-62637208D01*
X172183760Y-62662753D01*
X171981585Y-62728444D01*
X171792179Y-62824951D01*
X171620215Y-62949889D01*
X171506673Y-63063431D01*
X171445350Y-63096915D01*
X171375658Y-63091931D01*
X171319725Y-63050059D01*
X171302810Y-63019082D01*
X171253797Y-62887671D01*
X171253793Y-62887664D01*
X171167547Y-62772455D01*
X171167544Y-62772452D01*
X171052335Y-62686206D01*
X171052328Y-62686202D01*
X170917482Y-62635908D01*
X170917483Y-62635908D01*
X170857883Y-62629501D01*
X170857881Y-62629500D01*
X170857873Y-62629500D01*
X170857864Y-62629500D01*
X169062129Y-62629500D01*
X169062123Y-62629501D01*
X169002516Y-62635908D01*
X168867671Y-62686202D01*
X168867664Y-62686206D01*
X168752455Y-62772452D01*
X168752452Y-62772455D01*
X168666206Y-62887664D01*
X168666202Y-62887671D01*
X168615908Y-63022517D01*
X168609501Y-63082116D01*
X168609500Y-63082135D01*
X168609500Y-64877870D01*
X168609501Y-64877876D01*
X168615908Y-64937483D01*
X168666202Y-65072328D01*
X168666204Y-65072331D01*
X168689015Y-65102803D01*
X168694297Y-65109858D01*
X168718715Y-65175322D01*
X168703864Y-65243595D01*
X168682712Y-65271851D01*
X168433186Y-65521378D01*
X168321381Y-65633182D01*
X168321379Y-65633185D01*
X168271261Y-65719994D01*
X168271259Y-65719996D01*
X168242325Y-65770109D01*
X168242324Y-65770110D01*
X168242323Y-65770115D01*
X168201399Y-65922843D01*
X168201399Y-65922845D01*
X168201399Y-66090946D01*
X168201400Y-66090959D01*
X168201400Y-83055230D01*
X168201399Y-83055248D01*
X168201399Y-83220954D01*
X168201398Y-83220954D01*
X168201399Y-83220957D01*
X168242323Y-83373685D01*
X168265234Y-83413368D01*
X168321377Y-83510612D01*
X168321381Y-83510617D01*
X168440249Y-83629485D01*
X168440255Y-83629490D01*
X168626241Y-83815476D01*
X168659726Y-83876799D01*
X168656492Y-83941473D01*
X168642753Y-83983757D01*
X168609500Y-84193713D01*
X168609500Y-84406287D01*
X168616290Y-84449159D01*
X168642233Y-84612958D01*
X168642754Y-84616243D01*
X168683613Y-84741995D01*
X168708444Y-84818414D01*
X168804951Y-85007820D01*
X168929890Y-85179786D01*
X169080213Y-85330109D01*
X169252182Y-85455050D01*
X169260946Y-85459516D01*
X169311742Y-85507491D01*
X169328536Y-85575312D01*
X169305998Y-85641447D01*
X169260946Y-85680484D01*
X169252182Y-85684949D01*
X169080213Y-85809890D01*
X168929890Y-85960213D01*
X168804951Y-86132179D01*
X168708444Y-86321585D01*
X168642753Y-86523760D01*
X168609500Y-86733713D01*
X168609500Y-86946286D01*
X168642754Y-87156244D01*
X168642754Y-87156247D01*
X168656491Y-87198523D01*
X168658486Y-87268364D01*
X168626241Y-87324522D01*
X168201486Y-87749278D01*
X168123781Y-87826983D01*
X168062458Y-87860468D01*
X167992766Y-87855484D01*
X167936833Y-87813612D01*
X167912416Y-87748148D01*
X167912100Y-87739302D01*
X167912100Y-80734945D01*
X167912099Y-80734941D01*
X167910747Y-80729896D01*
X167905745Y-80711227D01*
X167902077Y-80697536D01*
X167902077Y-80697537D01*
X167871177Y-80582215D01*
X167834604Y-80518869D01*
X167792120Y-80445284D01*
X167680316Y-80333480D01*
X167680315Y-80333479D01*
X167675985Y-80329149D01*
X167675974Y-80329139D01*
X167259974Y-79913139D01*
X167226489Y-79851816D01*
X167226038Y-79849649D01*
X167195138Y-79694310D01*
X167195137Y-79694303D01*
X167158558Y-79605992D01*
X167134797Y-79548627D01*
X167134790Y-79548614D01*
X167047189Y-79417511D01*
X167047186Y-79417507D01*
X166935692Y-79306013D01*
X166935688Y-79306010D01*
X166804585Y-79218409D01*
X166804572Y-79218402D01*
X166658901Y-79158064D01*
X166658889Y-79158061D01*
X166504245Y-79127300D01*
X166504242Y-79127300D01*
X166346558Y-79127300D01*
X166346555Y-79127300D01*
X166191910Y-79158061D01*
X166191898Y-79158064D01*
X166046227Y-79218402D01*
X166046214Y-79218409D01*
X165915111Y-79306010D01*
X165915107Y-79306013D01*
X165803613Y-79417507D01*
X165803610Y-79417511D01*
X165716009Y-79548614D01*
X165716002Y-79548627D01*
X165655664Y-79694298D01*
X165655661Y-79694310D01*
X165624900Y-79848953D01*
X165624900Y-80006646D01*
X165655661Y-80161289D01*
X165655664Y-80161301D01*
X165716002Y-80306972D01*
X165716009Y-80306985D01*
X165803610Y-80438088D01*
X165803613Y-80438092D01*
X165915107Y-80549586D01*
X165915111Y-80549589D01*
X166046214Y-80637190D01*
X166046227Y-80637197D01*
X166191898Y-80697535D01*
X166191903Y-80697537D01*
X166256547Y-80710395D01*
X166347249Y-80728438D01*
X166409160Y-80760823D01*
X166410739Y-80762374D01*
X166674781Y-81026416D01*
X166708266Y-81087739D01*
X166711100Y-81114097D01*
X166711100Y-86068369D01*
X166691415Y-86135408D01*
X166638611Y-86181163D01*
X166569453Y-86191107D01*
X166505897Y-86162082D01*
X166492111Y-86148075D01*
X166421552Y-86063987D01*
X166332878Y-85958309D01*
X166054991Y-85680422D01*
X165979701Y-85617246D01*
X165753947Y-85427815D01*
X165432027Y-85202404D01*
X165432024Y-85202402D01*
X165432021Y-85202400D01*
X165094992Y-85007816D01*
X165091686Y-85005907D01*
X165091662Y-85005895D01*
X164735521Y-84839824D01*
X164735510Y-84839820D01*
X164735508Y-84839819D01*
X164366216Y-84705407D01*
X164070239Y-84626100D01*
X163986616Y-84603693D01*
X163986605Y-84603691D01*
X163599597Y-84535451D01*
X163208100Y-84501200D01*
X163208096Y-84501200D01*
X162815104Y-84501200D01*
X162815099Y-84501200D01*
X162423604Y-84535451D01*
X162423600Y-84535451D01*
X162036594Y-84603691D01*
X162036583Y-84603693D01*
X161879003Y-84645917D01*
X161656984Y-84705407D01*
X161656981Y-84705408D01*
X161656980Y-84705408D01*
X161287678Y-84839824D01*
X160931537Y-85005895D01*
X160931513Y-85005907D01*
X160591187Y-85202395D01*
X160591172Y-85202404D01*
X160269252Y-85427815D01*
X159968206Y-85680424D01*
X159690324Y-85958306D01*
X159437715Y-86259352D01*
X159212304Y-86581272D01*
X159212295Y-86581287D01*
X159015807Y-86921613D01*
X159015795Y-86921637D01*
X158849724Y-87277778D01*
X158849719Y-87277792D01*
X158757420Y-87531377D01*
X158715995Y-87587640D01*
X158650727Y-87612575D01*
X158582338Y-87598265D01*
X158532543Y-87549253D01*
X158516900Y-87488965D01*
X158516900Y-80143960D01*
X158516901Y-80143947D01*
X158516901Y-79975844D01*
X158516901Y-79975843D01*
X158475977Y-79823116D01*
X158419346Y-79725027D01*
X158396924Y-79686190D01*
X158396918Y-79686182D01*
X157791773Y-79081037D01*
X157758288Y-79019714D01*
X157757837Y-79017547D01*
X157751093Y-78983643D01*
X157726937Y-78862203D01*
X157713977Y-78830915D01*
X157666597Y-78716527D01*
X157666590Y-78716514D01*
X157578989Y-78585411D01*
X157578986Y-78585407D01*
X157467492Y-78473913D01*
X157467488Y-78473910D01*
X157336385Y-78386309D01*
X157336372Y-78386302D01*
X157190701Y-78325964D01*
X157190689Y-78325961D01*
X157036045Y-78295200D01*
X157036042Y-78295200D01*
X156878358Y-78295200D01*
X156878355Y-78295200D01*
X156723710Y-78325961D01*
X156723698Y-78325964D01*
X156578027Y-78386302D01*
X156578014Y-78386309D01*
X156446911Y-78473910D01*
X156446907Y-78473913D01*
X156335413Y-78585407D01*
X156335410Y-78585411D01*
X156247809Y-78716514D01*
X156247802Y-78716527D01*
X156187464Y-78862198D01*
X156187461Y-78862210D01*
X156156700Y-79016853D01*
X156156700Y-79174546D01*
X156187461Y-79329189D01*
X156187464Y-79329201D01*
X156247802Y-79474872D01*
X156247809Y-79474885D01*
X156335410Y-79605988D01*
X156335413Y-79605992D01*
X156446907Y-79717486D01*
X156446911Y-79717489D01*
X156578014Y-79805090D01*
X156578027Y-79805097D01*
X156723698Y-79865435D01*
X156723703Y-79865437D01*
X156788347Y-79878295D01*
X156879049Y-79896338D01*
X156940960Y-79928723D01*
X156942539Y-79930274D01*
X157279581Y-80267316D01*
X157313066Y-80328639D01*
X157315900Y-80354997D01*
X157315900Y-83797903D01*
X157296215Y-83864942D01*
X157243411Y-83910697D01*
X157174253Y-83920641D01*
X157110697Y-83891616D01*
X157104219Y-83885584D01*
X156968440Y-83749805D01*
X156934955Y-83688482D01*
X156938189Y-83623808D01*
X156961018Y-83553551D01*
X156995503Y-83335822D01*
X156995503Y-83115378D01*
X156961018Y-82897649D01*
X156892898Y-82687994D01*
X156892898Y-82687993D01*
X156858240Y-82619975D01*
X156792818Y-82491578D01*
X156720081Y-82391463D01*
X156663250Y-82313241D01*
X156663246Y-82313236D01*
X156507366Y-82157356D01*
X156507361Y-82157352D01*
X156329028Y-82027787D01*
X156329027Y-82027786D01*
X156329025Y-82027785D01*
X156250606Y-81987828D01*
X156132609Y-81927704D01*
X156132606Y-81927703D01*
X155922955Y-81859585D01*
X155814089Y-81842342D01*
X155705225Y-81825100D01*
X155484781Y-81825100D01*
X155412204Y-81836595D01*
X155267050Y-81859585D01*
X155057399Y-81927703D01*
X155057396Y-81927704D01*
X154860977Y-82027787D01*
X154682644Y-82157352D01*
X154682639Y-82157356D01*
X154526759Y-82313236D01*
X154526755Y-82313241D01*
X154397190Y-82491574D01*
X154297107Y-82687993D01*
X154297106Y-82687996D01*
X154228988Y-82897647D01*
X154194503Y-83115378D01*
X154194503Y-83335822D01*
X154194502Y-83335822D01*
X154227438Y-83543770D01*
X154218483Y-83613063D01*
X154173487Y-83666515D01*
X154106735Y-83687154D01*
X154039422Y-83668429D01*
X154017284Y-83650848D01*
X153691819Y-83325383D01*
X153658334Y-83264060D01*
X153655500Y-83237702D01*
X153655500Y-79567437D01*
X153675185Y-79500398D01*
X153723204Y-79456952D01*
X153789025Y-79423415D01*
X153967368Y-79293842D01*
X154123245Y-79137965D01*
X154252818Y-78959622D01*
X154346583Y-78775600D01*
X154352899Y-78763205D01*
X154352899Y-78763203D01*
X154368069Y-78716514D01*
X154421018Y-78553551D01*
X154455503Y-78335822D01*
X154455503Y-78115378D01*
X154421018Y-77897649D01*
X154384576Y-77785490D01*
X154352899Y-77687996D01*
X154352898Y-77687993D01*
X154287572Y-77559786D01*
X154252818Y-77491578D01*
X154177431Y-77387816D01*
X154123250Y-77313241D01*
X154123246Y-77313236D01*
X153967366Y-77157356D01*
X153967361Y-77157352D01*
X153789028Y-77027787D01*
X153789027Y-77027786D01*
X153789025Y-77027785D01*
X153710506Y-76987777D01*
X153592609Y-76927704D01*
X153592606Y-76927703D01*
X153382955Y-76859585D01*
X153274089Y-76842342D01*
X153165225Y-76825100D01*
X152944781Y-76825100D01*
X152911811Y-76830322D01*
X152727048Y-76859585D01*
X152609217Y-76897870D01*
X152539376Y-76899865D01*
X152479543Y-76863784D01*
X152448716Y-76801083D01*
X152446900Y-76779939D01*
X152446900Y-69454978D01*
X154194503Y-69454978D01*
X154194503Y-69675422D01*
X154209137Y-69767816D01*
X154228988Y-69893152D01*
X154297106Y-70102803D01*
X154297107Y-70102806D01*
X154354299Y-70215048D01*
X154397052Y-70298956D01*
X154397190Y-70299225D01*
X154526755Y-70477558D01*
X154526759Y-70477563D01*
X154682639Y-70633443D01*
X154682644Y-70633447D01*
X154796635Y-70716265D01*
X154860981Y-70763015D01*
X154989378Y-70828437D01*
X155057396Y-70863095D01*
X155057399Y-70863096D01*
X155124525Y-70884906D01*
X155267052Y-70931215D01*
X155484781Y-70965700D01*
X155484782Y-70965700D01*
X155705224Y-70965700D01*
X155705225Y-70965700D01*
X155922954Y-70931215D01*
X156132609Y-70863095D01*
X156329025Y-70763015D01*
X156507368Y-70633442D01*
X156663245Y-70477565D01*
X156792818Y-70299222D01*
X156892898Y-70102806D01*
X156961018Y-69893151D01*
X156995503Y-69675422D01*
X156995503Y-69454978D01*
X156961018Y-69237249D01*
X156924576Y-69125090D01*
X156892899Y-69027596D01*
X156892898Y-69027593D01*
X156855253Y-68953713D01*
X156792818Y-68831178D01*
X156746688Y-68767685D01*
X156663250Y-68652841D01*
X156663246Y-68652836D01*
X156507366Y-68496956D01*
X156507361Y-68496952D01*
X156329028Y-68367387D01*
X156329027Y-68367386D01*
X156329025Y-68367385D01*
X156262795Y-68333639D01*
X156132609Y-68267304D01*
X156132606Y-68267303D01*
X155922955Y-68199185D01*
X155803138Y-68180208D01*
X155705225Y-68164700D01*
X155484781Y-68164700D01*
X155412204Y-68176195D01*
X155267050Y-68199185D01*
X155057399Y-68267303D01*
X155057396Y-68267304D01*
X154860977Y-68367387D01*
X154682644Y-68496952D01*
X154682639Y-68496956D01*
X154526759Y-68652836D01*
X154526755Y-68652841D01*
X154397190Y-68831174D01*
X154297107Y-69027593D01*
X154297106Y-69027596D01*
X154228988Y-69237247D01*
X154210669Y-69352908D01*
X154194503Y-69454978D01*
X152446900Y-69454978D01*
X152446900Y-68567997D01*
X152466585Y-68500958D01*
X152483219Y-68480316D01*
X152948693Y-68014842D01*
X153535520Y-67428016D01*
X153614577Y-67291084D01*
X153655501Y-67138357D01*
X153655501Y-66980242D01*
X153655501Y-66972647D01*
X153655500Y-66972629D01*
X153655500Y-65907037D01*
X153675185Y-65839998D01*
X153723204Y-65796552D01*
X153789025Y-65763015D01*
X153967368Y-65633442D01*
X154123245Y-65477565D01*
X154252818Y-65299222D01*
X154352898Y-65102806D01*
X154421018Y-64893151D01*
X154455503Y-64675422D01*
X154455503Y-64454978D01*
X154421018Y-64237249D01*
X154371968Y-64086286D01*
X154352899Y-64027596D01*
X154352898Y-64027593D01*
X154318240Y-63959575D01*
X154252818Y-63831178D01*
X154206688Y-63767685D01*
X154123250Y-63652841D01*
X154123246Y-63652836D01*
X153967366Y-63496956D01*
X153967361Y-63496952D01*
X153789028Y-63367387D01*
X153789027Y-63367386D01*
X153789025Y-63367385D01*
X153726099Y-63335322D01*
X153592609Y-63267304D01*
X153592606Y-63267303D01*
X153382955Y-63199185D01*
X153274089Y-63181942D01*
X153165225Y-63164700D01*
X152944781Y-63164700D01*
X152872204Y-63176195D01*
X152727050Y-63199185D01*
X152517399Y-63267303D01*
X152517396Y-63267304D01*
X152320977Y-63367387D01*
X152142644Y-63496952D01*
X152142639Y-63496956D01*
X151986759Y-63652836D01*
X151986755Y-63652841D01*
X151857190Y-63831174D01*
X151757107Y-64027593D01*
X151757106Y-64027596D01*
X151688988Y-64237247D01*
X151654503Y-64454978D01*
X151654503Y-64675421D01*
X151688988Y-64893152D01*
X151757106Y-65102803D01*
X151757107Y-65102806D01*
X151825125Y-65236296D01*
X151857052Y-65298956D01*
X151857190Y-65299225D01*
X151986755Y-65477558D01*
X151986759Y-65477563D01*
X152142639Y-65633443D01*
X152142644Y-65633447D01*
X152261770Y-65719996D01*
X152320981Y-65763015D01*
X152386795Y-65796549D01*
X152437591Y-65844524D01*
X152454500Y-65907034D01*
X152454500Y-66753978D01*
X152434815Y-66821017D01*
X152382011Y-66866772D01*
X152312853Y-66876716D01*
X152249297Y-66847691D01*
X152215939Y-66801432D01*
X152215521Y-66800423D01*
X152210094Y-66787321D01*
X152210091Y-66787316D01*
X152210090Y-66787314D01*
X152122489Y-66656211D01*
X152122486Y-66656207D01*
X152010992Y-66544713D01*
X152010988Y-66544710D01*
X151879885Y-66457109D01*
X151879872Y-66457102D01*
X151734201Y-66396764D01*
X151734189Y-66396761D01*
X151579545Y-66366000D01*
X151579542Y-66366000D01*
X151421858Y-66366000D01*
X151421855Y-66366000D01*
X151267210Y-66396761D01*
X151267198Y-66396764D01*
X151121527Y-66457102D01*
X151121514Y-66457109D01*
X150990411Y-66544710D01*
X150990407Y-66544713D01*
X150878913Y-66656207D01*
X150878910Y-66656211D01*
X150791309Y-66787314D01*
X150791302Y-66787327D01*
X150730964Y-66932998D01*
X150730961Y-66933008D01*
X150700061Y-67088350D01*
X150667676Y-67150261D01*
X150666125Y-67151839D01*
X150034481Y-67783482D01*
X150034477Y-67783487D01*
X150020070Y-67808443D01*
X150015130Y-67817000D01*
X149955423Y-67920415D01*
X149914499Y-68073143D01*
X149914499Y-68073145D01*
X149914499Y-68223365D01*
X149894814Y-68290404D01*
X149846795Y-68333849D01*
X149780986Y-68367381D01*
X149780977Y-68367386D01*
X149602644Y-68496952D01*
X149602639Y-68496956D01*
X149446759Y-68652836D01*
X149446755Y-68652841D01*
X149317190Y-68831174D01*
X149217107Y-69027593D01*
X149217106Y-69027596D01*
X149148988Y-69237247D01*
X149130669Y-69352908D01*
X149114503Y-69454978D01*
X149114503Y-69675422D01*
X149129137Y-69767816D01*
X149148988Y-69893152D01*
X149217106Y-70102803D01*
X149217107Y-70102806D01*
X149274299Y-70215048D01*
X149317052Y-70298956D01*
X149317190Y-70299225D01*
X149446755Y-70477558D01*
X149446759Y-70477563D01*
X149602639Y-70633443D01*
X149602644Y-70633447D01*
X149716635Y-70716265D01*
X149780981Y-70763015D01*
X149909378Y-70828437D01*
X149977396Y-70863095D01*
X149977399Y-70863096D01*
X150044525Y-70884906D01*
X150187052Y-70931215D01*
X150404781Y-70965700D01*
X150404782Y-70965700D01*
X150625224Y-70965700D01*
X150625225Y-70965700D01*
X150842954Y-70931215D01*
X151052609Y-70863095D01*
X151065606Y-70856472D01*
X151134272Y-70843576D01*
X151199013Y-70869851D01*
X151239271Y-70926957D01*
X151245900Y-70966957D01*
X151245900Y-81823841D01*
X151226215Y-81890880D01*
X151173411Y-81936635D01*
X151104253Y-81946579D01*
X151065608Y-81934327D01*
X151052616Y-81927708D01*
X151052606Y-81927703D01*
X150842955Y-81859585D01*
X150734089Y-81842342D01*
X150625225Y-81825100D01*
X150404781Y-81825100D01*
X150332204Y-81836595D01*
X150187050Y-81859585D01*
X149977399Y-81927703D01*
X149977396Y-81927704D01*
X149780977Y-82027787D01*
X149602644Y-82157352D01*
X149602639Y-82157356D01*
X149446759Y-82313236D01*
X149446755Y-82313241D01*
X149317190Y-82491574D01*
X149217107Y-82687993D01*
X149217106Y-82687996D01*
X149148988Y-82897647D01*
X149124027Y-83055248D01*
X149114503Y-83115378D01*
X149114503Y-83335822D01*
X149127869Y-83420213D01*
X149148988Y-83553552D01*
X149171813Y-83623801D01*
X149173808Y-83693642D01*
X149141563Y-83749800D01*
X148941088Y-83950275D01*
X148941080Y-83950283D01*
X148938386Y-83952978D01*
X148938384Y-83952980D01*
X148826580Y-84064784D01*
X148807763Y-84097377D01*
X148747523Y-84201715D01*
X148706599Y-84354443D01*
X148706599Y-84354445D01*
X148706599Y-84522546D01*
X148706600Y-84522559D01*
X148706600Y-90484598D01*
X148686915Y-90551637D01*
X148634111Y-90597392D01*
X148564953Y-90607336D01*
X148526307Y-90595084D01*
X148512610Y-90588105D01*
X148512606Y-90588103D01*
X148302955Y-90519985D01*
X148194089Y-90502742D01*
X148085225Y-90485500D01*
X147864781Y-90485500D01*
X147821235Y-90492397D01*
X147647048Y-90519985D01*
X147481817Y-90573671D01*
X147411976Y-90575666D01*
X147352143Y-90539585D01*
X147321316Y-90476884D01*
X147319500Y-90455740D01*
X147319500Y-79655859D01*
X147339185Y-79588820D01*
X147391989Y-79543065D01*
X147461147Y-79533121D01*
X147481817Y-79537927D01*
X147647052Y-79591615D01*
X147864781Y-79626100D01*
X147864782Y-79626100D01*
X148085224Y-79626100D01*
X148085225Y-79626100D01*
X148302954Y-79591615D01*
X148512609Y-79523495D01*
X148709025Y-79423415D01*
X148887368Y-79293842D01*
X149043245Y-79137965D01*
X149172818Y-78959622D01*
X149266583Y-78775600D01*
X149272899Y-78763205D01*
X149272899Y-78763203D01*
X149288069Y-78716514D01*
X149341018Y-78553551D01*
X149375503Y-78335822D01*
X149375503Y-78115378D01*
X149341018Y-77897649D01*
X149304576Y-77785490D01*
X149272899Y-77687996D01*
X149272898Y-77687993D01*
X149207572Y-77559786D01*
X149172818Y-77491578D01*
X149097431Y-77387816D01*
X149043250Y-77313241D01*
X149043246Y-77313236D01*
X148887366Y-77157356D01*
X148887361Y-77157352D01*
X148709028Y-77027787D01*
X148709027Y-77027786D01*
X148709025Y-77027785D01*
X148630506Y-76987777D01*
X148512609Y-76927704D01*
X148512606Y-76927703D01*
X148302955Y-76859585D01*
X148194089Y-76842342D01*
X148085225Y-76825100D01*
X147864781Y-76825100D01*
X147831811Y-76830322D01*
X147647048Y-76859585D01*
X147481817Y-76913271D01*
X147411976Y-76915266D01*
X147352143Y-76879185D01*
X147321316Y-76816484D01*
X147319500Y-76795340D01*
X147319500Y-68478260D01*
X147319501Y-68478247D01*
X147319501Y-68310144D01*
X147308885Y-68270524D01*
X147278577Y-68157416D01*
X147229924Y-68073145D01*
X147199524Y-68020490D01*
X147199518Y-68020482D01*
X145805322Y-66626286D01*
X144268439Y-65089404D01*
X144234955Y-65028082D01*
X144238189Y-64963408D01*
X144261018Y-64893151D01*
X144295503Y-64675422D01*
X144295503Y-64454978D01*
X146574503Y-64454978D01*
X146574503Y-64675421D01*
X146608988Y-64893152D01*
X146677106Y-65102803D01*
X146677107Y-65102806D01*
X146745125Y-65236296D01*
X146777052Y-65298956D01*
X146777190Y-65299225D01*
X146906755Y-65477558D01*
X146906759Y-65477563D01*
X147062639Y-65633443D01*
X147062644Y-65633447D01*
X147181770Y-65719996D01*
X147240981Y-65763015D01*
X147337470Y-65812179D01*
X147437396Y-65863095D01*
X147437399Y-65863096D01*
X147542224Y-65897155D01*
X147647052Y-65931215D01*
X147864781Y-65965700D01*
X147864782Y-65965700D01*
X148085224Y-65965700D01*
X148085225Y-65965700D01*
X148302954Y-65931215D01*
X148512609Y-65863095D01*
X148709025Y-65763015D01*
X148887368Y-65633442D01*
X149043245Y-65477565D01*
X149172818Y-65299222D01*
X149272898Y-65102806D01*
X149341018Y-64893151D01*
X149375503Y-64675422D01*
X149375503Y-64454978D01*
X149341018Y-64237249D01*
X149291968Y-64086286D01*
X149272899Y-64027596D01*
X149272898Y-64027593D01*
X149238240Y-63959575D01*
X149172818Y-63831178D01*
X149126688Y-63767685D01*
X149043250Y-63652841D01*
X149043246Y-63652836D01*
X148887366Y-63496956D01*
X148887361Y-63496952D01*
X148709028Y-63367387D01*
X148709027Y-63367386D01*
X148709025Y-63367385D01*
X148646099Y-63335322D01*
X148512609Y-63267304D01*
X148512606Y-63267303D01*
X148302955Y-63199185D01*
X148194089Y-63181942D01*
X148085225Y-63164700D01*
X147864781Y-63164700D01*
X147792204Y-63176195D01*
X147647050Y-63199185D01*
X147437399Y-63267303D01*
X147437396Y-63267304D01*
X147240977Y-63367387D01*
X147062644Y-63496952D01*
X147062639Y-63496956D01*
X146906759Y-63652836D01*
X146906755Y-63652841D01*
X146777190Y-63831174D01*
X146677107Y-64027593D01*
X146677106Y-64027596D01*
X146608988Y-64237247D01*
X146574503Y-64454978D01*
X144295503Y-64454978D01*
X144261018Y-64237249D01*
X144211968Y-64086286D01*
X144192899Y-64027596D01*
X144192898Y-64027593D01*
X144158240Y-63959575D01*
X144092818Y-63831178D01*
X144046688Y-63767685D01*
X143963250Y-63652841D01*
X143963246Y-63652836D01*
X143807366Y-63496956D01*
X143807361Y-63496952D01*
X143629028Y-63367387D01*
X143629027Y-63367386D01*
X143629025Y-63367385D01*
X143566099Y-63335322D01*
X143432609Y-63267304D01*
X143432606Y-63267303D01*
X143222955Y-63199185D01*
X143114089Y-63181942D01*
X143005225Y-63164700D01*
X142784781Y-63164700D01*
X142712204Y-63176195D01*
X142567050Y-63199185D01*
X142357399Y-63267303D01*
X142357396Y-63267304D01*
X142160977Y-63367387D01*
X141982644Y-63496952D01*
X141982639Y-63496956D01*
X141826759Y-63652836D01*
X141826755Y-63652841D01*
X141697190Y-63831174D01*
X141597107Y-64027593D01*
X141597106Y-64027596D01*
X141528988Y-64237247D01*
X141494503Y-64454978D01*
X141494503Y-64675421D01*
X141528988Y-64893152D01*
X141597106Y-65102803D01*
X141597107Y-65102806D01*
X141665125Y-65236296D01*
X141697052Y-65298956D01*
X141697190Y-65299225D01*
X141826755Y-65477558D01*
X141826759Y-65477563D01*
X141982639Y-65633443D01*
X141982644Y-65633447D01*
X142101770Y-65719996D01*
X142160981Y-65763015D01*
X142257470Y-65812179D01*
X142357396Y-65863095D01*
X142357399Y-65863096D01*
X142462224Y-65897155D01*
X142567052Y-65931215D01*
X142784781Y-65965700D01*
X142784782Y-65965700D01*
X143005224Y-65965700D01*
X143005225Y-65965700D01*
X143222954Y-65931215D01*
X143293205Y-65908388D01*
X143363046Y-65906394D01*
X143419204Y-65938639D01*
X145434084Y-67953519D01*
X145467569Y-68014842D01*
X145462585Y-68084534D01*
X145420713Y-68140467D01*
X145355249Y-68164884D01*
X145346403Y-68165200D01*
X145324822Y-68165200D01*
X145107167Y-68199673D01*
X144897592Y-68267767D01*
X144701236Y-68367816D01*
X144637488Y-68414131D01*
X144637488Y-68414132D01*
X145264768Y-69041412D01*
X145222711Y-69052682D01*
X145097295Y-69125090D01*
X144994893Y-69227492D01*
X144922485Y-69352908D01*
X144911215Y-69394965D01*
X144283935Y-68767685D01*
X144283934Y-68767685D01*
X144237619Y-68831433D01*
X144137570Y-69027789D01*
X144069476Y-69237364D01*
X144035003Y-69455018D01*
X144035003Y-69675381D01*
X144069476Y-69893035D01*
X144137570Y-70102610D01*
X144237614Y-70298956D01*
X144283935Y-70362713D01*
X144911215Y-69735433D01*
X144922485Y-69777492D01*
X144994893Y-69902908D01*
X145097295Y-70005310D01*
X145222711Y-70077718D01*
X145264767Y-70088987D01*
X144637488Y-70716265D01*
X144637488Y-70716266D01*
X144701246Y-70762588D01*
X144897592Y-70862632D01*
X145107167Y-70930726D01*
X145324822Y-70965200D01*
X145545184Y-70965200D01*
X145762838Y-70930726D01*
X145956182Y-70867906D01*
X146026023Y-70865911D01*
X146085856Y-70901991D01*
X146116684Y-70964692D01*
X146118500Y-70985837D01*
X146118500Y-81804436D01*
X146098815Y-81871475D01*
X146046011Y-81917230D01*
X145976853Y-81927174D01*
X145956183Y-81922367D01*
X145762956Y-81859585D01*
X145762957Y-81859585D01*
X145599657Y-81833721D01*
X145545225Y-81825100D01*
X145324781Y-81825100D01*
X145252204Y-81836595D01*
X145107050Y-81859585D01*
X144897399Y-81927703D01*
X144897396Y-81927704D01*
X144700977Y-82027787D01*
X144522644Y-82157352D01*
X144522639Y-82157356D01*
X144366759Y-82313236D01*
X144366755Y-82313241D01*
X144237190Y-82491574D01*
X144137107Y-82687993D01*
X144137106Y-82687996D01*
X144068988Y-82897647D01*
X144044027Y-83055248D01*
X144034503Y-83115378D01*
X144034503Y-83335822D01*
X144047869Y-83420213D01*
X144068988Y-83553552D01*
X144137106Y-83763203D01*
X144137107Y-83763206D01*
X144191119Y-83869208D01*
X144232425Y-83950275D01*
X144237190Y-83959625D01*
X144366755Y-84137958D01*
X144366759Y-84137963D01*
X144522639Y-84293843D01*
X144522644Y-84293847D01*
X144606051Y-84354445D01*
X144700981Y-84423415D01*
X144766795Y-84456949D01*
X144817591Y-84504924D01*
X144834500Y-84567434D01*
X144834500Y-92467959D01*
X144814815Y-92534998D01*
X144762011Y-92580753D01*
X144727197Y-92590137D01*
X144727232Y-92590311D01*
X144724649Y-92590824D01*
X144722660Y-92591361D01*
X144721259Y-92591498D01*
X144566610Y-92622261D01*
X144566598Y-92622264D01*
X144420927Y-92682602D01*
X144420914Y-92682609D01*
X144289811Y-92770210D01*
X144284162Y-92775859D01*
X144222837Y-92809341D01*
X144153146Y-92804353D01*
X144097214Y-92762478D01*
X144072800Y-92697013D01*
X144087656Y-92628741D01*
X144090763Y-92623375D01*
X144092809Y-92620034D01*
X144092818Y-92620022D01*
X144192898Y-92423606D01*
X144261018Y-92213951D01*
X144295503Y-91996222D01*
X144295503Y-91775778D01*
X144261018Y-91558049D01*
X144210182Y-91401588D01*
X144192899Y-91348396D01*
X144192898Y-91348393D01*
X144127959Y-91220946D01*
X144092818Y-91151978D01*
X144041821Y-91081786D01*
X143963250Y-90973641D01*
X143963246Y-90973636D01*
X143807366Y-90817756D01*
X143807361Y-90817752D01*
X143629026Y-90688185D01*
X143563204Y-90654646D01*
X143512408Y-90606671D01*
X143495500Y-90544162D01*
X143495500Y-80400837D01*
X143504939Y-80353384D01*
X143511437Y-80337697D01*
X143542200Y-80183042D01*
X143542200Y-80025358D01*
X143542200Y-80025355D01*
X143542199Y-80025353D01*
X143522798Y-79927820D01*
X143511437Y-79870703D01*
X143491723Y-79823109D01*
X143451097Y-79725027D01*
X143451090Y-79725014D01*
X143423470Y-79683678D01*
X143402592Y-79617001D01*
X143421076Y-79549620D01*
X143470277Y-79504302D01*
X143495500Y-79491450D01*
X143629025Y-79423415D01*
X143807368Y-79293842D01*
X143963245Y-79137965D01*
X144092818Y-78959622D01*
X144186583Y-78775600D01*
X144192899Y-78763205D01*
X144192899Y-78763203D01*
X144208069Y-78716514D01*
X144261018Y-78553551D01*
X144295503Y-78335822D01*
X144295503Y-78115378D01*
X144261018Y-77897649D01*
X144224576Y-77785490D01*
X144192899Y-77687996D01*
X144192898Y-77687993D01*
X144127572Y-77559786D01*
X144092818Y-77491578D01*
X144017431Y-77387816D01*
X143963250Y-77313241D01*
X143963246Y-77313236D01*
X143807362Y-77157352D01*
X143652997Y-77045201D01*
X143610331Y-76989872D01*
X143604352Y-76920258D01*
X143636957Y-76858463D01*
X143678430Y-76830322D01*
X143804272Y-76778197D01*
X143804272Y-76778196D01*
X143804279Y-76778194D01*
X143935389Y-76690589D01*
X144046889Y-76579089D01*
X144134494Y-76447979D01*
X144194837Y-76302297D01*
X144225600Y-76147642D01*
X144225600Y-75989958D01*
X144225600Y-75989955D01*
X144225599Y-75989953D01*
X144223807Y-75980946D01*
X144194837Y-75835303D01*
X144194835Y-75835298D01*
X144134497Y-75689627D01*
X144134490Y-75689614D01*
X144046889Y-75558511D01*
X144046886Y-75558507D01*
X143935392Y-75447013D01*
X143935388Y-75447010D01*
X143804285Y-75359409D01*
X143804272Y-75359402D01*
X143658601Y-75299064D01*
X143658589Y-75299061D01*
X143503945Y-75268300D01*
X143503942Y-75268300D01*
X143346258Y-75268300D01*
X143346255Y-75268300D01*
X143191610Y-75299061D01*
X143191598Y-75299064D01*
X143045927Y-75359402D01*
X143045914Y-75359409D01*
X142914811Y-75447010D01*
X142914807Y-75447013D01*
X142803313Y-75558507D01*
X142803310Y-75558511D01*
X142715709Y-75689614D01*
X142715702Y-75689627D01*
X142655364Y-75835298D01*
X142655361Y-75835308D01*
X142643383Y-75895527D01*
X142610998Y-75957438D01*
X142609447Y-75959016D01*
X139986286Y-78582178D01*
X139874481Y-78693982D01*
X139874479Y-78693985D01*
X139870090Y-78701588D01*
X139834515Y-78763206D01*
X139795423Y-78830915D01*
X139754499Y-78983643D01*
X139754499Y-78983645D01*
X139754499Y-79151746D01*
X139754500Y-79151759D01*
X139754500Y-81883765D01*
X139734815Y-81950804D01*
X139686796Y-81994249D01*
X139620986Y-82027781D01*
X139620977Y-82027786D01*
X139442644Y-82157352D01*
X139442639Y-82157356D01*
X139286759Y-82313236D01*
X139286755Y-82313241D01*
X139157190Y-82491574D01*
X139057107Y-82687993D01*
X139057106Y-82687996D01*
X138988988Y-82897647D01*
X138964027Y-83055248D01*
X138954503Y-83115378D01*
X136675503Y-83115378D01*
X136641018Y-82897649D01*
X136572898Y-82687994D01*
X136572898Y-82687993D01*
X136538240Y-82619975D01*
X136472818Y-82491578D01*
X136400081Y-82391463D01*
X136343250Y-82313241D01*
X136343246Y-82313236D01*
X136187366Y-82157356D01*
X136187361Y-82157352D01*
X136009026Y-82027785D01*
X135943204Y-81994246D01*
X135892408Y-81946271D01*
X135875500Y-81883762D01*
X135875500Y-78115378D01*
X136414503Y-78115378D01*
X136414503Y-78335822D01*
X136422498Y-78386302D01*
X136448988Y-78553552D01*
X136517106Y-78763203D01*
X136517107Y-78763205D01*
X136551607Y-78830913D01*
X136617052Y-78959356D01*
X136617190Y-78959625D01*
X136746755Y-79137958D01*
X136746759Y-79137963D01*
X136902639Y-79293843D01*
X136902644Y-79293847D01*
X137058195Y-79406860D01*
X137080981Y-79423415D01*
X137181970Y-79474872D01*
X137277396Y-79523495D01*
X137277399Y-79523496D01*
X137382224Y-79557555D01*
X137487052Y-79591615D01*
X137704781Y-79626100D01*
X137704782Y-79626100D01*
X137925224Y-79626100D01*
X137925225Y-79626100D01*
X138142954Y-79591615D01*
X138352609Y-79523495D01*
X138549025Y-79423415D01*
X138727368Y-79293842D01*
X138883245Y-79137965D01*
X139012818Y-78959622D01*
X139106583Y-78775600D01*
X139112899Y-78763205D01*
X139112899Y-78763203D01*
X139128069Y-78716514D01*
X139181018Y-78553551D01*
X139215503Y-78335822D01*
X139215503Y-78115378D01*
X139181018Y-77897649D01*
X139144576Y-77785490D01*
X139112899Y-77687996D01*
X139112898Y-77687993D01*
X139047572Y-77559786D01*
X139012818Y-77491578D01*
X138937431Y-77387816D01*
X138883250Y-77313241D01*
X138883246Y-77313236D01*
X138727366Y-77157356D01*
X138727361Y-77157352D01*
X138549028Y-77027787D01*
X138549027Y-77027786D01*
X138549025Y-77027785D01*
X138470506Y-76987777D01*
X138352609Y-76927704D01*
X138352606Y-76927703D01*
X138142955Y-76859585D01*
X138034089Y-76842342D01*
X137925225Y-76825100D01*
X137704781Y-76825100D01*
X137671811Y-76830322D01*
X137487050Y-76859585D01*
X137277399Y-76927703D01*
X137277396Y-76927704D01*
X137080977Y-77027787D01*
X136902644Y-77157352D01*
X136902639Y-77157356D01*
X136746759Y-77313236D01*
X136746755Y-77313241D01*
X136617190Y-77491574D01*
X136517107Y-77687993D01*
X136517106Y-77687996D01*
X136448988Y-77897647D01*
X136437775Y-77968443D01*
X136414503Y-78115378D01*
X135875500Y-78115378D01*
X135875500Y-74945296D01*
X135895185Y-74878257D01*
X135911814Y-74857620D01*
X139830798Y-70938635D01*
X139892119Y-70905152D01*
X139956794Y-70908386D01*
X139994213Y-70920545D01*
X140027051Y-70931215D01*
X140120388Y-70945998D01*
X140244781Y-70965700D01*
X140244782Y-70965700D01*
X140465224Y-70965700D01*
X140465225Y-70965700D01*
X140682954Y-70931215D01*
X140892609Y-70863095D01*
X141089025Y-70763015D01*
X141267368Y-70633442D01*
X141423245Y-70477565D01*
X141552818Y-70299222D01*
X141652898Y-70102806D01*
X141721018Y-69893151D01*
X141755503Y-69675422D01*
X141755503Y-69454978D01*
X141721018Y-69237249D01*
X141684576Y-69125090D01*
X141652899Y-69027596D01*
X141652898Y-69027593D01*
X141615253Y-68953713D01*
X141552818Y-68831178D01*
X141506688Y-68767685D01*
X141423250Y-68652841D01*
X141423246Y-68652836D01*
X141267366Y-68496956D01*
X141267361Y-68496952D01*
X141089028Y-68367387D01*
X141089027Y-68367386D01*
X141089025Y-68367385D01*
X141022795Y-68333639D01*
X140892609Y-68267304D01*
X140892606Y-68267303D01*
X140682955Y-68199185D01*
X140563138Y-68180208D01*
X140465225Y-68164700D01*
X140244781Y-68164700D01*
X140172204Y-68176195D01*
X140027050Y-68199185D01*
X139817399Y-68267303D01*
X139817396Y-68267304D01*
X139620977Y-68367387D01*
X139442644Y-68496952D01*
X139442639Y-68496956D01*
X139286759Y-68652836D01*
X139286755Y-68652841D01*
X139157190Y-68831174D01*
X139057107Y-69027593D01*
X139057106Y-69027596D01*
X138988988Y-69237247D01*
X138970669Y-69352908D01*
X138954503Y-69454978D01*
X138954503Y-69675422D01*
X138969137Y-69767816D01*
X138988988Y-69893152D01*
X139011813Y-69963401D01*
X139013808Y-70033242D01*
X138981563Y-70089400D01*
X134906286Y-74164678D01*
X134831081Y-74239883D01*
X134769758Y-74273368D01*
X134700066Y-74268384D01*
X134644133Y-74226512D01*
X134619716Y-74161048D01*
X134619400Y-74152202D01*
X134619400Y-71121396D01*
X134639085Y-71054357D01*
X134655710Y-71033724D01*
X134750800Y-70938634D01*
X134812118Y-70905152D01*
X134876794Y-70908386D01*
X134914213Y-70920545D01*
X134947051Y-70931215D01*
X135040388Y-70945998D01*
X135164781Y-70965700D01*
X135164782Y-70965700D01*
X135385224Y-70965700D01*
X135385225Y-70965700D01*
X135602954Y-70931215D01*
X135812609Y-70863095D01*
X136009025Y-70763015D01*
X136187368Y-70633442D01*
X136343245Y-70477565D01*
X136472818Y-70299222D01*
X136572898Y-70102806D01*
X136641018Y-69893151D01*
X136675503Y-69675422D01*
X136675503Y-69454978D01*
X136641018Y-69237249D01*
X136604576Y-69125090D01*
X136572899Y-69027596D01*
X136572898Y-69027593D01*
X136535253Y-68953713D01*
X136472818Y-68831178D01*
X136426688Y-68767685D01*
X136343250Y-68652841D01*
X136343246Y-68652836D01*
X136187366Y-68496956D01*
X136187361Y-68496952D01*
X136009028Y-68367387D01*
X136009027Y-68367386D01*
X136009025Y-68367385D01*
X135942795Y-68333639D01*
X135812609Y-68267304D01*
X135812606Y-68267303D01*
X135602955Y-68199185D01*
X135483138Y-68180208D01*
X135385225Y-68164700D01*
X135164781Y-68164700D01*
X135092204Y-68176195D01*
X134947050Y-68199185D01*
X134737399Y-68267303D01*
X134737396Y-68267304D01*
X134540977Y-68367387D01*
X134362644Y-68496952D01*
X134362639Y-68496956D01*
X134206759Y-68652836D01*
X134206755Y-68652841D01*
X134077190Y-68831174D01*
X133977107Y-69027593D01*
X133977106Y-69027596D01*
X133908988Y-69237247D01*
X133890669Y-69352908D01*
X133874503Y-69454978D01*
X133874503Y-69675422D01*
X133889137Y-69767816D01*
X133908988Y-69893152D01*
X133931813Y-69963401D01*
X133933808Y-70033242D01*
X133901563Y-70089400D01*
X133653349Y-70337614D01*
X133653342Y-70337621D01*
X133650186Y-70340778D01*
X133650184Y-70340780D01*
X133538380Y-70452584D01*
X133513233Y-70496141D01*
X133507335Y-70506354D01*
X133507335Y-70506356D01*
X133470650Y-70569896D01*
X133459323Y-70589515D01*
X133418399Y-70742243D01*
X133418399Y-70742245D01*
X133418399Y-70910346D01*
X133418400Y-70910359D01*
X133418400Y-76804931D01*
X133398715Y-76871970D01*
X133345911Y-76917725D01*
X133276753Y-76927669D01*
X133256082Y-76922862D01*
X133062835Y-76860073D01*
X132845181Y-76825600D01*
X132624819Y-76825600D01*
X132407164Y-76860073D01*
X132197589Y-76928167D01*
X132001233Y-77028216D01*
X131937485Y-77074531D01*
X131937485Y-77074532D01*
X132564765Y-77701812D01*
X132522708Y-77713082D01*
X132397292Y-77785490D01*
X132294890Y-77887892D01*
X132222482Y-78013308D01*
X132211212Y-78055365D01*
X131583932Y-77428085D01*
X131583931Y-77428085D01*
X131537616Y-77491833D01*
X131437567Y-77688189D01*
X131369473Y-77897764D01*
X131335000Y-78115418D01*
X127500500Y-78115418D01*
X127500500Y-64455018D01*
X131335000Y-64455018D01*
X131335000Y-64675381D01*
X131369473Y-64893035D01*
X131437567Y-65102610D01*
X131537611Y-65298956D01*
X131583932Y-65362713D01*
X132211212Y-64735433D01*
X132222482Y-64777492D01*
X132294890Y-64902908D01*
X132397292Y-65005310D01*
X132522708Y-65077718D01*
X132564765Y-65088987D01*
X131937485Y-65716265D01*
X131937485Y-65716266D01*
X132001243Y-65762588D01*
X132197589Y-65862632D01*
X132407164Y-65930726D01*
X132624819Y-65965200D01*
X132845181Y-65965200D01*
X133062835Y-65930726D01*
X133272410Y-65862632D01*
X133468760Y-65762586D01*
X133532513Y-65716266D01*
X133532514Y-65716266D01*
X132905234Y-65088987D01*
X132947292Y-65077718D01*
X133072708Y-65005310D01*
X133175110Y-64902908D01*
X133247518Y-64777492D01*
X133258787Y-64735434D01*
X133886066Y-65362714D01*
X133886066Y-65362713D01*
X133932386Y-65298960D01*
X134032432Y-65102610D01*
X134100526Y-64893035D01*
X134135000Y-64675381D01*
X134135000Y-64455018D01*
X134134994Y-64454978D01*
X136414503Y-64454978D01*
X136414503Y-64675421D01*
X136448988Y-64893152D01*
X136517106Y-65102803D01*
X136517107Y-65102806D01*
X136585125Y-65236296D01*
X136617052Y-65298956D01*
X136617190Y-65299225D01*
X136746755Y-65477558D01*
X136746759Y-65477563D01*
X136902639Y-65633443D01*
X136902644Y-65633447D01*
X137021770Y-65719996D01*
X137080981Y-65763015D01*
X137177470Y-65812179D01*
X137277396Y-65863095D01*
X137277399Y-65863096D01*
X137382224Y-65897155D01*
X137487052Y-65931215D01*
X137704781Y-65965700D01*
X137704782Y-65965700D01*
X137925224Y-65965700D01*
X137925225Y-65965700D01*
X138142954Y-65931215D01*
X138352609Y-65863095D01*
X138549025Y-65763015D01*
X138727368Y-65633442D01*
X138883245Y-65477565D01*
X139012818Y-65299222D01*
X139112898Y-65102806D01*
X139181018Y-64893151D01*
X139215503Y-64675422D01*
X139215503Y-64454978D01*
X139181018Y-64237249D01*
X139131968Y-64086286D01*
X139112899Y-64027596D01*
X139112898Y-64027593D01*
X139078240Y-63959575D01*
X139012818Y-63831178D01*
X138966688Y-63767685D01*
X138883250Y-63652841D01*
X138883246Y-63652836D01*
X138727366Y-63496956D01*
X138727361Y-63496952D01*
X138549028Y-63367387D01*
X138549027Y-63367386D01*
X138549025Y-63367385D01*
X138486099Y-63335322D01*
X138352609Y-63267304D01*
X138352606Y-63267303D01*
X138142955Y-63199185D01*
X138034089Y-63181942D01*
X137925225Y-63164700D01*
X137704781Y-63164700D01*
X137632204Y-63176195D01*
X137487050Y-63199185D01*
X137277399Y-63267303D01*
X137277396Y-63267304D01*
X137080977Y-63367387D01*
X136902644Y-63496952D01*
X136902639Y-63496956D01*
X136746759Y-63652836D01*
X136746755Y-63652841D01*
X136617190Y-63831174D01*
X136517107Y-64027593D01*
X136517106Y-64027596D01*
X136448988Y-64237247D01*
X136414503Y-64454978D01*
X134134994Y-64454978D01*
X134100526Y-64237364D01*
X134032432Y-64027789D01*
X133932388Y-63831443D01*
X133886066Y-63767685D01*
X133886065Y-63767685D01*
X133258787Y-64394964D01*
X133247518Y-64352908D01*
X133175110Y-64227492D01*
X133072708Y-64125090D01*
X132947292Y-64052682D01*
X132905232Y-64041412D01*
X133532513Y-63414132D01*
X133468756Y-63367811D01*
X133272410Y-63267767D01*
X133062835Y-63199673D01*
X132845181Y-63165200D01*
X132624819Y-63165200D01*
X132407164Y-63199673D01*
X132197589Y-63267767D01*
X132001233Y-63367816D01*
X131937485Y-63414131D01*
X131937485Y-63414132D01*
X132564765Y-64041412D01*
X132522708Y-64052682D01*
X132397292Y-64125090D01*
X132294890Y-64227492D01*
X132222482Y-64352908D01*
X132211212Y-64394965D01*
X131583932Y-63767685D01*
X131583931Y-63767685D01*
X131537616Y-63831433D01*
X131437567Y-64027789D01*
X131369473Y-64237364D01*
X131335000Y-64455018D01*
X127500500Y-64455018D01*
X127500500Y-62006961D01*
X127501280Y-61993077D01*
X127501280Y-61993076D01*
X127511460Y-61902729D01*
X127517635Y-61875670D01*
X127545353Y-61796456D01*
X127557396Y-61771450D01*
X127602046Y-61700389D01*
X127619351Y-61678690D01*
X127678690Y-61619351D01*
X127700389Y-61602046D01*
X127771450Y-61557396D01*
X127796456Y-61545353D01*
X127875670Y-61517635D01*
X127902733Y-61511459D01*
X127965419Y-61504396D01*
X127993079Y-61501280D01*
X128006962Y-61500500D01*
X128065892Y-61500500D01*
X174934108Y-61500500D01*
X174993038Y-61500500D01*
X175006922Y-61501280D01*
G37*
%TD.AperFunction*%
%TD*%
M02*
