%TF.GenerationSoftware,KiCad,Pcbnew,9.0.6*%
%TF.CreationDate,2025-12-30T01:20:39+01:00*%
%TF.ProjectId,40Pin GPIO Breakout,34305069-6e20-4475-9049-4f2042726561,rev?*%
%TF.SameCoordinates,Original*%
%TF.FileFunction,Copper,L2,Bot*%
%TF.FilePolarity,Positive*%
%FSLAX46Y46*%
G04 Gerber Fmt 4.6, Leading zero omitted, Abs format (unit mm)*
G04 Created by KiCad (PCBNEW 9.0.6) date 2025-12-30 01:20:39*
%MOMM*%
%LPD*%
G01*
G04 APERTURE LIST*
%TA.AperFunction,ComponentPad*%
%ADD10R,1.700000X1.700000*%
%TD*%
%TA.AperFunction,ComponentPad*%
%ADD11C,1.700000*%
%TD*%
%TA.AperFunction,ComponentPad*%
%ADD12C,1.800000*%
%TD*%
%TA.AperFunction,ViaPad*%
%ADD13C,8.000000*%
%TD*%
%TA.AperFunction,ViaPad*%
%ADD14C,0.600000*%
%TD*%
%TA.AperFunction,Conductor*%
%ADD15C,0.200000*%
%TD*%
G04 APERTURE END LIST*
D10*
%TO.P,J6,1,3V3*%
%TO.N,+3V3*%
X169960000Y-63980000D03*
D11*
%TO.P,J6,2,5V*%
%TO.N,+5V*%
X172500000Y-63980000D03*
%TO.P,J6,3,SDA_I2C1/GPIO02*%
%TO.N,IIC1_SDA*%
X169960000Y-66520000D03*
%TO.P,J6,4,5V*%
%TO.N,+5V*%
X172500000Y-66520000D03*
%TO.P,J6,5,SCL_I2C1/GPIO03*%
%TO.N,IIC1_SCL*%
X169960000Y-69060000D03*
%TO.P,J6,6,GND*%
%TO.N,GND*%
X172500000Y-69060000D03*
%TO.P,J6,7,GPCLK0/GPIO04*%
%TO.N,IIC3_SDA*%
X169960000Y-71600000D03*
%TO.P,J6,8,GPIO14/UART_TXD*%
%TO.N,UART0_TXD*%
X172500000Y-71600000D03*
%TO.P,J6,9,GND*%
%TO.N,GND*%
X169960000Y-74140000D03*
%TO.P,J6,10,GPIO15/UART_RXD*%
%TO.N,UART0_RXD*%
X172500000Y-74140000D03*
%TO.P,J6,11,GPIO17/SPI1_~{CE1}*%
%TO.N,DI2*%
X169960000Y-76680000D03*
%TO.P,J6,12,GPIO18/SPI1_~{CE0}/PCM_CLK/PWM0*%
%TO.N,PCM_CLK*%
X172500000Y-76680000D03*
%TO.P,J6,13,GPIO27/SDIO_DAT3*%
%TO.N,TP_INT*%
X169960000Y-79220000D03*
%TO.P,J6,14,GND*%
%TO.N,GND*%
X172500000Y-79220000D03*
%TO.P,J6,15,GPIO22/SDIO_CLK*%
%TO.N,DI3*%
X169960000Y-81760000D03*
%TO.P,J6,16,GPIO23/SDIO_CMD*%
%TO.N,DI4*%
X172500000Y-81760000D03*
%TO.P,J6,17,3V3*%
%TO.N,+3V3*%
X169960000Y-84300000D03*
%TO.P,J6,18,GPIO24/SDIO_DAT0*%
%TO.N,DO1*%
X172500000Y-84300000D03*
%TO.P,J6,19,MOSI_SPI0/GPIO10*%
%TO.N,SPI0_MOSI*%
X169960000Y-86840000D03*
%TO.P,J6,20,GND*%
%TO.N,GND*%
X172500000Y-86840000D03*
%TO.P,J6,21,MISO_SPI0/GPIO09*%
%TO.N,SPI0_MISO*%
X169960000Y-89380000D03*
%TO.P,J6,22,GPIO25/SDIO_DAT1*%
%TO.N,DO2*%
X172500000Y-89380000D03*
%TO.P,J6,23,SCLK_SPI0/GPIO11*%
%TO.N,SPI0_SCLK*%
X169960000Y-91920000D03*
%TO.P,J6,24,~{CE0}_SPI0/GPIO08*%
%TO.N,SPI0_CE0*%
X172500000Y-91920000D03*
%TO.P,J6,25,GND*%
%TO.N,GND*%
X169960000Y-94460000D03*
%TO.P,J6,26,~{CE1}_SPI0/GPIO07*%
%TO.N,SPI0_CE1*%
X172500000Y-94460000D03*
%TO.P,J6,27,ID_SD_I2C0/GPIO00*%
%TO.N,ID_SD*%
X169960000Y-97000000D03*
%TO.P,J6,28,ID_SC_I2C0/GPIO01*%
%TO.N,ID_SC*%
X172500000Y-97000000D03*
%TO.P,J6,29,GPCLK1/GPIO05*%
%TO.N,IIC3_SCL*%
X169960000Y-99540000D03*
%TO.P,J6,30,GND*%
%TO.N,GND*%
X172500000Y-99540000D03*
%TO.P,J6,31,GPCLK2/GPIO06*%
%TO.N,DO4*%
X169960000Y-102080000D03*
%TO.P,J6,32,GPIO12/PWM0*%
%TO.N,CAN_INT*%
X172500000Y-102080000D03*
%TO.P,J6,33,GPIO13/PWM1*%
%TO.N,LCD_PWM*%
X169960000Y-104620000D03*
%TO.P,J6,34,GND*%
%TO.N,GND*%
X172500000Y-104620000D03*
%TO.P,J6,35,GPIO19/SPI1_MISO/PCM_FS*%
%TO.N,PCM_FS*%
X169960000Y-107160000D03*
%TO.P,J6,36,GPIO16/SPI1_~{CE2}*%
%TO.N,DI1*%
X172500000Y-107160000D03*
%TO.P,J6,37,GPIO26/SDIO_DAT2*%
%TO.N,DO3*%
X169960000Y-109700000D03*
%TO.P,J6,38,GPIO20/SPI1_MOSI/PCM_DIN/PWM1*%
%TO.N,PCM_DIN*%
X172500000Y-109700000D03*
%TO.P,J6,39,GND*%
%TO.N,GND*%
X169960000Y-112240000D03*
%TO.P,J6,40,GPIO21/SPI1_SCLK/PCM_DOUT*%
%TO.N,PCM_DOUT*%
X172500000Y-112240000D03*
%TD*%
D12*
%TO.P,J4,1,1*%
%TO.N,GND*%
X132735000Y-105546400D03*
%TO.P,J4,2,2*%
%TO.N,+5V*%
X135275003Y-110546400D03*
%TO.P,J4,3,3*%
%TO.N,SPI0_CE0*%
X137815003Y-105546400D03*
%TO.P,J4,4,4*%
%TO.N,+3V3*%
X140355003Y-110546400D03*
%TO.P,J4,5,5*%
%TO.N,SPI0_CE1*%
X142895003Y-105546400D03*
%TO.P,J4,6,6*%
%TO.N,SPI0_MISO*%
X145435003Y-110546400D03*
%TO.P,J4,7,7*%
%TO.N,TP_INT*%
X147975003Y-105546400D03*
%TO.P,J4,8,8*%
%TO.N,SPI0_MOSI*%
X150515003Y-110546400D03*
%TO.P,J4,9,9*%
%TO.N,LCD_PWM*%
X153055003Y-105546400D03*
%TO.P,J4,10,10*%
%TO.N,SPI0_SCLK*%
X155595003Y-110546400D03*
%TD*%
%TO.P,J3,1,1*%
%TO.N,GND*%
X132735000Y-91886000D03*
%TO.P,J3,2,2*%
%TO.N,+5V*%
X135275003Y-96886000D03*
%TO.P,J3,3,3*%
%TO.N,DI1*%
X137815003Y-91886000D03*
%TO.P,J3,4,4*%
%TO.N,+3V3*%
X140355003Y-96886000D03*
%TO.P,J3,5,5*%
%TO.N,DI2*%
X142895003Y-91886000D03*
%TO.P,J3,6,6*%
%TO.N,CAN_INT*%
X145435003Y-96886000D03*
%TO.P,J3,7,7*%
%TO.N,DI3*%
X147975003Y-91886000D03*
%TO.P,J3,8,8*%
%TO.N,UART0_RXD*%
X150515003Y-96886000D03*
%TO.P,J3,9,9*%
%TO.N,DI4*%
X153055003Y-91886000D03*
%TO.P,J3,10,10*%
%TO.N,UART0_TXD*%
X155595003Y-96886000D03*
%TD*%
%TO.P,J2,1,1*%
%TO.N,GND*%
X132735000Y-78225600D03*
%TO.P,J2,2,2*%
%TO.N,+3V3*%
X135275003Y-83225600D03*
%TO.P,J2,3,3*%
%TO.N,DO1*%
X137815003Y-78225600D03*
%TO.P,J2,4,4*%
%TO.N,PCM_CLK*%
X140355003Y-83225600D03*
%TO.P,J2,5,5*%
%TO.N,DO2*%
X142895003Y-78225600D03*
%TO.P,J2,6,6*%
%TO.N,PCM_FS*%
X145435003Y-83225600D03*
%TO.P,J2,7,7*%
%TO.N,DO3*%
X147975003Y-78225600D03*
%TO.P,J2,8,8*%
%TO.N,PCM_DIN*%
X150515003Y-83225600D03*
%TO.P,J2,9,9*%
%TO.N,DO4*%
X153055003Y-78225600D03*
%TO.P,J2,10,10*%
%TO.N,PCM_DOUT*%
X155595003Y-83225600D03*
%TD*%
%TO.P,J1,1,1*%
%TO.N,GND*%
X132735000Y-64565200D03*
%TO.P,J1,2,2*%
%TO.N,+5V*%
X135275003Y-69565200D03*
%TO.P,J1,3,3*%
%TO.N,IIC1_SCL*%
X137815003Y-64565200D03*
%TO.P,J1,4,4*%
%TO.N,+3V3*%
X140355003Y-69565200D03*
%TO.P,J1,5,5*%
%TO.N,IIC3_SCL*%
X142895003Y-64565200D03*
%TO.P,J1,6,6*%
%TO.N,GND*%
X145435003Y-69565200D03*
%TO.P,J1,7,7*%
%TO.N,ID_SC*%
X147975003Y-64565200D03*
%TO.P,J1,8,8*%
%TO.N,IIC1_SDA*%
X150515003Y-69565200D03*
%TO.P,J1,9,9*%
%TO.N,ID_SD*%
X153055003Y-64565200D03*
%TO.P,J1,10,10*%
%TO.N,IIC3_SDA*%
X155595003Y-69565200D03*
%TD*%
D13*
%TO.N,*%
X163011600Y-89001700D03*
D14*
%TO.N,SPI0_CE0*%
X139866000Y-93536200D03*
%TO.N,SPI0_SCLK*%
X167565200Y-95896200D03*
X156757200Y-98200500D03*
%TO.N,SPI0_CE1*%
X145405500Y-98396300D03*
%TO.N,TP_INT*%
X166425400Y-79927800D03*
X165873000Y-104161800D03*
%TO.N,SPI0_MISO*%
X144800100Y-93392000D03*
%TO.N,SPI0_MOSI*%
X168098200Y-106962100D03*
%TO.N,UART0_TXD*%
X173851100Y-90779200D03*
%TO.N,DI4*%
X154016100Y-93772600D03*
%TO.N,UART0_RXD*%
X152448100Y-80056900D03*
%TO.N,DI2*%
X142741700Y-80104200D03*
%TO.N,PCM_FS*%
X154898500Y-106339400D03*
%TO.N,PCM_DOUT*%
X157013800Y-110408500D03*
%TO.N,DO3*%
X156957200Y-79095700D03*
%TO.N,DO4*%
X155408500Y-101508500D03*
%TO.N,PCM_CLK*%
X143425100Y-76068800D03*
%TO.N,PCM_DIN*%
X154075400Y-108979800D03*
%TO.N,ID_SD*%
X152409500Y-95636600D03*
%TO.N,IIC1_SDA*%
X151500700Y-67166500D03*
%TO.N,IIC3_SCL*%
X148304400Y-95737000D03*
%TO.N,ID_SC*%
X171416800Y-65063200D03*
%TD*%
D15*
%TO.N,+5V*%
X167333400Y-68320600D02*
X169282900Y-70270100D01*
X170438300Y-70270100D02*
X171230000Y-69478400D01*
X135275000Y-69565200D02*
X136519600Y-68320600D01*
X136519600Y-68320600D02*
X167333400Y-68320600D01*
X171230000Y-69478400D02*
X171230000Y-67790000D01*
X169282900Y-70270100D02*
X170438300Y-70270100D01*
X171230000Y-67790000D02*
X172500000Y-66520000D01*
%TO.N,DI4*%
X170378400Y-90650000D02*
X171348300Y-89680100D01*
%TO.N,SPI0_CE0*%
X140704200Y-94374400D02*
X139866000Y-93536200D01*
X165812300Y-94374400D02*
X140704200Y-94374400D01*
X166996700Y-93190000D02*
X165812300Y-94374400D01*
X171230000Y-93190000D02*
X166996700Y-93190000D01*
X172500000Y-91920000D02*
X171230000Y-93190000D01*
%TO.N,SPI0_SCLK*%
X165260900Y-98200500D02*
X156757200Y-98200500D01*
X167565200Y-95896200D02*
X165260900Y-98200500D01*
%TO.N,SPI0_CE1*%
X166822200Y-94869200D02*
X166763300Y-94928100D01*
X168477800Y-94869200D02*
X166822200Y-94869200D01*
X169222300Y-95613700D02*
X168477800Y-94869200D01*
X171346300Y-95613700D02*
X169222300Y-95613700D01*
X172500000Y-94460000D02*
X171346300Y-95613700D01*
X166763300Y-94928100D02*
X166598500Y-95092900D01*
X145175400Y-98396300D02*
X145405500Y-98396300D01*
X144233300Y-97454200D02*
X145175400Y-98396300D01*
X144233300Y-96388100D02*
X144233300Y-97454200D01*
X145586500Y-95034900D02*
X144233300Y-96388100D01*
X166540500Y-95034900D02*
X145586500Y-95034900D01*
X166598500Y-95092900D02*
X166540500Y-95034900D01*
%TO.N,TP_INT*%
X167133200Y-79220000D02*
X166425400Y-79927800D01*
X169960000Y-79220000D02*
X167133200Y-79220000D01*
X149359600Y-104161800D02*
X165873000Y-104161800D01*
X147975000Y-105546400D02*
X149359600Y-104161800D01*
%TO.N,SPI0_MISO*%
X145021200Y-93170900D02*
X144800100Y-93392000D01*
X155362800Y-93170900D02*
X145021200Y-93170900D01*
X155493600Y-93301700D02*
X155362800Y-93170900D01*
X165326700Y-93301700D02*
X155493600Y-93301700D01*
X169248400Y-89380000D02*
X165326700Y-93301700D01*
%TO.N,SPI0_MOSI*%
X168098200Y-106962200D02*
X168098200Y-106962100D01*
X154099200Y-106962200D02*
X168098200Y-106962200D01*
X150515000Y-110546400D02*
X154099200Y-106962200D01*
%TO.N,LCD_PWM*%
X169033600Y-105546400D02*
X169960000Y-104620000D01*
X153055000Y-105546400D02*
X169033600Y-105546400D01*
%TO.N,UART0_TXD*%
X173851100Y-94749600D02*
X173851100Y-90779200D01*
X172870700Y-95730000D02*
X173851100Y-94749600D01*
X172091300Y-95730000D02*
X172870700Y-95730000D01*
X171348300Y-96473000D02*
X172091300Y-95730000D01*
X171348300Y-97300100D02*
X171348300Y-96473000D01*
X170378400Y-98270000D02*
X171348300Y-97300100D01*
X167480200Y-98270000D02*
X170378400Y-98270000D01*
X166923000Y-98827200D02*
X167480200Y-98270000D01*
X156410300Y-98827200D02*
X166923000Y-98827200D01*
X155595000Y-98011900D02*
X156410300Y-98827200D01*
X155595000Y-96886000D02*
X155595000Y-98011900D01*
%TO.N,DI1*%
X171230000Y-105890000D02*
X172500000Y-107160000D01*
X171230000Y-104201600D02*
X171230000Y-105890000D01*
X170378400Y-103350000D02*
X171230000Y-104201600D01*
X148826900Y-103350000D02*
X170378400Y-103350000D01*
X137815000Y-92338100D02*
X148826900Y-103350000D01*
%TO.N,DI4*%
X174082200Y-83342200D02*
X172500000Y-81760000D01*
X174082200Y-86935400D02*
X174082200Y-83342200D01*
X173025900Y-87991700D02*
X174082200Y-86935400D01*
X172167200Y-87991700D02*
X173025900Y-87991700D01*
X171348300Y-88810600D02*
X172167200Y-87991700D01*
X171348300Y-89680100D02*
X171348300Y-88810600D01*
X168873700Y-90650000D02*
X170378400Y-90650000D01*
X165751100Y-93772600D02*
X168873700Y-90650000D01*
X154016100Y-93772600D02*
X165751100Y-93772600D01*
%TO.N,UART0_RXD*%
X156900800Y-80056900D02*
X152448100Y-80056900D01*
X159126000Y-77831700D02*
X156900800Y-80056900D01*
X173055700Y-77831700D02*
X159126000Y-77831700D01*
X173658700Y-77228700D02*
X173055700Y-77831700D01*
X173658700Y-75298700D02*
X173658700Y-77228700D01*
X172500000Y-74140000D02*
X173658700Y-75298700D01*
%TO.N,DI2*%
X141693300Y-79055800D02*
X142741700Y-80104200D01*
X141693300Y-77671700D02*
X141693300Y-79055800D01*
X142685000Y-76680000D02*
X141693300Y-77671700D01*
X169960000Y-76680000D02*
X142685000Y-76680000D01*
%TO.N,CAN_INT*%
X149359000Y-100810000D02*
X145435000Y-96886000D01*
X171230000Y-100810000D02*
X149359000Y-100810000D01*
X172500000Y-102080000D02*
X171230000Y-100810000D01*
%TO.N,DI3*%
X171739500Y-82911700D02*
X170587800Y-81760000D01*
X172746800Y-82911700D02*
X171739500Y-82911700D01*
X173672400Y-83837300D02*
X172746800Y-82911700D01*
X173672400Y-84828800D02*
X173672400Y-83837300D01*
X173022700Y-85478500D02*
X173672400Y-84828800D01*
X165963100Y-85478500D02*
X173022700Y-85478500D01*
X165134700Y-84650100D02*
X165963100Y-85478500D01*
X155210900Y-84650100D02*
X165134700Y-84650100D01*
X147975000Y-91886000D02*
X155210900Y-84650100D01*
%TO.N,DO1*%
X171231500Y-83031500D02*
X172500000Y-84300000D01*
X159908800Y-83031500D02*
X171231500Y-83031500D01*
X157937600Y-81060300D02*
X159908800Y-83031500D01*
X140649700Y-81060300D02*
X157937600Y-81060300D01*
X137815000Y-78225600D02*
X140649700Y-81060300D01*
%TO.N,PCM_FS*%
X169139400Y-106339400D02*
X169960000Y-107160000D01*
X154898500Y-106339400D02*
X169139400Y-106339400D01*
%TO.N,PCM_DOUT*%
X157575300Y-110970000D02*
X157013800Y-110408500D01*
X171230000Y-110970000D02*
X157575300Y-110970000D01*
X172500000Y-112240000D02*
X171230000Y-110970000D01*
%TO.N,DO2*%
X174533900Y-83183500D02*
X174298500Y-82948100D01*
X174533900Y-87346100D02*
X174533900Y-83183500D01*
X172500000Y-89380000D02*
X174533900Y-87346100D01*
X174298500Y-82948100D02*
X174133700Y-82783300D01*
X174133700Y-81724800D02*
X174133700Y-82783300D01*
X172968000Y-80559100D02*
X174133700Y-81724800D01*
X152796800Y-80559100D02*
X172968000Y-80559100D01*
X152697300Y-80658600D02*
X152796800Y-80559100D01*
X145328000Y-80658600D02*
X152697300Y-80658600D01*
X142895000Y-78225600D02*
X145328000Y-80658600D01*
%TO.N,DO3*%
X156625600Y-79427300D02*
X156957200Y-79095700D01*
X149176700Y-79427300D02*
X156625600Y-79427300D01*
X147975000Y-78225600D02*
X149176700Y-79427300D01*
%TO.N,DO4*%
X155980000Y-102080000D02*
X169960000Y-102080000D01*
X155408500Y-101508500D02*
X155980000Y-102080000D01*
%TO.N,PCM_CLK*%
X171312300Y-75492300D02*
X172500000Y-76680000D01*
X144001600Y-75492300D02*
X171312300Y-75492300D01*
X143425100Y-76068800D02*
X144001600Y-75492300D01*
%TO.N,PCM_DIN*%
X171307600Y-108507600D02*
X172500000Y-109700000D01*
X154547600Y-108507600D02*
X171307600Y-108507600D01*
X154075400Y-108979800D02*
X154547600Y-108507600D01*
%TO.N,+3V3*%
X136546300Y-81954300D02*
X135275000Y-83225600D01*
X158163700Y-81954300D02*
X136546300Y-81954300D01*
X160107800Y-83898400D02*
X158163700Y-81954300D01*
X169558400Y-83898400D02*
X160107800Y-83898400D01*
%TO.N,ID_SD*%
X166823000Y-95636600D02*
X152409500Y-95636600D01*
X167165100Y-95294500D02*
X166823000Y-95636600D01*
X168254500Y-95294500D02*
X167165100Y-95294500D01*
X169960000Y-97000000D02*
X168254500Y-95294500D01*
%TO.N,IIC1_SDA*%
X152147200Y-66520000D02*
X151500700Y-67166500D01*
X169960000Y-66520000D02*
X152147200Y-66520000D01*
%TO.N,IIC3_SDA*%
X167925200Y-69565200D02*
X169960000Y-71600000D01*
X155595000Y-69565200D02*
X167925200Y-69565200D01*
%TO.N,GND*%
X145435000Y-69565200D02*
X145435000Y-74140000D01*
X169960000Y-74140000D02*
X145435000Y-74140000D01*
X136820600Y-74140000D02*
X132735000Y-78225600D01*
X145435000Y-74140000D02*
X136820600Y-74140000D01*
%TO.N,IIC3_SCL*%
X148304400Y-96374800D02*
X148304400Y-95737000D01*
X151469600Y-99540000D02*
X148304400Y-96374800D01*
X169960000Y-99540000D02*
X151469600Y-99540000D01*
%TO.N,ID_SC*%
X149176700Y-65766900D02*
X147975000Y-64565200D01*
X156647800Y-65766900D02*
X149176700Y-65766900D01*
X157223900Y-65190800D02*
X156647800Y-65766900D01*
X171289200Y-65190800D02*
X157223900Y-65190800D01*
X171416800Y-65063200D02*
X171289200Y-65190800D01*
%TO.N,IIC1_SCL*%
X168668200Y-67768200D02*
X169960000Y-69060000D01*
X141018000Y-67768200D02*
X168668200Y-67768200D01*
X137815000Y-64565200D02*
X141018000Y-67768200D01*
%TD*%
%TA.AperFunction,Conductor*%
%TO.N,GND*%
G36*
X171193902Y-93810185D02*
G01*
X171239657Y-93862989D01*
X171249601Y-93932147D01*
X171244794Y-93952818D01*
X171182753Y-94143759D01*
X171149500Y-94353713D01*
X171149500Y-94566286D01*
X171182754Y-94776244D01*
X171182754Y-94776247D01*
X171196491Y-94818523D01*
X171196925Y-94833734D01*
X171202244Y-94847993D01*
X171197902Y-94867950D01*
X171198486Y-94888364D01*
X171190398Y-94902450D01*
X171187393Y-94916266D01*
X171166243Y-94944521D01*
X171133885Y-94976880D01*
X171072562Y-95010366D01*
X171046202Y-95013200D01*
X169522397Y-95013200D01*
X169455358Y-94993515D01*
X169434716Y-94976881D01*
X168965390Y-94507555D01*
X168965388Y-94507552D01*
X168846517Y-94388681D01*
X168846516Y-94388680D01*
X168748649Y-94332177D01*
X168748648Y-94332176D01*
X168709583Y-94309622D01*
X168653681Y-94294643D01*
X168556857Y-94268699D01*
X168398743Y-94268699D01*
X168391147Y-94268699D01*
X168391131Y-94268700D01*
X167066597Y-94268700D01*
X166999558Y-94249015D01*
X166953803Y-94196211D01*
X166943859Y-94127053D01*
X166972884Y-94063497D01*
X166978916Y-94057019D01*
X167083118Y-93952818D01*
X167209117Y-93826819D01*
X167270440Y-93793334D01*
X167296798Y-93790500D01*
X171126863Y-93790500D01*
X171193902Y-93810185D01*
G37*
%TD.AperFunction*%
%TA.AperFunction,Conductor*%
G36*
X173429622Y-86020655D02*
G01*
X173472815Y-86075574D01*
X173481700Y-86121666D01*
X173481700Y-86635302D01*
X173462015Y-86702341D01*
X173445381Y-86722983D01*
X172813484Y-87354881D01*
X172752161Y-87388366D01*
X172725803Y-87391200D01*
X172088140Y-87391200D01*
X172047219Y-87402164D01*
X172047219Y-87402165D01*
X172009951Y-87412151D01*
X171935414Y-87432123D01*
X171935409Y-87432126D01*
X171798490Y-87511175D01*
X171798482Y-87511181D01*
X171686678Y-87622986D01*
X170984168Y-88325495D01*
X170954979Y-88341433D01*
X170926241Y-88358191D01*
X170924433Y-88358112D01*
X170922845Y-88358980D01*
X170889660Y-88356606D01*
X170856436Y-88355168D01*
X170854340Y-88354080D01*
X170853153Y-88353996D01*
X170824996Y-88339131D01*
X170824271Y-88338619D01*
X170667816Y-88224949D01*
X170651124Y-88216444D01*
X170643858Y-88211317D01*
X170627449Y-88190636D01*
X170608259Y-88172512D01*
X170606075Y-88163696D01*
X170600431Y-88156582D01*
X170597808Y-88130314D01*
X170591463Y-88104692D01*
X170594392Y-88096095D01*
X170593490Y-88087058D01*
X170605484Y-88063543D01*
X170613999Y-88038556D01*
X170621582Y-88031985D01*
X170625238Y-88024818D01*
X170639350Y-88016588D01*
X170659054Y-87999515D01*
X170667816Y-87995051D01*
X170689789Y-87979086D01*
X170839786Y-87870109D01*
X170839788Y-87870106D01*
X170839792Y-87870104D01*
X170990104Y-87719792D01*
X170990106Y-87719788D01*
X170990109Y-87719786D01*
X171115048Y-87547820D01*
X171115047Y-87547820D01*
X171115051Y-87547816D01*
X171211557Y-87358412D01*
X171277246Y-87156243D01*
X171310500Y-86946287D01*
X171310500Y-86733713D01*
X171277246Y-86523757D01*
X171211557Y-86321588D01*
X171179816Y-86259294D01*
X171166921Y-86190626D01*
X171193197Y-86125886D01*
X171250303Y-86085628D01*
X171290302Y-86079000D01*
X172936031Y-86079000D01*
X172936047Y-86079001D01*
X172943643Y-86079001D01*
X173101754Y-86079001D01*
X173101757Y-86079001D01*
X173254485Y-86038077D01*
X173295697Y-86014281D01*
X173363594Y-85997806D01*
X173429622Y-86020655D01*
G37*
%TD.AperFunction*%
%TA.AperFunction,Conductor*%
G36*
X175006922Y-61501280D02*
G01*
X175097266Y-61511459D01*
X175124331Y-61517636D01*
X175203540Y-61545352D01*
X175228553Y-61557398D01*
X175299606Y-61602043D01*
X175321313Y-61619355D01*
X175380644Y-61678686D01*
X175397957Y-61700395D01*
X175442600Y-61771444D01*
X175454648Y-61796462D01*
X175482362Y-61875666D01*
X175488540Y-61902735D01*
X175498720Y-61993076D01*
X175499500Y-62006961D01*
X175499500Y-115493038D01*
X175498720Y-115506922D01*
X175498720Y-115506923D01*
X175488540Y-115597264D01*
X175482362Y-115624333D01*
X175454648Y-115703537D01*
X175442600Y-115728555D01*
X175397957Y-115799604D01*
X175380644Y-115821313D01*
X175321313Y-115880644D01*
X175299604Y-115897957D01*
X175228555Y-115942600D01*
X175203537Y-115954648D01*
X175124333Y-115982362D01*
X175097264Y-115988540D01*
X175017075Y-115997576D01*
X175006921Y-115998720D01*
X174993038Y-115999500D01*
X128006962Y-115999500D01*
X127993078Y-115998720D01*
X127980553Y-115997308D01*
X127902735Y-115988540D01*
X127875666Y-115982362D01*
X127796462Y-115954648D01*
X127771444Y-115942600D01*
X127700395Y-115897957D01*
X127678686Y-115880644D01*
X127619355Y-115821313D01*
X127602042Y-115799604D01*
X127557399Y-115728555D01*
X127545351Y-115703537D01*
X127517637Y-115624333D01*
X127511459Y-115597263D01*
X127501280Y-115506922D01*
X127500500Y-115493038D01*
X127500500Y-110656619D01*
X133874502Y-110656619D01*
X133908988Y-110874352D01*
X133977106Y-111084003D01*
X133977107Y-111084006D01*
X134031064Y-111189900D01*
X134063650Y-111253853D01*
X134077190Y-111280425D01*
X134206755Y-111458758D01*
X134206759Y-111458763D01*
X134362639Y-111614643D01*
X134362644Y-111614647D01*
X134509833Y-111721585D01*
X134540981Y-111744215D01*
X134668536Y-111809208D01*
X134737396Y-111844295D01*
X134737399Y-111844296D01*
X134842224Y-111878355D01*
X134947052Y-111912415D01*
X135164781Y-111946900D01*
X135164782Y-111946900D01*
X135385224Y-111946900D01*
X135385225Y-111946900D01*
X135602954Y-111912415D01*
X135812609Y-111844295D01*
X136009025Y-111744215D01*
X136187368Y-111614642D01*
X136343245Y-111458765D01*
X136472818Y-111280422D01*
X136572898Y-111084006D01*
X136641018Y-110874351D01*
X136675503Y-110656622D01*
X136675503Y-110656619D01*
X138954502Y-110656619D01*
X138988988Y-110874352D01*
X139057106Y-111084003D01*
X139057107Y-111084006D01*
X139111064Y-111189900D01*
X139143650Y-111253853D01*
X139157190Y-111280425D01*
X139286755Y-111458758D01*
X139286759Y-111458763D01*
X139442639Y-111614643D01*
X139442644Y-111614647D01*
X139589833Y-111721585D01*
X139620981Y-111744215D01*
X139748536Y-111809208D01*
X139817396Y-111844295D01*
X139817399Y-111844296D01*
X139922224Y-111878355D01*
X140027052Y-111912415D01*
X140244781Y-111946900D01*
X140244782Y-111946900D01*
X140465224Y-111946900D01*
X140465225Y-111946900D01*
X140682954Y-111912415D01*
X140892609Y-111844295D01*
X141089025Y-111744215D01*
X141267368Y-111614642D01*
X141423245Y-111458765D01*
X141552818Y-111280422D01*
X141652898Y-111084006D01*
X141721018Y-110874351D01*
X141755503Y-110656622D01*
X141755503Y-110656619D01*
X144034502Y-110656619D01*
X144068988Y-110874352D01*
X144137106Y-111084003D01*
X144137107Y-111084006D01*
X144191064Y-111189900D01*
X144223650Y-111253853D01*
X144237190Y-111280425D01*
X144366755Y-111458758D01*
X144366759Y-111458763D01*
X144522639Y-111614643D01*
X144522644Y-111614647D01*
X144669833Y-111721585D01*
X144700981Y-111744215D01*
X144828536Y-111809208D01*
X144897396Y-111844295D01*
X144897399Y-111844296D01*
X145002224Y-111878355D01*
X145107052Y-111912415D01*
X145324781Y-111946900D01*
X145324782Y-111946900D01*
X145545224Y-111946900D01*
X145545225Y-111946900D01*
X145762954Y-111912415D01*
X145972609Y-111844295D01*
X146169025Y-111744215D01*
X146347368Y-111614642D01*
X146503245Y-111458765D01*
X146632818Y-111280422D01*
X146732898Y-111084006D01*
X146801018Y-110874351D01*
X146835503Y-110656622D01*
X146835503Y-110436178D01*
X146801018Y-110218449D01*
X146766958Y-110113621D01*
X146732899Y-110008796D01*
X146732898Y-110008793D01*
X146698240Y-109940775D01*
X146632818Y-109812378D01*
X146604051Y-109772783D01*
X146503250Y-109634041D01*
X146503246Y-109634036D01*
X146347366Y-109478156D01*
X146347361Y-109478152D01*
X146169028Y-109348587D01*
X146169027Y-109348586D01*
X146169025Y-109348585D01*
X146106099Y-109316522D01*
X145972609Y-109248504D01*
X145972606Y-109248503D01*
X145762955Y-109180385D01*
X145638384Y-109160655D01*
X145545225Y-109145900D01*
X145324781Y-109145900D01*
X145252204Y-109157395D01*
X145107050Y-109180385D01*
X144897399Y-109248503D01*
X144897396Y-109248504D01*
X144700977Y-109348587D01*
X144522644Y-109478152D01*
X144522639Y-109478156D01*
X144366759Y-109634036D01*
X144366755Y-109634041D01*
X144237190Y-109812374D01*
X144137107Y-110008793D01*
X144137106Y-110008796D01*
X144068988Y-110218447D01*
X144034503Y-110436178D01*
X144034503Y-110656619D01*
X144034502Y-110656619D01*
X141755503Y-110656619D01*
X141755503Y-110436178D01*
X141721018Y-110218449D01*
X141686958Y-110113621D01*
X141652899Y-110008796D01*
X141652898Y-110008793D01*
X141618240Y-109940775D01*
X141552818Y-109812378D01*
X141524051Y-109772783D01*
X141423250Y-109634041D01*
X141423246Y-109634036D01*
X141267366Y-109478156D01*
X141267361Y-109478152D01*
X141089028Y-109348587D01*
X141089027Y-109348586D01*
X141089025Y-109348585D01*
X141026099Y-109316522D01*
X140892609Y-109248504D01*
X140892606Y-109248503D01*
X140682955Y-109180385D01*
X140558384Y-109160655D01*
X140465225Y-109145900D01*
X140244781Y-109145900D01*
X140172204Y-109157395D01*
X140027050Y-109180385D01*
X139817399Y-109248503D01*
X139817396Y-109248504D01*
X139620977Y-109348587D01*
X139442644Y-109478152D01*
X139442639Y-109478156D01*
X139286759Y-109634036D01*
X139286755Y-109634041D01*
X139157190Y-109812374D01*
X139057107Y-110008793D01*
X139057106Y-110008796D01*
X138988988Y-110218447D01*
X138954503Y-110436178D01*
X138954503Y-110656619D01*
X138954502Y-110656619D01*
X136675503Y-110656619D01*
X136675503Y-110436178D01*
X136641018Y-110218449D01*
X136606958Y-110113621D01*
X136572899Y-110008796D01*
X136572898Y-110008793D01*
X136538240Y-109940775D01*
X136472818Y-109812378D01*
X136444051Y-109772783D01*
X136343250Y-109634041D01*
X136343246Y-109634036D01*
X136187366Y-109478156D01*
X136187361Y-109478152D01*
X136009028Y-109348587D01*
X136009027Y-109348586D01*
X136009025Y-109348585D01*
X135946099Y-109316522D01*
X135812609Y-109248504D01*
X135812606Y-109248503D01*
X135602955Y-109180385D01*
X135478384Y-109160655D01*
X135385225Y-109145900D01*
X135164781Y-109145900D01*
X135092204Y-109157395D01*
X134947050Y-109180385D01*
X134737399Y-109248503D01*
X134737396Y-109248504D01*
X134540977Y-109348587D01*
X134362644Y-109478152D01*
X134362639Y-109478156D01*
X134206759Y-109634036D01*
X134206755Y-109634041D01*
X134077190Y-109812374D01*
X133977107Y-110008793D01*
X133977106Y-110008796D01*
X133908988Y-110218447D01*
X133874503Y-110436178D01*
X133874503Y-110656619D01*
X133874502Y-110656619D01*
X127500500Y-110656619D01*
X127500500Y-105436218D01*
X131335000Y-105436218D01*
X131335000Y-105656581D01*
X131369473Y-105874235D01*
X131437567Y-106083810D01*
X131537611Y-106280156D01*
X131583932Y-106343913D01*
X132211212Y-105716633D01*
X132222482Y-105758692D01*
X132294890Y-105884108D01*
X132397292Y-105986510D01*
X132522708Y-106058918D01*
X132564765Y-106070187D01*
X131937485Y-106697465D01*
X131937485Y-106697466D01*
X132001243Y-106743788D01*
X132197589Y-106843832D01*
X132407164Y-106911926D01*
X132624819Y-106946400D01*
X132845181Y-106946400D01*
X133062835Y-106911926D01*
X133272410Y-106843832D01*
X133468760Y-106743786D01*
X133532513Y-106697466D01*
X133532514Y-106697466D01*
X132905234Y-106070187D01*
X132947292Y-106058918D01*
X133072708Y-105986510D01*
X133175110Y-105884108D01*
X133247518Y-105758692D01*
X133258787Y-105716634D01*
X133886066Y-106343914D01*
X133886066Y-106343913D01*
X133932386Y-106280160D01*
X134032432Y-106083810D01*
X134100526Y-105874235D01*
X134135000Y-105656581D01*
X134135000Y-105436218D01*
X134134994Y-105436178D01*
X136414503Y-105436178D01*
X136414503Y-105656621D01*
X136448988Y-105874352D01*
X136517106Y-106084003D01*
X136517107Y-106084006D01*
X136540487Y-106129890D01*
X136617052Y-106280156D01*
X136617190Y-106280425D01*
X136746755Y-106458758D01*
X136746759Y-106458763D01*
X136902639Y-106614643D01*
X136902644Y-106614647D01*
X136939726Y-106641588D01*
X137080981Y-106744215D01*
X137209378Y-106809637D01*
X137277396Y-106844295D01*
X137277399Y-106844296D01*
X137382224Y-106878355D01*
X137487052Y-106912415D01*
X137704781Y-106946900D01*
X137704782Y-106946900D01*
X137925224Y-106946900D01*
X137925225Y-106946900D01*
X138142954Y-106912415D01*
X138352609Y-106844295D01*
X138549025Y-106744215D01*
X138727368Y-106614642D01*
X138883245Y-106458765D01*
X139012818Y-106280422D01*
X139112898Y-106084006D01*
X139181018Y-105874351D01*
X139215503Y-105656622D01*
X139215503Y-105436178D01*
X141494503Y-105436178D01*
X141494503Y-105656621D01*
X141528988Y-105874352D01*
X141597106Y-106084003D01*
X141597107Y-106084006D01*
X141620487Y-106129890D01*
X141697052Y-106280156D01*
X141697190Y-106280425D01*
X141826755Y-106458758D01*
X141826759Y-106458763D01*
X141982639Y-106614643D01*
X141982644Y-106614647D01*
X142019726Y-106641588D01*
X142160981Y-106744215D01*
X142289378Y-106809637D01*
X142357396Y-106844295D01*
X142357399Y-106844296D01*
X142462224Y-106878355D01*
X142567052Y-106912415D01*
X142784781Y-106946900D01*
X142784782Y-106946900D01*
X143005224Y-106946900D01*
X143005225Y-106946900D01*
X143222954Y-106912415D01*
X143432609Y-106844295D01*
X143629025Y-106744215D01*
X143807368Y-106614642D01*
X143963245Y-106458765D01*
X144092818Y-106280422D01*
X144192898Y-106084006D01*
X144261018Y-105874351D01*
X144295503Y-105656622D01*
X144295503Y-105436178D01*
X144261018Y-105218449D01*
X144224576Y-105106290D01*
X144192899Y-105008796D01*
X144192898Y-105008793D01*
X144123093Y-104871796D01*
X144092818Y-104812378D01*
X144070736Y-104781985D01*
X143963250Y-104634041D01*
X143963246Y-104634036D01*
X143807366Y-104478156D01*
X143807361Y-104478152D01*
X143629028Y-104348587D01*
X143629027Y-104348586D01*
X143629025Y-104348585D01*
X143541046Y-104303757D01*
X143432609Y-104248504D01*
X143432606Y-104248503D01*
X143222955Y-104180385D01*
X143114089Y-104163142D01*
X143005225Y-104145900D01*
X142784781Y-104145900D01*
X142712204Y-104157395D01*
X142567050Y-104180385D01*
X142357399Y-104248503D01*
X142357396Y-104248504D01*
X142160977Y-104348587D01*
X141982644Y-104478152D01*
X141982639Y-104478156D01*
X141826759Y-104634036D01*
X141826755Y-104634041D01*
X141697190Y-104812374D01*
X141597107Y-105008793D01*
X141597106Y-105008796D01*
X141528988Y-105218447D01*
X141494503Y-105436178D01*
X139215503Y-105436178D01*
X139181018Y-105218449D01*
X139144576Y-105106290D01*
X139112899Y-105008796D01*
X139112898Y-105008793D01*
X139043093Y-104871796D01*
X139012818Y-104812378D01*
X138990736Y-104781985D01*
X138883250Y-104634041D01*
X138883246Y-104634036D01*
X138727366Y-104478156D01*
X138727361Y-104478152D01*
X138549028Y-104348587D01*
X138549027Y-104348586D01*
X138549025Y-104348585D01*
X138461046Y-104303757D01*
X138352609Y-104248504D01*
X138352606Y-104248503D01*
X138142955Y-104180385D01*
X138034089Y-104163142D01*
X137925225Y-104145900D01*
X137704781Y-104145900D01*
X137632204Y-104157395D01*
X137487050Y-104180385D01*
X137277399Y-104248503D01*
X137277396Y-104248504D01*
X137080977Y-104348587D01*
X136902644Y-104478152D01*
X136902639Y-104478156D01*
X136746759Y-104634036D01*
X136746755Y-104634041D01*
X136617190Y-104812374D01*
X136517107Y-105008793D01*
X136517106Y-105008796D01*
X136448988Y-105218447D01*
X136414503Y-105436178D01*
X134134994Y-105436178D01*
X134100526Y-105218564D01*
X134032432Y-105008989D01*
X133932388Y-104812643D01*
X133886066Y-104748885D01*
X133886065Y-104748885D01*
X133258787Y-105376164D01*
X133247518Y-105334108D01*
X133175110Y-105208692D01*
X133072708Y-105106290D01*
X132947292Y-105033882D01*
X132905232Y-105022612D01*
X133532513Y-104395332D01*
X133468756Y-104349011D01*
X133272410Y-104248967D01*
X133062835Y-104180873D01*
X132845181Y-104146400D01*
X132624819Y-104146400D01*
X132407164Y-104180873D01*
X132197589Y-104248967D01*
X132001233Y-104349016D01*
X131937485Y-104395331D01*
X131937485Y-104395332D01*
X132564765Y-105022612D01*
X132522708Y-105033882D01*
X132397292Y-105106290D01*
X132294890Y-105208692D01*
X132222482Y-105334108D01*
X132211212Y-105376165D01*
X131583932Y-104748885D01*
X131583931Y-104748885D01*
X131537616Y-104812633D01*
X131437567Y-105008989D01*
X131369473Y-105218564D01*
X131335000Y-105436218D01*
X127500500Y-105436218D01*
X127500500Y-96775778D01*
X133874503Y-96775778D01*
X133874503Y-96996221D01*
X133908988Y-97213952D01*
X133977106Y-97423603D01*
X133977107Y-97423606D01*
X134077190Y-97620025D01*
X134206755Y-97798358D01*
X134206759Y-97798363D01*
X134362639Y-97954243D01*
X134362644Y-97954247D01*
X134481697Y-98040743D01*
X134540981Y-98083815D01*
X134644869Y-98136749D01*
X134737396Y-98183895D01*
X134737399Y-98183896D01*
X134798970Y-98203901D01*
X134947052Y-98252015D01*
X135164781Y-98286500D01*
X135164782Y-98286500D01*
X135385224Y-98286500D01*
X135385225Y-98286500D01*
X135602954Y-98252015D01*
X135812609Y-98183895D01*
X136009025Y-98083815D01*
X136187368Y-97954242D01*
X136343245Y-97798365D01*
X136472818Y-97620022D01*
X136572898Y-97423606D01*
X136641018Y-97213951D01*
X136675503Y-96996222D01*
X136675503Y-96775778D01*
X136641018Y-96558049D01*
X136572898Y-96348394D01*
X136572898Y-96348393D01*
X136526220Y-96256785D01*
X136472818Y-96151978D01*
X136376486Y-96019387D01*
X136343250Y-95973641D01*
X136343246Y-95973636D01*
X136187366Y-95817756D01*
X136187361Y-95817752D01*
X136009028Y-95688187D01*
X136009027Y-95688186D01*
X136009025Y-95688185D01*
X135929452Y-95647640D01*
X135812609Y-95588104D01*
X135812606Y-95588103D01*
X135602955Y-95519985D01*
X135494089Y-95502742D01*
X135385225Y-95485500D01*
X135164781Y-95485500D01*
X135092204Y-95496995D01*
X134947050Y-95519985D01*
X134737399Y-95588103D01*
X134737396Y-95588104D01*
X134540977Y-95688187D01*
X134362644Y-95817752D01*
X134362639Y-95817756D01*
X134206759Y-95973636D01*
X134206755Y-95973641D01*
X134077190Y-96151974D01*
X133977107Y-96348393D01*
X133977106Y-96348396D01*
X133908988Y-96558047D01*
X133874503Y-96775778D01*
X127500500Y-96775778D01*
X127500500Y-91775818D01*
X131335000Y-91775818D01*
X131335000Y-91996181D01*
X131369473Y-92213835D01*
X131437567Y-92423410D01*
X131537611Y-92619756D01*
X131583932Y-92683513D01*
X132211212Y-92056233D01*
X132222482Y-92098292D01*
X132294890Y-92223708D01*
X132397292Y-92326110D01*
X132522708Y-92398518D01*
X132564765Y-92409787D01*
X131937485Y-93037065D01*
X131937485Y-93037066D01*
X132001243Y-93083388D01*
X132197589Y-93183432D01*
X132407164Y-93251526D01*
X132624819Y-93286000D01*
X132845181Y-93286000D01*
X133062835Y-93251526D01*
X133272410Y-93183432D01*
X133468760Y-93083386D01*
X133532513Y-93037066D01*
X133532514Y-93037066D01*
X132905234Y-92409787D01*
X132947292Y-92398518D01*
X133072708Y-92326110D01*
X133175110Y-92223708D01*
X133247518Y-92098292D01*
X133258787Y-92056234D01*
X133886066Y-92683514D01*
X133886066Y-92683513D01*
X133932386Y-92619760D01*
X134032432Y-92423410D01*
X134100526Y-92213835D01*
X134135000Y-91996181D01*
X134135000Y-91775818D01*
X134100526Y-91558164D01*
X134032432Y-91348589D01*
X133932388Y-91152243D01*
X133886066Y-91088485D01*
X133886065Y-91088485D01*
X133258787Y-91715764D01*
X133247518Y-91673708D01*
X133175110Y-91548292D01*
X133072708Y-91445890D01*
X132947292Y-91373482D01*
X132905232Y-91362212D01*
X133532513Y-90734932D01*
X133468756Y-90688611D01*
X133272410Y-90588567D01*
X133062835Y-90520473D01*
X132845181Y-90486000D01*
X132624819Y-90486000D01*
X132407164Y-90520473D01*
X132197589Y-90588567D01*
X132001233Y-90688616D01*
X131937485Y-90734931D01*
X131937485Y-90734932D01*
X132564765Y-91362212D01*
X132522708Y-91373482D01*
X132397292Y-91445890D01*
X132294890Y-91548292D01*
X132222482Y-91673708D01*
X132211212Y-91715765D01*
X131583932Y-91088485D01*
X131583931Y-91088485D01*
X131537616Y-91152233D01*
X131437567Y-91348589D01*
X131369473Y-91558164D01*
X131335000Y-91775818D01*
X127500500Y-91775818D01*
X127500500Y-78115418D01*
X131335000Y-78115418D01*
X131335000Y-78335781D01*
X131369473Y-78553435D01*
X131437567Y-78763010D01*
X131537611Y-78959356D01*
X131583932Y-79023113D01*
X132211212Y-78395833D01*
X132222482Y-78437892D01*
X132294890Y-78563308D01*
X132397292Y-78665710D01*
X132522708Y-78738118D01*
X132564765Y-78749387D01*
X131937485Y-79376665D01*
X131937485Y-79376666D01*
X132001243Y-79422988D01*
X132197589Y-79523032D01*
X132407164Y-79591126D01*
X132624819Y-79625600D01*
X132845181Y-79625600D01*
X133062835Y-79591126D01*
X133272410Y-79523032D01*
X133468760Y-79422986D01*
X133532513Y-79376666D01*
X133532514Y-79376666D01*
X132905234Y-78749387D01*
X132947292Y-78738118D01*
X133072708Y-78665710D01*
X133175110Y-78563308D01*
X133247518Y-78437892D01*
X133258787Y-78395834D01*
X133886066Y-79023114D01*
X133886066Y-79023113D01*
X133932386Y-78959360D01*
X134032432Y-78763010D01*
X134100526Y-78553435D01*
X134135000Y-78335781D01*
X134135000Y-78115418D01*
X134100526Y-77897764D01*
X134032432Y-77688189D01*
X133932388Y-77491843D01*
X133886066Y-77428085D01*
X133886065Y-77428085D01*
X133258787Y-78055364D01*
X133247518Y-78013308D01*
X133175110Y-77887892D01*
X133072708Y-77785490D01*
X132947292Y-77713082D01*
X132905232Y-77701812D01*
X133532513Y-77074532D01*
X133468756Y-77028211D01*
X133272410Y-76928167D01*
X133062835Y-76860073D01*
X132845181Y-76825600D01*
X132624819Y-76825600D01*
X132407164Y-76860073D01*
X132197589Y-76928167D01*
X132001233Y-77028216D01*
X131937485Y-77074531D01*
X131937485Y-77074532D01*
X132564765Y-77701812D01*
X132522708Y-77713082D01*
X132397292Y-77785490D01*
X132294890Y-77887892D01*
X132222482Y-78013308D01*
X132211212Y-78055365D01*
X131583932Y-77428085D01*
X131583931Y-77428085D01*
X131537616Y-77491833D01*
X131437567Y-77688189D01*
X131369473Y-77897764D01*
X131335000Y-78115418D01*
X127500500Y-78115418D01*
X127500500Y-69454978D01*
X133874503Y-69454978D01*
X133874503Y-69675421D01*
X133908988Y-69893152D01*
X133977106Y-70102803D01*
X133977107Y-70102806D01*
X134027660Y-70202019D01*
X134077052Y-70298956D01*
X134077190Y-70299225D01*
X134206755Y-70477558D01*
X134206759Y-70477563D01*
X134362639Y-70633443D01*
X134362644Y-70633447D01*
X134432027Y-70683856D01*
X134540981Y-70763015D01*
X134669378Y-70828437D01*
X134737396Y-70863095D01*
X134737399Y-70863096D01*
X134826910Y-70892179D01*
X134947052Y-70931215D01*
X135164781Y-70965700D01*
X135164782Y-70965700D01*
X135385224Y-70965700D01*
X135385225Y-70965700D01*
X135602954Y-70931215D01*
X135812609Y-70863095D01*
X136009025Y-70763015D01*
X136187368Y-70633442D01*
X136343245Y-70477565D01*
X136472818Y-70299222D01*
X136572898Y-70102806D01*
X136641018Y-69893151D01*
X136675503Y-69675422D01*
X136675503Y-69454978D01*
X136665488Y-69391748D01*
X136641018Y-69237248D01*
X136618190Y-69166993D01*
X136617755Y-69151778D01*
X136612437Y-69137519D01*
X136616777Y-69117567D01*
X136616194Y-69097152D01*
X136624284Y-69083062D01*
X136627290Y-69069246D01*
X136648437Y-69040997D01*
X136732017Y-68957418D01*
X136793340Y-68923933D01*
X136819697Y-68921100D01*
X138921039Y-68921100D01*
X138988078Y-68940785D01*
X139033833Y-68993589D01*
X139043777Y-69062747D01*
X139038970Y-69083418D01*
X138988988Y-69237247D01*
X138954503Y-69454978D01*
X138954503Y-69675421D01*
X138988988Y-69893152D01*
X139057106Y-70102803D01*
X139057107Y-70102806D01*
X139107660Y-70202019D01*
X139157052Y-70298956D01*
X139157190Y-70299225D01*
X139286755Y-70477558D01*
X139286759Y-70477563D01*
X139442639Y-70633443D01*
X139442644Y-70633447D01*
X139512027Y-70683856D01*
X139620981Y-70763015D01*
X139749378Y-70828437D01*
X139817396Y-70863095D01*
X139817399Y-70863096D01*
X139906910Y-70892179D01*
X140027052Y-70931215D01*
X140244781Y-70965700D01*
X140244782Y-70965700D01*
X140465224Y-70965700D01*
X140465225Y-70965700D01*
X140682954Y-70931215D01*
X140892609Y-70863095D01*
X141089025Y-70763015D01*
X141267368Y-70633442D01*
X141423245Y-70477565D01*
X141552818Y-70299222D01*
X141652898Y-70102806D01*
X141721018Y-69893151D01*
X141755503Y-69675422D01*
X141755503Y-69454978D01*
X141721018Y-69237249D01*
X141671035Y-69083417D01*
X141669041Y-69013577D01*
X141705122Y-68953744D01*
X141767823Y-68922916D01*
X141788967Y-68921100D01*
X144001565Y-68921100D01*
X144068604Y-68940785D01*
X144114359Y-68993589D01*
X144124303Y-69062747D01*
X144119496Y-69083418D01*
X144069476Y-69237364D01*
X144035003Y-69455018D01*
X144035003Y-69675381D01*
X144069476Y-69893035D01*
X144137570Y-70102610D01*
X144237614Y-70298956D01*
X144283935Y-70362713D01*
X144911215Y-69735433D01*
X144922485Y-69777492D01*
X144994893Y-69902908D01*
X145097295Y-70005310D01*
X145222711Y-70077718D01*
X145264768Y-70088987D01*
X144637488Y-70716265D01*
X144637488Y-70716266D01*
X144701246Y-70762588D01*
X144897592Y-70862632D01*
X145107167Y-70930726D01*
X145324822Y-70965200D01*
X145545184Y-70965200D01*
X145762838Y-70930726D01*
X145972413Y-70862632D01*
X146168763Y-70762586D01*
X146232516Y-70716266D01*
X146232517Y-70716266D01*
X145605237Y-70088987D01*
X145647295Y-70077718D01*
X145772711Y-70005310D01*
X145875113Y-69902908D01*
X145947521Y-69777492D01*
X145958790Y-69735434D01*
X146586069Y-70362714D01*
X146586069Y-70362713D01*
X146632389Y-70298960D01*
X146732435Y-70102610D01*
X146800529Y-69893035D01*
X146835003Y-69675381D01*
X146835003Y-69455018D01*
X146800529Y-69237364D01*
X146750510Y-69083418D01*
X146748515Y-69013577D01*
X146784596Y-68953744D01*
X146847297Y-68922916D01*
X146868441Y-68921100D01*
X149081039Y-68921100D01*
X149148078Y-68940785D01*
X149193833Y-68993589D01*
X149203777Y-69062747D01*
X149198970Y-69083418D01*
X149148988Y-69237247D01*
X149114503Y-69454978D01*
X149114503Y-69675421D01*
X149148988Y-69893152D01*
X149217106Y-70102803D01*
X149217107Y-70102806D01*
X149267660Y-70202019D01*
X149317052Y-70298956D01*
X149317190Y-70299225D01*
X149446755Y-70477558D01*
X149446759Y-70477563D01*
X149602639Y-70633443D01*
X149602644Y-70633447D01*
X149672027Y-70683856D01*
X149780981Y-70763015D01*
X149909378Y-70828437D01*
X149977396Y-70863095D01*
X149977399Y-70863096D01*
X150066910Y-70892179D01*
X150187052Y-70931215D01*
X150404781Y-70965700D01*
X150404782Y-70965700D01*
X150625224Y-70965700D01*
X150625225Y-70965700D01*
X150842954Y-70931215D01*
X151052609Y-70863095D01*
X151249025Y-70763015D01*
X151427368Y-70633442D01*
X151583245Y-70477565D01*
X151712818Y-70299222D01*
X151812898Y-70102806D01*
X151881018Y-69893151D01*
X151915503Y-69675422D01*
X151915503Y-69454978D01*
X151881018Y-69237249D01*
X151831035Y-69083417D01*
X151829041Y-69013577D01*
X151865122Y-68953744D01*
X151927823Y-68922916D01*
X151948967Y-68921100D01*
X154161039Y-68921100D01*
X154228078Y-68940785D01*
X154273833Y-68993589D01*
X154283777Y-69062747D01*
X154278970Y-69083418D01*
X154228988Y-69237247D01*
X154194503Y-69454978D01*
X154194503Y-69675421D01*
X154228988Y-69893152D01*
X154297106Y-70102803D01*
X154297107Y-70102806D01*
X154347660Y-70202019D01*
X154397052Y-70298956D01*
X154397190Y-70299225D01*
X154526755Y-70477558D01*
X154526759Y-70477563D01*
X154682639Y-70633443D01*
X154682644Y-70633447D01*
X154752027Y-70683856D01*
X154860981Y-70763015D01*
X154989378Y-70828437D01*
X155057396Y-70863095D01*
X155057399Y-70863096D01*
X155146910Y-70892179D01*
X155267052Y-70931215D01*
X155484781Y-70965700D01*
X155484782Y-70965700D01*
X155705224Y-70965700D01*
X155705225Y-70965700D01*
X155922954Y-70931215D01*
X156132609Y-70863095D01*
X156329025Y-70763015D01*
X156507368Y-70633442D01*
X156663245Y-70477565D01*
X156792818Y-70299222D01*
X156826355Y-70233404D01*
X156874329Y-70182609D01*
X156936839Y-70165700D01*
X167625103Y-70165700D01*
X167692142Y-70185385D01*
X167712784Y-70202019D01*
X168626241Y-71115476D01*
X168659726Y-71176799D01*
X168656492Y-71241473D01*
X168642753Y-71283757D01*
X168609500Y-71493713D01*
X168609500Y-71706286D01*
X168642753Y-71916239D01*
X168708444Y-72118414D01*
X168804951Y-72307820D01*
X168929890Y-72479786D01*
X169080213Y-72630109D01*
X169252179Y-72755048D01*
X169252181Y-72755049D01*
X169252184Y-72755051D01*
X169441588Y-72851557D01*
X169643757Y-72917246D01*
X169853713Y-72950500D01*
X169853714Y-72950500D01*
X170066286Y-72950500D01*
X170066287Y-72950500D01*
X170276243Y-72917246D01*
X170478412Y-72851557D01*
X170667816Y-72755051D01*
X170689789Y-72739086D01*
X170839786Y-72630109D01*
X170839788Y-72630106D01*
X170839792Y-72630104D01*
X170990104Y-72479792D01*
X170990106Y-72479788D01*
X170990109Y-72479786D01*
X171115048Y-72307820D01*
X171115047Y-72307820D01*
X171115051Y-72307816D01*
X171119514Y-72299054D01*
X171167488Y-72248259D01*
X171235308Y-72231463D01*
X171301444Y-72253999D01*
X171340486Y-72299056D01*
X171344951Y-72307820D01*
X171469890Y-72479786D01*
X171620213Y-72630109D01*
X171792182Y-72755050D01*
X171800946Y-72759516D01*
X171851742Y-72807491D01*
X171868536Y-72875312D01*
X171845998Y-72941447D01*
X171800946Y-72980484D01*
X171792182Y-72984949D01*
X171620213Y-73109890D01*
X171469890Y-73260213D01*
X171344951Y-73432179D01*
X171248444Y-73621585D01*
X171182753Y-73823760D01*
X171149500Y-74033713D01*
X171149500Y-74246286D01*
X171182753Y-74456239D01*
X171182753Y-74456241D01*
X171182754Y-74456243D01*
X171237431Y-74624522D01*
X171248444Y-74658414D01*
X171275495Y-74711505D01*
X171288391Y-74780175D01*
X171262115Y-74844915D01*
X171205008Y-74885172D01*
X171165010Y-74891800D01*
X144080657Y-74891800D01*
X143922543Y-74891800D01*
X143769815Y-74932723D01*
X143769814Y-74932723D01*
X143769812Y-74932724D01*
X143769809Y-74932725D01*
X143719696Y-74961659D01*
X143719695Y-74961660D01*
X143676289Y-74986720D01*
X143632885Y-75011779D01*
X143632882Y-75011781D01*
X143521080Y-75123583D01*
X143521080Y-75123584D01*
X143521078Y-75123586D01*
X143458376Y-75186288D01*
X143410437Y-75234227D01*
X143349114Y-75267711D01*
X143346948Y-75268162D01*
X143191608Y-75299061D01*
X143191598Y-75299064D01*
X143045927Y-75359402D01*
X143045914Y-75359409D01*
X142914811Y-75447010D01*
X142914807Y-75447013D01*
X142803313Y-75558507D01*
X142803310Y-75558511D01*
X142715709Y-75689614D01*
X142715702Y-75689627D01*
X142655364Y-75835298D01*
X142655361Y-75835310D01*
X142624599Y-75989958D01*
X142624458Y-75991391D01*
X142624174Y-75992092D01*
X142623411Y-75995932D01*
X142622682Y-75995787D01*
X142598293Y-76056177D01*
X142541256Y-76096532D01*
X142533151Y-76099003D01*
X142453220Y-76120421D01*
X142453209Y-76120426D01*
X142316290Y-76199475D01*
X142316282Y-76199481D01*
X141212779Y-77302984D01*
X141193945Y-77335607D01*
X141184954Y-77351181D01*
X141133723Y-77439915D01*
X141092799Y-77592643D01*
X141092799Y-77592645D01*
X141092799Y-77760746D01*
X141092800Y-77760759D01*
X141092800Y-78969130D01*
X141092799Y-78969148D01*
X141092799Y-79134854D01*
X141092798Y-79134854D01*
X141099017Y-79158063D01*
X141133723Y-79287585D01*
X141151596Y-79318541D01*
X141185154Y-79376665D01*
X141212779Y-79424515D01*
X141331649Y-79543385D01*
X141331655Y-79543390D01*
X141907125Y-80118860D01*
X141916187Y-80135455D01*
X141929319Y-80149065D01*
X141939725Y-80178562D01*
X141940610Y-80180183D01*
X141941061Y-80182349D01*
X141966773Y-80311608D01*
X141960546Y-80381200D01*
X141917683Y-80436377D01*
X141851794Y-80459622D01*
X141845156Y-80459800D01*
X140949797Y-80459800D01*
X140882758Y-80440115D01*
X140862116Y-80423481D01*
X139188440Y-78749805D01*
X139154955Y-78688482D01*
X139158189Y-78623808D01*
X139181018Y-78553551D01*
X139215503Y-78335822D01*
X139215503Y-78115378D01*
X139181018Y-77897649D01*
X139144576Y-77785490D01*
X139112899Y-77687996D01*
X139112898Y-77687993D01*
X139064314Y-77592643D01*
X139012818Y-77491578D01*
X138975283Y-77439915D01*
X138883250Y-77313241D01*
X138883246Y-77313236D01*
X138727366Y-77157356D01*
X138727361Y-77157352D01*
X138549028Y-77027787D01*
X138549027Y-77027786D01*
X138549025Y-77027785D01*
X138486099Y-76995722D01*
X138352609Y-76927704D01*
X138352606Y-76927703D01*
X138142955Y-76859585D01*
X138034089Y-76842342D01*
X137925225Y-76825100D01*
X137704781Y-76825100D01*
X137632204Y-76836595D01*
X137487050Y-76859585D01*
X137277399Y-76927703D01*
X137277396Y-76927704D01*
X137080977Y-77027787D01*
X136902644Y-77157352D01*
X136902639Y-77157356D01*
X136746759Y-77313236D01*
X136746755Y-77313241D01*
X136617190Y-77491574D01*
X136517107Y-77687993D01*
X136517106Y-77687996D01*
X136448988Y-77897647D01*
X136414503Y-78115378D01*
X136414503Y-78335821D01*
X136448988Y-78553552D01*
X136517106Y-78763203D01*
X136517107Y-78763206D01*
X136549511Y-78826800D01*
X136617052Y-78959356D01*
X136617190Y-78959625D01*
X136746755Y-79137958D01*
X136746759Y-79137963D01*
X136902639Y-79293843D01*
X136902644Y-79293847D01*
X137016635Y-79376665D01*
X137080981Y-79423415D01*
X137209378Y-79488837D01*
X137277396Y-79523495D01*
X137277399Y-79523496D01*
X137382224Y-79557555D01*
X137487052Y-79591615D01*
X137704781Y-79626100D01*
X137704782Y-79626100D01*
X137925224Y-79626100D01*
X137925225Y-79626100D01*
X138142954Y-79591615D01*
X138213205Y-79568788D01*
X138283046Y-79566794D01*
X138339204Y-79599039D01*
X139882284Y-81142119D01*
X139915769Y-81203442D01*
X139910785Y-81273134D01*
X139868913Y-81329067D01*
X139803449Y-81353484D01*
X139794603Y-81353800D01*
X136632970Y-81353800D01*
X136632954Y-81353799D01*
X136625358Y-81353799D01*
X136467243Y-81353799D01*
X136402001Y-81371281D01*
X136314514Y-81394723D01*
X136314509Y-81394726D01*
X136177590Y-81473775D01*
X136177582Y-81473781D01*
X135799202Y-81852160D01*
X135737879Y-81885645D01*
X135673203Y-81882410D01*
X135649784Y-81874801D01*
X135602955Y-81859585D01*
X135494089Y-81842342D01*
X135385225Y-81825100D01*
X135164781Y-81825100D01*
X135092204Y-81836595D01*
X134947050Y-81859585D01*
X134737399Y-81927703D01*
X134737396Y-81927704D01*
X134540977Y-82027787D01*
X134362644Y-82157352D01*
X134362639Y-82157356D01*
X134206759Y-82313236D01*
X134206755Y-82313241D01*
X134077190Y-82491574D01*
X133977107Y-82687993D01*
X133977106Y-82687996D01*
X133908988Y-82897647D01*
X133874503Y-83115378D01*
X133874503Y-83335821D01*
X133908988Y-83553552D01*
X133977106Y-83763203D01*
X133977107Y-83763206D01*
X134077190Y-83959625D01*
X134206755Y-84137958D01*
X134206759Y-84137963D01*
X134362639Y-84293843D01*
X134362644Y-84293847D01*
X134518195Y-84406860D01*
X134540981Y-84423415D01*
X134669378Y-84488837D01*
X134737396Y-84523495D01*
X134737399Y-84523496D01*
X134783375Y-84538434D01*
X134947052Y-84591615D01*
X135164781Y-84626100D01*
X135164782Y-84626100D01*
X135385224Y-84626100D01*
X135385225Y-84626100D01*
X135602954Y-84591615D01*
X135812609Y-84523495D01*
X136009025Y-84423415D01*
X136187368Y-84293842D01*
X136343245Y-84137965D01*
X136472818Y-83959622D01*
X136572898Y-83763206D01*
X136641018Y-83553551D01*
X136675503Y-83335822D01*
X136675503Y-83115378D01*
X136641018Y-82897649D01*
X136618189Y-82827389D01*
X136617755Y-82812179D01*
X136612437Y-82797920D01*
X136616777Y-82777967D01*
X136616194Y-82757553D01*
X136624282Y-82743465D01*
X136627289Y-82729647D01*
X136648437Y-82701398D01*
X136758718Y-82591118D01*
X136820041Y-82557634D01*
X136846398Y-82554800D01*
X138929714Y-82554800D01*
X138996753Y-82574485D01*
X139042508Y-82627289D01*
X139052452Y-82696447D01*
X139047645Y-82717118D01*
X138988988Y-82897647D01*
X138954503Y-83115378D01*
X138954503Y-83335821D01*
X138988988Y-83553552D01*
X139057106Y-83763203D01*
X139057107Y-83763206D01*
X139157190Y-83959625D01*
X139286755Y-84137958D01*
X139286759Y-84137963D01*
X139442639Y-84293843D01*
X139442644Y-84293847D01*
X139598195Y-84406860D01*
X139620981Y-84423415D01*
X139749378Y-84488837D01*
X139817396Y-84523495D01*
X139817399Y-84523496D01*
X139863375Y-84538434D01*
X140027052Y-84591615D01*
X140244781Y-84626100D01*
X140244782Y-84626100D01*
X140465224Y-84626100D01*
X140465225Y-84626100D01*
X140682954Y-84591615D01*
X140892609Y-84523495D01*
X141089025Y-84423415D01*
X141267368Y-84293842D01*
X141423245Y-84137965D01*
X141552818Y-83959622D01*
X141652898Y-83763206D01*
X141721018Y-83553551D01*
X141755503Y-83335822D01*
X141755503Y-83115378D01*
X141721018Y-82897649D01*
X141662361Y-82717118D01*
X141660366Y-82647276D01*
X141696447Y-82587444D01*
X141759148Y-82556616D01*
X141780292Y-82554800D01*
X144009714Y-82554800D01*
X144076753Y-82574485D01*
X144122508Y-82627289D01*
X144132452Y-82696447D01*
X144127645Y-82717118D01*
X144068988Y-82897647D01*
X144034503Y-83115378D01*
X144034503Y-83335821D01*
X144068988Y-83553552D01*
X144137106Y-83763203D01*
X144137107Y-83763206D01*
X144237190Y-83959625D01*
X144366755Y-84137958D01*
X144366759Y-84137963D01*
X144522639Y-84293843D01*
X144522644Y-84293847D01*
X144678195Y-84406860D01*
X144700981Y-84423415D01*
X144829378Y-84488837D01*
X144897396Y-84523495D01*
X144897399Y-84523496D01*
X144943375Y-84538434D01*
X145107052Y-84591615D01*
X145324781Y-84626100D01*
X145324782Y-84626100D01*
X145545224Y-84626100D01*
X145545225Y-84626100D01*
X145762954Y-84591615D01*
X145972609Y-84523495D01*
X146169025Y-84423415D01*
X146347368Y-84293842D01*
X146503245Y-84137965D01*
X146632818Y-83959622D01*
X146732898Y-83763206D01*
X146801018Y-83553551D01*
X146835503Y-83335822D01*
X146835503Y-83115378D01*
X146801018Y-82897649D01*
X146742361Y-82717118D01*
X146740366Y-82647276D01*
X146776447Y-82587444D01*
X146839148Y-82556616D01*
X146860292Y-82554800D01*
X149089714Y-82554800D01*
X149156753Y-82574485D01*
X149202508Y-82627289D01*
X149212452Y-82696447D01*
X149207645Y-82717118D01*
X149148988Y-82897647D01*
X149114503Y-83115378D01*
X149114503Y-83335821D01*
X149148988Y-83553552D01*
X149217106Y-83763203D01*
X149217107Y-83763206D01*
X149317190Y-83959625D01*
X149446755Y-84137958D01*
X149446759Y-84137963D01*
X149602639Y-84293843D01*
X149602644Y-84293847D01*
X149758195Y-84406860D01*
X149780981Y-84423415D01*
X149909378Y-84488837D01*
X149977396Y-84523495D01*
X149977399Y-84523496D01*
X150023375Y-84538434D01*
X150187052Y-84591615D01*
X150404781Y-84626100D01*
X150404782Y-84626100D01*
X150625224Y-84626100D01*
X150625225Y-84626100D01*
X150842954Y-84591615D01*
X151052609Y-84523495D01*
X151249025Y-84423415D01*
X151427368Y-84293842D01*
X151583245Y-84137965D01*
X151712818Y-83959622D01*
X151812898Y-83763206D01*
X151881018Y-83553551D01*
X151915503Y-83335822D01*
X151915503Y-83115378D01*
X151881018Y-82897649D01*
X151822361Y-82717118D01*
X151820366Y-82647276D01*
X151856447Y-82587444D01*
X151919148Y-82556616D01*
X151940292Y-82554800D01*
X154169714Y-82554800D01*
X154236753Y-82574485D01*
X154282508Y-82627289D01*
X154292452Y-82696447D01*
X154287645Y-82717118D01*
X154228988Y-82897647D01*
X154194503Y-83115378D01*
X154194503Y-83335821D01*
X154228988Y-83553552D01*
X154297106Y-83763203D01*
X154297107Y-83763206D01*
X154397190Y-83959625D01*
X154526754Y-84137957D01*
X154526758Y-84137961D01*
X154526761Y-84137965D01*
X154612599Y-84223803D01*
X154646083Y-84285127D01*
X154641099Y-84354818D01*
X154612598Y-84399165D01*
X148499203Y-90512560D01*
X148437880Y-90546045D01*
X148373204Y-90542810D01*
X148302955Y-90519985D01*
X148194089Y-90502742D01*
X148085225Y-90485500D01*
X147864781Y-90485500D01*
X147792204Y-90496995D01*
X147647050Y-90519985D01*
X147437399Y-90588103D01*
X147437396Y-90588104D01*
X147240977Y-90688187D01*
X147062644Y-90817752D01*
X147062639Y-90817756D01*
X146906759Y-90973636D01*
X146906755Y-90973641D01*
X146777190Y-91151974D01*
X146677107Y-91348393D01*
X146677106Y-91348396D01*
X146608988Y-91558047D01*
X146590669Y-91673708D01*
X146574503Y-91775778D01*
X146574503Y-91996222D01*
X146590669Y-92098292D01*
X146608988Y-92213952D01*
X146672064Y-92408082D01*
X146674059Y-92477923D01*
X146637978Y-92537756D01*
X146575277Y-92568584D01*
X146554133Y-92570400D01*
X145107870Y-92570400D01*
X145107854Y-92570399D01*
X145100258Y-92570399D01*
X144942143Y-92570399D01*
X144879163Y-92587275D01*
X144847069Y-92591500D01*
X144721255Y-92591500D01*
X144566610Y-92622261D01*
X144566598Y-92622264D01*
X144420927Y-92682602D01*
X144420914Y-92682609D01*
X144289811Y-92770210D01*
X144284162Y-92775859D01*
X144222837Y-92809341D01*
X144153146Y-92804353D01*
X144097214Y-92762478D01*
X144072800Y-92697013D01*
X144087656Y-92628741D01*
X144090763Y-92623375D01*
X144092809Y-92620034D01*
X144092818Y-92620022D01*
X144192898Y-92423606D01*
X144261018Y-92213951D01*
X144295503Y-91996222D01*
X144295503Y-91775778D01*
X144261018Y-91558049D01*
X144216850Y-91422112D01*
X144192899Y-91348396D01*
X144192898Y-91348393D01*
X144123496Y-91212187D01*
X144092818Y-91151978D01*
X144041821Y-91081786D01*
X143963250Y-90973641D01*
X143963246Y-90973636D01*
X143807366Y-90817756D01*
X143807361Y-90817752D01*
X143629028Y-90688187D01*
X143629027Y-90688186D01*
X143629025Y-90688185D01*
X143554084Y-90650000D01*
X143432609Y-90588104D01*
X143432606Y-90588103D01*
X143222955Y-90519985D01*
X143114089Y-90502742D01*
X143005225Y-90485500D01*
X142784781Y-90485500D01*
X142712204Y-90496995D01*
X142567050Y-90519985D01*
X142357399Y-90588103D01*
X142357396Y-90588104D01*
X142160977Y-90688187D01*
X141982644Y-90817752D01*
X141982639Y-90817756D01*
X141826759Y-90973636D01*
X141826755Y-90973641D01*
X141697190Y-91151974D01*
X141597107Y-91348393D01*
X141597106Y-91348396D01*
X141528988Y-91558047D01*
X141510669Y-91673708D01*
X141494503Y-91775778D01*
X141494503Y-91996222D01*
X141510669Y-92098292D01*
X141528988Y-92213952D01*
X141597106Y-92423603D01*
X141597107Y-92423606D01*
X141655271Y-92537756D01*
X141697052Y-92619756D01*
X141697190Y-92620025D01*
X141826755Y-92798358D01*
X141826759Y-92798363D01*
X141982639Y-92954243D01*
X141982644Y-92954247D01*
X142096635Y-93037065D01*
X142160981Y-93083815D01*
X142289378Y-93149237D01*
X142357396Y-93183895D01*
X142357399Y-93183896D01*
X142432949Y-93208443D01*
X142567052Y-93252015D01*
X142784781Y-93286500D01*
X142784782Y-93286500D01*
X143005224Y-93286500D01*
X143005225Y-93286500D01*
X143222954Y-93252015D01*
X143432609Y-93183895D01*
X143629025Y-93083815D01*
X143807368Y-92954242D01*
X143892226Y-92869383D01*
X143953545Y-92835901D01*
X144023237Y-92840885D01*
X144079171Y-92882756D01*
X144103588Y-92948220D01*
X144091203Y-93006432D01*
X144093037Y-93007192D01*
X144030364Y-93158498D01*
X144030361Y-93158510D01*
X143999600Y-93313153D01*
X143999600Y-93313158D01*
X143999600Y-93470842D01*
X143999600Y-93470844D01*
X143999599Y-93470844D01*
X144030405Y-93625708D01*
X144024178Y-93695300D01*
X143981315Y-93750477D01*
X143915426Y-93773722D01*
X143908788Y-93773900D01*
X141004297Y-93773900D01*
X140937258Y-93754215D01*
X140916616Y-93737581D01*
X140700574Y-93521539D01*
X140667089Y-93460216D01*
X140666638Y-93458049D01*
X140639738Y-93322819D01*
X140635737Y-93302703D01*
X140629026Y-93286500D01*
X140575397Y-93157027D01*
X140575390Y-93157014D01*
X140487789Y-93025911D01*
X140487786Y-93025907D01*
X140376292Y-92914413D01*
X140376288Y-92914410D01*
X140245185Y-92826809D01*
X140245172Y-92826802D01*
X140099501Y-92766464D01*
X140099489Y-92766461D01*
X139944845Y-92735700D01*
X139944842Y-92735700D01*
X139787158Y-92735700D01*
X139787155Y-92735700D01*
X139632510Y-92766461D01*
X139632498Y-92766464D01*
X139486827Y-92826802D01*
X139486814Y-92826809D01*
X139371288Y-92904002D01*
X139340990Y-92913488D01*
X139311243Y-92924584D01*
X139307886Y-92923853D01*
X139304610Y-92924880D01*
X139273995Y-92916481D01*
X139242970Y-92909732D01*
X139239254Y-92906950D01*
X139237230Y-92906395D01*
X139214716Y-92888581D01*
X139054021Y-92727886D01*
X139020536Y-92666563D01*
X139025520Y-92596871D01*
X139031213Y-92583918D01*
X139112898Y-92423606D01*
X139181018Y-92213951D01*
X139215503Y-91996222D01*
X139215503Y-91775778D01*
X139181018Y-91558049D01*
X139136850Y-91422112D01*
X139112899Y-91348396D01*
X139112898Y-91348393D01*
X139043496Y-91212187D01*
X139012818Y-91151978D01*
X138961821Y-91081786D01*
X138883250Y-90973641D01*
X138883246Y-90973636D01*
X138727366Y-90817756D01*
X138727361Y-90817752D01*
X138549028Y-90688187D01*
X138549027Y-90688186D01*
X138549025Y-90688185D01*
X138474084Y-90650000D01*
X138352609Y-90588104D01*
X138352606Y-90588103D01*
X138142955Y-90519985D01*
X138034089Y-90502742D01*
X137925225Y-90485500D01*
X137704781Y-90485500D01*
X137632204Y-90496995D01*
X137487050Y-90519985D01*
X137277399Y-90588103D01*
X137277396Y-90588104D01*
X137080977Y-90688187D01*
X136902644Y-90817752D01*
X136902639Y-90817756D01*
X136746759Y-90973636D01*
X136746755Y-90973641D01*
X136617190Y-91151974D01*
X136517107Y-91348393D01*
X136517106Y-91348396D01*
X136448988Y-91558047D01*
X136430669Y-91673708D01*
X136414503Y-91775778D01*
X136414503Y-91996222D01*
X136430669Y-92098292D01*
X136448988Y-92213952D01*
X136517106Y-92423603D01*
X136517107Y-92423606D01*
X136575271Y-92537756D01*
X136617052Y-92619756D01*
X136617190Y-92620025D01*
X136746755Y-92798358D01*
X136746759Y-92798363D01*
X136902639Y-92954243D01*
X136902644Y-92954247D01*
X137016635Y-93037065D01*
X137080981Y-93083815D01*
X137209378Y-93149237D01*
X137277396Y-93183895D01*
X137277399Y-93183896D01*
X137352949Y-93208443D01*
X137487052Y-93252015D01*
X137704781Y-93286500D01*
X137862803Y-93286500D01*
X137929842Y-93306185D01*
X137950484Y-93322819D01*
X139974991Y-95347326D01*
X140008476Y-95408649D01*
X140003492Y-95478341D01*
X139961620Y-95534274D01*
X139925628Y-95552938D01*
X139817399Y-95588103D01*
X139817396Y-95588104D01*
X139620977Y-95688187D01*
X139442644Y-95817752D01*
X139442639Y-95817756D01*
X139286759Y-95973636D01*
X139286755Y-95973641D01*
X139157190Y-96151974D01*
X139057107Y-96348393D01*
X139057106Y-96348396D01*
X138988988Y-96558047D01*
X138954503Y-96775778D01*
X138954503Y-96996221D01*
X138988988Y-97213952D01*
X139057106Y-97423603D01*
X139057107Y-97423606D01*
X139157190Y-97620025D01*
X139286755Y-97798358D01*
X139286759Y-97798363D01*
X139442639Y-97954243D01*
X139442644Y-97954247D01*
X139561697Y-98040743D01*
X139620981Y-98083815D01*
X139724869Y-98136749D01*
X139817396Y-98183895D01*
X139817399Y-98183896D01*
X139878970Y-98203901D01*
X140027052Y-98252015D01*
X140244781Y-98286500D01*
X140244782Y-98286500D01*
X140465224Y-98286500D01*
X140465225Y-98286500D01*
X140682954Y-98252015D01*
X140892609Y-98183895D01*
X141089025Y-98083815D01*
X141267368Y-97954242D01*
X141423245Y-97798365D01*
X141552818Y-97620022D01*
X141652898Y-97423606D01*
X141688064Y-97315375D01*
X141727501Y-97257699D01*
X141791859Y-97230500D01*
X141860705Y-97242414D01*
X141893676Y-97266011D01*
X148342039Y-103714374D01*
X148342049Y-103714385D01*
X148346379Y-103718715D01*
X148346380Y-103718716D01*
X148458184Y-103830520D01*
X148458186Y-103830521D01*
X148458187Y-103830522D01*
X148561338Y-103890076D01*
X148578589Y-103908169D01*
X148598605Y-103923153D01*
X148602285Y-103933021D01*
X148609553Y-103940643D01*
X148614284Y-103965191D01*
X148623022Y-103988617D01*
X148620783Y-103998907D01*
X148622777Y-104009250D01*
X148613483Y-104032462D01*
X148608170Y-104056890D01*
X148598571Y-104069712D01*
X148596809Y-104074114D01*
X148587019Y-104085144D01*
X148499203Y-104172960D01*
X148437880Y-104206445D01*
X148373204Y-104203210D01*
X148302955Y-104180385D01*
X148194089Y-104163142D01*
X148085225Y-104145900D01*
X147864781Y-104145900D01*
X147792204Y-104157395D01*
X147647050Y-104180385D01*
X147437399Y-104248503D01*
X147437396Y-104248504D01*
X147240977Y-104348587D01*
X147062644Y-104478152D01*
X147062639Y-104478156D01*
X146906759Y-104634036D01*
X146906755Y-104634041D01*
X146777190Y-104812374D01*
X146677107Y-105008793D01*
X146677106Y-105008796D01*
X146608988Y-105218447D01*
X146574503Y-105436178D01*
X146574503Y-105656621D01*
X146608988Y-105874352D01*
X146677106Y-106084003D01*
X146677107Y-106084006D01*
X146700487Y-106129890D01*
X146777052Y-106280156D01*
X146777190Y-106280425D01*
X146906755Y-106458758D01*
X146906759Y-106458763D01*
X147062639Y-106614643D01*
X147062644Y-106614647D01*
X147099726Y-106641588D01*
X147240981Y-106744215D01*
X147369378Y-106809637D01*
X147437396Y-106844295D01*
X147437399Y-106844296D01*
X147542224Y-106878355D01*
X147647052Y-106912415D01*
X147864781Y-106946900D01*
X147864782Y-106946900D01*
X148085224Y-106946900D01*
X148085225Y-106946900D01*
X148302954Y-106912415D01*
X148512609Y-106844295D01*
X148709025Y-106744215D01*
X148887368Y-106614642D01*
X149043245Y-106458765D01*
X149172818Y-106280422D01*
X149272898Y-106084006D01*
X149341018Y-105874351D01*
X149375503Y-105656622D01*
X149375503Y-105436178D01*
X149341018Y-105218449D01*
X149341017Y-105218447D01*
X149318190Y-105148193D01*
X149316194Y-105078352D01*
X149348437Y-105022197D01*
X149572017Y-104798616D01*
X149633339Y-104765134D01*
X149659697Y-104762300D01*
X151680353Y-104762300D01*
X151747392Y-104781985D01*
X151793147Y-104834789D01*
X151803091Y-104903947D01*
X151790838Y-104942595D01*
X151757107Y-105008793D01*
X151757106Y-105008796D01*
X151688988Y-105218447D01*
X151654503Y-105436178D01*
X151654503Y-105656621D01*
X151688988Y-105874352D01*
X151757106Y-106084003D01*
X151757107Y-106084006D01*
X151780487Y-106129890D01*
X151857052Y-106280156D01*
X151857190Y-106280425D01*
X151986755Y-106458758D01*
X151986759Y-106458763D01*
X152142639Y-106614643D01*
X152142644Y-106614647D01*
X152179726Y-106641588D01*
X152320981Y-106744215D01*
X152449378Y-106809637D01*
X152517396Y-106844295D01*
X152517399Y-106844296D01*
X152622224Y-106878355D01*
X152727052Y-106912415D01*
X152944781Y-106946900D01*
X152944782Y-106946900D01*
X152965902Y-106946900D01*
X153032941Y-106966585D01*
X153078696Y-107019389D01*
X153088640Y-107088547D01*
X153059615Y-107152103D01*
X153053583Y-107158581D01*
X151039203Y-109172960D01*
X150977880Y-109206445D01*
X150913204Y-109203210D01*
X150842955Y-109180385D01*
X150718384Y-109160655D01*
X150625225Y-109145900D01*
X150404781Y-109145900D01*
X150332204Y-109157395D01*
X150187050Y-109180385D01*
X149977399Y-109248503D01*
X149977396Y-109248504D01*
X149780977Y-109348587D01*
X149602644Y-109478152D01*
X149602639Y-109478156D01*
X149446759Y-109634036D01*
X149446755Y-109634041D01*
X149317190Y-109812374D01*
X149217107Y-110008793D01*
X149217106Y-110008796D01*
X149148988Y-110218447D01*
X149114503Y-110436178D01*
X149114503Y-110656619D01*
X149114502Y-110656619D01*
X149148988Y-110874352D01*
X149217106Y-111084003D01*
X149217107Y-111084006D01*
X149271064Y-111189900D01*
X149303650Y-111253853D01*
X149317190Y-111280425D01*
X149446755Y-111458758D01*
X149446759Y-111458763D01*
X149602639Y-111614643D01*
X149602644Y-111614647D01*
X149749833Y-111721585D01*
X149780981Y-111744215D01*
X149908536Y-111809208D01*
X149977396Y-111844295D01*
X149977399Y-111844296D01*
X150082224Y-111878355D01*
X150187052Y-111912415D01*
X150404781Y-111946900D01*
X150404782Y-111946900D01*
X150625224Y-111946900D01*
X150625225Y-111946900D01*
X150842954Y-111912415D01*
X151052609Y-111844295D01*
X151249025Y-111744215D01*
X151427368Y-111614642D01*
X151583245Y-111458765D01*
X151712818Y-111280422D01*
X151812898Y-111084006D01*
X151881018Y-110874351D01*
X151915503Y-110656622D01*
X151915503Y-110436178D01*
X151911011Y-110407816D01*
X151881018Y-110218448D01*
X151858190Y-110148193D01*
X151856194Y-110078352D01*
X151888438Y-110022195D01*
X153063220Y-108847414D01*
X153124542Y-108813930D01*
X153194234Y-108818914D01*
X153250167Y-108860786D01*
X153274584Y-108926250D01*
X153274900Y-108935096D01*
X153274900Y-109058646D01*
X153305661Y-109213289D01*
X153305664Y-109213301D01*
X153366002Y-109358972D01*
X153366009Y-109358985D01*
X153453610Y-109490088D01*
X153453613Y-109490092D01*
X153565107Y-109601586D01*
X153565111Y-109601589D01*
X153696214Y-109689190D01*
X153696227Y-109689197D01*
X153841898Y-109749535D01*
X153841903Y-109749537D01*
X153958768Y-109772783D01*
X153996553Y-109780299D01*
X153996556Y-109780300D01*
X153996558Y-109780300D01*
X154154244Y-109780300D01*
X154192034Y-109772783D01*
X154261626Y-109779010D01*
X154316803Y-109821873D01*
X154340048Y-109887762D01*
X154326711Y-109950695D01*
X154297107Y-110008793D01*
X154297106Y-110008796D01*
X154228988Y-110218447D01*
X154194503Y-110436178D01*
X154194503Y-110656619D01*
X154194502Y-110656619D01*
X154228988Y-110874352D01*
X154297106Y-111084003D01*
X154297107Y-111084006D01*
X154351064Y-111189900D01*
X154383650Y-111253853D01*
X154397190Y-111280425D01*
X154526755Y-111458758D01*
X154526759Y-111458763D01*
X154682639Y-111614643D01*
X154682644Y-111614647D01*
X154829833Y-111721585D01*
X154860981Y-111744215D01*
X154988536Y-111809208D01*
X155057396Y-111844295D01*
X155057399Y-111844296D01*
X155162224Y-111878355D01*
X155267052Y-111912415D01*
X155484781Y-111946900D01*
X155484782Y-111946900D01*
X155705224Y-111946900D01*
X155705225Y-111946900D01*
X155922954Y-111912415D01*
X156132609Y-111844295D01*
X156329025Y-111744215D01*
X156507368Y-111614642D01*
X156663245Y-111458765D01*
X156792818Y-111280422D01*
X156796324Y-111273540D01*
X156814915Y-111253853D01*
X156830754Y-111231895D01*
X156838543Y-111228831D01*
X156844293Y-111222743D01*
X156870579Y-111216231D01*
X156895775Y-111206322D01*
X156907943Y-111206975D01*
X156912113Y-111205943D01*
X156931013Y-111208215D01*
X156934958Y-111209000D01*
X156935666Y-111209141D01*
X156997572Y-111241534D01*
X156999139Y-111243074D01*
X157090439Y-111334374D01*
X157090449Y-111334385D01*
X157094779Y-111338715D01*
X157094780Y-111338716D01*
X157206584Y-111450520D01*
X157293395Y-111500639D01*
X157293397Y-111500641D01*
X157331451Y-111522611D01*
X157343515Y-111529577D01*
X157496243Y-111570501D01*
X157496246Y-111570501D01*
X157661953Y-111570501D01*
X157661969Y-111570500D01*
X170929903Y-111570500D01*
X170959343Y-111579144D01*
X170989330Y-111585668D01*
X170994345Y-111589422D01*
X170996942Y-111590185D01*
X171017584Y-111606819D01*
X171166241Y-111755476D01*
X171199726Y-111816799D01*
X171196492Y-111881473D01*
X171182753Y-111923757D01*
X171149500Y-112133713D01*
X171149500Y-112346286D01*
X171182753Y-112556239D01*
X171248444Y-112758414D01*
X171344951Y-112947820D01*
X171469890Y-113119786D01*
X171620213Y-113270109D01*
X171792179Y-113395048D01*
X171792181Y-113395049D01*
X171792184Y-113395051D01*
X171981588Y-113491557D01*
X172183757Y-113557246D01*
X172393713Y-113590500D01*
X172393714Y-113590500D01*
X172606286Y-113590500D01*
X172606287Y-113590500D01*
X172816243Y-113557246D01*
X173018412Y-113491557D01*
X173207816Y-113395051D01*
X173229789Y-113379086D01*
X173379786Y-113270109D01*
X173379788Y-113270106D01*
X173379792Y-113270104D01*
X173530104Y-113119792D01*
X173530106Y-113119788D01*
X173530109Y-113119786D01*
X173655048Y-112947820D01*
X173655047Y-112947820D01*
X173655051Y-112947816D01*
X173751557Y-112758412D01*
X173817246Y-112556243D01*
X173850500Y-112346287D01*
X173850500Y-112133713D01*
X173817246Y-111923757D01*
X173751557Y-111721588D01*
X173655051Y-111532184D01*
X173655049Y-111532181D01*
X173655048Y-111532179D01*
X173530109Y-111360213D01*
X173379786Y-111209890D01*
X173207820Y-111084951D01*
X173205959Y-111084003D01*
X173199054Y-111080485D01*
X173148259Y-111032512D01*
X173131463Y-110964692D01*
X173153999Y-110898556D01*
X173199054Y-110859515D01*
X173207816Y-110855051D01*
X173229789Y-110839086D01*
X173379786Y-110730109D01*
X173379788Y-110730106D01*
X173379792Y-110730104D01*
X173530104Y-110579792D01*
X173530106Y-110579788D01*
X173530109Y-110579786D01*
X173655048Y-110407820D01*
X173655047Y-110407820D01*
X173655051Y-110407816D01*
X173751557Y-110218412D01*
X173817246Y-110016243D01*
X173850500Y-109806287D01*
X173850500Y-109593713D01*
X173817246Y-109383757D01*
X173751557Y-109181588D01*
X173655051Y-108992184D01*
X173655049Y-108992181D01*
X173655048Y-108992179D01*
X173530109Y-108820213D01*
X173379786Y-108669890D01*
X173207820Y-108544951D01*
X173207115Y-108544591D01*
X173199054Y-108540485D01*
X173148259Y-108492512D01*
X173131463Y-108424692D01*
X173153999Y-108358556D01*
X173199054Y-108319515D01*
X173207816Y-108315051D01*
X173352321Y-108210063D01*
X173379786Y-108190109D01*
X173379788Y-108190106D01*
X173379792Y-108190104D01*
X173530104Y-108039792D01*
X173530106Y-108039788D01*
X173530109Y-108039786D01*
X173655048Y-107867820D01*
X173655047Y-107867820D01*
X173655051Y-107867816D01*
X173751557Y-107678412D01*
X173817246Y-107476243D01*
X173850500Y-107266287D01*
X173850500Y-107053713D01*
X173817246Y-106843757D01*
X173751557Y-106641588D01*
X173655051Y-106452184D01*
X173655049Y-106452181D01*
X173655048Y-106452179D01*
X173530109Y-106280213D01*
X173379786Y-106129890D01*
X173207820Y-106004951D01*
X173018414Y-105908444D01*
X173018413Y-105908443D01*
X173018412Y-105908443D01*
X172816243Y-105842754D01*
X172816241Y-105842753D01*
X172816240Y-105842753D01*
X172654957Y-105817208D01*
X172606287Y-105809500D01*
X172393713Y-105809500D01*
X172365006Y-105814046D01*
X172183757Y-105842753D01*
X172141473Y-105856492D01*
X172126260Y-105856926D01*
X172112003Y-105862244D01*
X172092048Y-105857903D01*
X172071632Y-105858486D01*
X172057545Y-105850397D01*
X172043730Y-105847392D01*
X172015476Y-105826241D01*
X171866819Y-105677584D01*
X171833334Y-105616261D01*
X171830500Y-105589903D01*
X171830500Y-104122544D01*
X171830499Y-104122537D01*
X171819894Y-104082958D01*
X171789577Y-103969815D01*
X171722522Y-103853673D01*
X171710520Y-103832884D01*
X171598716Y-103721080D01*
X171598713Y-103721078D01*
X171000743Y-103123108D01*
X170967258Y-103061785D01*
X170972242Y-102992093D01*
X170988106Y-102962542D01*
X171115048Y-102787820D01*
X171115047Y-102787820D01*
X171115051Y-102787816D01*
X171119514Y-102779054D01*
X171167488Y-102728259D01*
X171235308Y-102711463D01*
X171301444Y-102733999D01*
X171340486Y-102779056D01*
X171344951Y-102787820D01*
X171469890Y-102959786D01*
X171620213Y-103110109D01*
X171792179Y-103235048D01*
X171792181Y-103235049D01*
X171792184Y-103235051D01*
X171981588Y-103331557D01*
X172183757Y-103397246D01*
X172393713Y-103430500D01*
X172393714Y-103430500D01*
X172606286Y-103430500D01*
X172606287Y-103430500D01*
X172816243Y-103397246D01*
X173018412Y-103331557D01*
X173207816Y-103235051D01*
X173229789Y-103219086D01*
X173379786Y-103110109D01*
X173379788Y-103110106D01*
X173379792Y-103110104D01*
X173530104Y-102959792D01*
X173530106Y-102959788D01*
X173530109Y-102959786D01*
X173655048Y-102787820D01*
X173655047Y-102787820D01*
X173655051Y-102787816D01*
X173751557Y-102598412D01*
X173817246Y-102396243D01*
X173850500Y-102186287D01*
X173850500Y-101973713D01*
X173817246Y-101763757D01*
X173751557Y-101561588D01*
X173655051Y-101372184D01*
X173655049Y-101372181D01*
X173655048Y-101372179D01*
X173530109Y-101200213D01*
X173379786Y-101049890D01*
X173207820Y-100924951D01*
X173018414Y-100828444D01*
X173018413Y-100828443D01*
X173018412Y-100828443D01*
X172816243Y-100762754D01*
X172816241Y-100762753D01*
X172816240Y-100762753D01*
X172654957Y-100737208D01*
X172606287Y-100729500D01*
X172393713Y-100729500D01*
X172365006Y-100734046D01*
X172183757Y-100762753D01*
X172141473Y-100776492D01*
X172071632Y-100778486D01*
X172015476Y-100746241D01*
X171717590Y-100448355D01*
X171717588Y-100448352D01*
X171598717Y-100329481D01*
X171598716Y-100329480D01*
X171511904Y-100279360D01*
X171511904Y-100279359D01*
X171511900Y-100279358D01*
X171461785Y-100250423D01*
X171309057Y-100209499D01*
X171309055Y-100209499D01*
X171301206Y-100207396D01*
X171302071Y-100204166D01*
X171252365Y-100182156D01*
X171213916Y-100123817D01*
X171213110Y-100053952D01*
X171214535Y-100049244D01*
X171277246Y-99856243D01*
X171310500Y-99646287D01*
X171310500Y-99433713D01*
X171277246Y-99223757D01*
X171211557Y-99021588D01*
X171115051Y-98832184D01*
X170990104Y-98660208D01*
X170988105Y-98657456D01*
X170964626Y-98591649D01*
X170980452Y-98523595D01*
X171000739Y-98496894D01*
X171456892Y-98040741D01*
X171518213Y-98007258D01*
X171587905Y-98012242D01*
X171617456Y-98028105D01*
X171634851Y-98040743D01*
X171792184Y-98155051D01*
X171981588Y-98251557D01*
X172183757Y-98317246D01*
X172393713Y-98350500D01*
X172393714Y-98350500D01*
X172606286Y-98350500D01*
X172606287Y-98350500D01*
X172816243Y-98317246D01*
X173018412Y-98251557D01*
X173207816Y-98155051D01*
X173365149Y-98040743D01*
X173379786Y-98030109D01*
X173379788Y-98030106D01*
X173379792Y-98030104D01*
X173530104Y-97879792D01*
X173530106Y-97879788D01*
X173530109Y-97879786D01*
X173655048Y-97707820D01*
X173655047Y-97707820D01*
X173655051Y-97707816D01*
X173751557Y-97518412D01*
X173817246Y-97316243D01*
X173850500Y-97106287D01*
X173850500Y-96893713D01*
X173817246Y-96683757D01*
X173751557Y-96481588D01*
X173655051Y-96292184D01*
X173655049Y-96292181D01*
X173655048Y-96292179D01*
X173530109Y-96120213D01*
X173517596Y-96107700D01*
X173484111Y-96046377D01*
X173489095Y-95976685D01*
X173517596Y-95932338D01*
X173861831Y-95588103D01*
X174209606Y-95240328D01*
X174209611Y-95240324D01*
X174219814Y-95230120D01*
X174219816Y-95230120D01*
X174331620Y-95118316D01*
X174395795Y-95007159D01*
X174395797Y-95007158D01*
X174403673Y-94993515D01*
X174410677Y-94981385D01*
X174451601Y-94828657D01*
X174451601Y-94670543D01*
X174451601Y-94662948D01*
X174451600Y-94662930D01*
X174451600Y-91358965D01*
X174471285Y-91291926D01*
X174472498Y-91290074D01*
X174560490Y-91158385D01*
X174560490Y-91158384D01*
X174560494Y-91158379D01*
X174620837Y-91012697D01*
X174651600Y-90858042D01*
X174651600Y-90700358D01*
X174651600Y-90700355D01*
X174651599Y-90700353D01*
X174641583Y-90650000D01*
X174620837Y-90545703D01*
X174616425Y-90535051D01*
X174560497Y-90400027D01*
X174560490Y-90400014D01*
X174472889Y-90268911D01*
X174472886Y-90268907D01*
X174361392Y-90157413D01*
X174361388Y-90157410D01*
X174230285Y-90069809D01*
X174230272Y-90069802D01*
X174084601Y-90009464D01*
X174084589Y-90009461D01*
X173929945Y-89978700D01*
X173929942Y-89978700D01*
X173896141Y-89978700D01*
X173829102Y-89959015D01*
X173783347Y-89906211D01*
X173773403Y-89837053D01*
X173778210Y-89816382D01*
X173817246Y-89696243D01*
X173850500Y-89486287D01*
X173850500Y-89273713D01*
X173817246Y-89063757D01*
X173803506Y-89021473D01*
X173801512Y-88951635D01*
X173833755Y-88895478D01*
X174892406Y-87836828D01*
X174892411Y-87836824D01*
X174902614Y-87826620D01*
X174902616Y-87826620D01*
X175014420Y-87714816D01*
X175070813Y-87617139D01*
X175093477Y-87577885D01*
X175134401Y-87425157D01*
X175134401Y-87267043D01*
X175134401Y-87259448D01*
X175134400Y-87259430D01*
X175134400Y-83272559D01*
X175134401Y-83272546D01*
X175134401Y-83104445D01*
X175134401Y-83104443D01*
X175093477Y-82951715D01*
X175045746Y-82869043D01*
X175014420Y-82814784D01*
X174902616Y-82702980D01*
X174902615Y-82702979D01*
X174898285Y-82698649D01*
X174898274Y-82698639D01*
X174770519Y-82570884D01*
X174737034Y-82509561D01*
X174734200Y-82483203D01*
X174734200Y-81813860D01*
X174734201Y-81813847D01*
X174734201Y-81645744D01*
X174693276Y-81493014D01*
X174693273Y-81493009D01*
X174614224Y-81356090D01*
X174614218Y-81356082D01*
X173455590Y-80197455D01*
X173455588Y-80197452D01*
X173336717Y-80078581D01*
X173336716Y-80078580D01*
X173244158Y-80025142D01*
X173244157Y-80025141D01*
X173199790Y-79999525D01*
X173199789Y-79999524D01*
X173184614Y-79995458D01*
X173047057Y-79958599D01*
X172888943Y-79958599D01*
X172881347Y-79958599D01*
X172881331Y-79958600D01*
X171301716Y-79958600D01*
X171234677Y-79938915D01*
X171188922Y-79886111D01*
X171178978Y-79816953D01*
X171191231Y-79778306D01*
X171211554Y-79738417D01*
X171211557Y-79738412D01*
X171277246Y-79536243D01*
X171310500Y-79326287D01*
X171310500Y-79113713D01*
X171277246Y-78903757D01*
X171211557Y-78701588D01*
X171166162Y-78612495D01*
X171153266Y-78543826D01*
X171179542Y-78479085D01*
X171236649Y-78438828D01*
X171276647Y-78432200D01*
X172969031Y-78432200D01*
X172969047Y-78432201D01*
X172976643Y-78432201D01*
X173134754Y-78432201D01*
X173134757Y-78432201D01*
X173287485Y-78391277D01*
X173337604Y-78362339D01*
X173424416Y-78312220D01*
X173536220Y-78200416D01*
X173536221Y-78200414D01*
X174139220Y-77597416D01*
X174218277Y-77460484D01*
X174259201Y-77307757D01*
X174259201Y-77149642D01*
X174259201Y-77142047D01*
X174259200Y-77142029D01*
X174259200Y-75219645D01*
X174259199Y-75219641D01*
X174227692Y-75102049D01*
X174227692Y-75102048D01*
X174218278Y-75066918D01*
X174218277Y-75066915D01*
X174186445Y-75011781D01*
X174186444Y-75011780D01*
X174139220Y-74929984D01*
X174027416Y-74818180D01*
X174027415Y-74818179D01*
X174023085Y-74813849D01*
X174023074Y-74813839D01*
X173833757Y-74624522D01*
X173800272Y-74563199D01*
X173803507Y-74498523D01*
X173817246Y-74456243D01*
X173850500Y-74246287D01*
X173850500Y-74033713D01*
X173817246Y-73823757D01*
X173751557Y-73621588D01*
X173655051Y-73432184D01*
X173655049Y-73432181D01*
X173655048Y-73432179D01*
X173530109Y-73260213D01*
X173379786Y-73109890D01*
X173207820Y-72984951D01*
X173207115Y-72984591D01*
X173199054Y-72980485D01*
X173148259Y-72932512D01*
X173131463Y-72864692D01*
X173153999Y-72798556D01*
X173199054Y-72759515D01*
X173207816Y-72755051D01*
X173229789Y-72739086D01*
X173379786Y-72630109D01*
X173379788Y-72630106D01*
X173379792Y-72630104D01*
X173530104Y-72479792D01*
X173530106Y-72479788D01*
X173530109Y-72479786D01*
X173655048Y-72307820D01*
X173655047Y-72307820D01*
X173655051Y-72307816D01*
X173751557Y-72118412D01*
X173817246Y-71916243D01*
X173850500Y-71706287D01*
X173850500Y-71493713D01*
X173817246Y-71283757D01*
X173751557Y-71081588D01*
X173655051Y-70892184D01*
X173655049Y-70892181D01*
X173655048Y-70892179D01*
X173530109Y-70720213D01*
X173379786Y-70569890D01*
X173207820Y-70444951D01*
X173018414Y-70348444D01*
X173018413Y-70348443D01*
X173018412Y-70348443D01*
X172816243Y-70282754D01*
X172816241Y-70282753D01*
X172816240Y-70282753D01*
X172654957Y-70257208D01*
X172606287Y-70249500D01*
X172393713Y-70249500D01*
X172345042Y-70257208D01*
X172183760Y-70282753D01*
X171981585Y-70348444D01*
X171792179Y-70444951D01*
X171620213Y-70569890D01*
X171469890Y-70720213D01*
X171344949Y-70892182D01*
X171340484Y-70900946D01*
X171292509Y-70951742D01*
X171224688Y-70968536D01*
X171158553Y-70945998D01*
X171128778Y-70916275D01*
X171123590Y-70908944D01*
X171115051Y-70892184D01*
X170990104Y-70720208D01*
X170989888Y-70719992D01*
X170987202Y-70716196D01*
X170976117Y-70683856D01*
X170964626Y-70651649D01*
X170964808Y-70650864D01*
X170964547Y-70650101D01*
X170972706Y-70616902D01*
X170980452Y-70583595D01*
X170981103Y-70582738D01*
X170981223Y-70582250D01*
X170982119Y-70581400D01*
X171000739Y-70556894D01*
X171598713Y-69958921D01*
X171598716Y-69958920D01*
X171710520Y-69847116D01*
X171760639Y-69760304D01*
X171789577Y-69710185D01*
X171830501Y-69557457D01*
X171830501Y-69399343D01*
X171830501Y-69391748D01*
X171830500Y-69391730D01*
X171830500Y-68090096D01*
X171839144Y-68060655D01*
X171845668Y-68030669D01*
X171849422Y-68025653D01*
X171850185Y-68023057D01*
X171866810Y-68002424D01*
X172015479Y-67853754D01*
X172076798Y-67820272D01*
X172141473Y-67823506D01*
X172183757Y-67837246D01*
X172393713Y-67870500D01*
X172393714Y-67870500D01*
X172606286Y-67870500D01*
X172606287Y-67870500D01*
X172816243Y-67837246D01*
X173018412Y-67771557D01*
X173207816Y-67675051D01*
X173256839Y-67639434D01*
X173379786Y-67550109D01*
X173379788Y-67550106D01*
X173379792Y-67550104D01*
X173530104Y-67399792D01*
X173530106Y-67399788D01*
X173530109Y-67399786D01*
X173655048Y-67227820D01*
X173655047Y-67227820D01*
X173655051Y-67227816D01*
X173751557Y-67038412D01*
X173817246Y-66836243D01*
X173850500Y-66626287D01*
X173850500Y-66413713D01*
X173817246Y-66203757D01*
X173751557Y-66001588D01*
X173655051Y-65812184D01*
X173655049Y-65812181D01*
X173655048Y-65812179D01*
X173530109Y-65640213D01*
X173379786Y-65489890D01*
X173207820Y-65364951D01*
X173207115Y-65364591D01*
X173199054Y-65360485D01*
X173148259Y-65312512D01*
X173131463Y-65244692D01*
X173153999Y-65178556D01*
X173199054Y-65139515D01*
X173207816Y-65135051D01*
X173344598Y-65035674D01*
X173379786Y-65010109D01*
X173379788Y-65010106D01*
X173379792Y-65010104D01*
X173530104Y-64859792D01*
X173530106Y-64859788D01*
X173530109Y-64859786D01*
X173655048Y-64687820D01*
X173655047Y-64687820D01*
X173655051Y-64687816D01*
X173751557Y-64498412D01*
X173817246Y-64296243D01*
X173850500Y-64086287D01*
X173850500Y-63873713D01*
X173817246Y-63663757D01*
X173751557Y-63461588D01*
X173655051Y-63272184D01*
X173655049Y-63272181D01*
X173655048Y-63272179D01*
X173530109Y-63100213D01*
X173379786Y-62949890D01*
X173207820Y-62824951D01*
X173018414Y-62728444D01*
X173018413Y-62728443D01*
X173018412Y-62728443D01*
X172816243Y-62662754D01*
X172816241Y-62662753D01*
X172816240Y-62662753D01*
X172654957Y-62637208D01*
X172606287Y-62629500D01*
X172393713Y-62629500D01*
X172345042Y-62637208D01*
X172183760Y-62662753D01*
X171981585Y-62728444D01*
X171792179Y-62824951D01*
X171620215Y-62949889D01*
X171506673Y-63063431D01*
X171445350Y-63096915D01*
X171375658Y-63091931D01*
X171319725Y-63050059D01*
X171302810Y-63019082D01*
X171253797Y-62887671D01*
X171253793Y-62887664D01*
X171167547Y-62772455D01*
X171167544Y-62772452D01*
X171052335Y-62686206D01*
X171052328Y-62686202D01*
X170917482Y-62635908D01*
X170917483Y-62635908D01*
X170857883Y-62629501D01*
X170857881Y-62629500D01*
X170857873Y-62629500D01*
X170857864Y-62629500D01*
X169062129Y-62629500D01*
X169062123Y-62629501D01*
X169002516Y-62635908D01*
X168867671Y-62686202D01*
X168867664Y-62686206D01*
X168752455Y-62772452D01*
X168752452Y-62772455D01*
X168666206Y-62887664D01*
X168666202Y-62887671D01*
X168615908Y-63022517D01*
X168611510Y-63063431D01*
X168609500Y-63082127D01*
X168609500Y-63831443D01*
X168609501Y-64466300D01*
X168589816Y-64533339D01*
X168537013Y-64579094D01*
X168485501Y-64590300D01*
X157144840Y-64590300D01*
X157103919Y-64601264D01*
X157103919Y-64601265D01*
X157066651Y-64611251D01*
X156992114Y-64631223D01*
X156992109Y-64631226D01*
X156855190Y-64710275D01*
X156855182Y-64710281D01*
X156743378Y-64822086D01*
X156435384Y-65130081D01*
X156374061Y-65163566D01*
X156347703Y-65166400D01*
X154502906Y-65166400D01*
X154435867Y-65146715D01*
X154390112Y-65093911D01*
X154380168Y-65024753D01*
X154384975Y-65004082D01*
X154398191Y-64963405D01*
X154421018Y-64893151D01*
X154455503Y-64675422D01*
X154455503Y-64454978D01*
X154421018Y-64237249D01*
X154371968Y-64086286D01*
X154352899Y-64027596D01*
X154352898Y-64027593D01*
X154318240Y-63959575D01*
X154252818Y-63831178D01*
X154206688Y-63767685D01*
X154123250Y-63652841D01*
X154123246Y-63652836D01*
X153967366Y-63496956D01*
X153967361Y-63496952D01*
X153789028Y-63367387D01*
X153789027Y-63367386D01*
X153789025Y-63367385D01*
X153726099Y-63335322D01*
X153592609Y-63267304D01*
X153592606Y-63267303D01*
X153382955Y-63199185D01*
X153274089Y-63181942D01*
X153165225Y-63164700D01*
X152944781Y-63164700D01*
X152872204Y-63176195D01*
X152727050Y-63199185D01*
X152517399Y-63267303D01*
X152517396Y-63267304D01*
X152320977Y-63367387D01*
X152142644Y-63496952D01*
X152142639Y-63496956D01*
X151986759Y-63652836D01*
X151986755Y-63652841D01*
X151857190Y-63831174D01*
X151757107Y-64027593D01*
X151757106Y-64027596D01*
X151688988Y-64237247D01*
X151654503Y-64454978D01*
X151654503Y-64675421D01*
X151688988Y-64893152D01*
X151725031Y-65004082D01*
X151727026Y-65073923D01*
X151690945Y-65133756D01*
X151628244Y-65164584D01*
X151607100Y-65166400D01*
X149476797Y-65166400D01*
X149447356Y-65157755D01*
X149417370Y-65151232D01*
X149412354Y-65147477D01*
X149409758Y-65146715D01*
X149389116Y-65130081D01*
X149348440Y-65089405D01*
X149314955Y-65028082D01*
X149318189Y-64963408D01*
X149341018Y-64893151D01*
X149375503Y-64675422D01*
X149375503Y-64454978D01*
X149341018Y-64237249D01*
X149291968Y-64086286D01*
X149272899Y-64027596D01*
X149272898Y-64027593D01*
X149238240Y-63959575D01*
X149172818Y-63831178D01*
X149126688Y-63767685D01*
X149043250Y-63652841D01*
X149043246Y-63652836D01*
X148887366Y-63496956D01*
X148887361Y-63496952D01*
X148709028Y-63367387D01*
X148709027Y-63367386D01*
X148709025Y-63367385D01*
X148646099Y-63335322D01*
X148512609Y-63267304D01*
X148512606Y-63267303D01*
X148302955Y-63199185D01*
X148194089Y-63181942D01*
X148085225Y-63164700D01*
X147864781Y-63164700D01*
X147792204Y-63176195D01*
X147647050Y-63199185D01*
X147437399Y-63267303D01*
X147437396Y-63267304D01*
X147240977Y-63367387D01*
X147062644Y-63496952D01*
X147062639Y-63496956D01*
X146906759Y-63652836D01*
X146906755Y-63652841D01*
X146777190Y-63831174D01*
X146677107Y-64027593D01*
X146677106Y-64027596D01*
X146608988Y-64237247D01*
X146574503Y-64454978D01*
X146574503Y-64675421D01*
X146608988Y-64893152D01*
X146677106Y-65102803D01*
X146677107Y-65102806D01*
X146709511Y-65166400D01*
X146777052Y-65298956D01*
X146777190Y-65299225D01*
X146906755Y-65477558D01*
X146906759Y-65477563D01*
X147062639Y-65633443D01*
X147062644Y-65633447D01*
X147176635Y-65716265D01*
X147240981Y-65763015D01*
X147337470Y-65812179D01*
X147437396Y-65863095D01*
X147437399Y-65863096D01*
X147542224Y-65897155D01*
X147647052Y-65931215D01*
X147864781Y-65965700D01*
X147864782Y-65965700D01*
X148085224Y-65965700D01*
X148085225Y-65965700D01*
X148302954Y-65931215D01*
X148373205Y-65908388D01*
X148443046Y-65906394D01*
X148499204Y-65938639D01*
X148691839Y-66131274D01*
X148691849Y-66131285D01*
X148696179Y-66135615D01*
X148696180Y-66135616D01*
X148807984Y-66247420D01*
X148807986Y-66247421D01*
X148807990Y-66247424D01*
X148944909Y-66326473D01*
X148944916Y-66326477D01*
X149056719Y-66356434D01*
X149097642Y-66367400D01*
X149097643Y-66367400D01*
X150868359Y-66367400D01*
X150935398Y-66387085D01*
X150981153Y-66439889D01*
X150991097Y-66509047D01*
X150962072Y-66572603D01*
X150956040Y-66579081D01*
X150878913Y-66656207D01*
X150878910Y-66656211D01*
X150791309Y-66787314D01*
X150791302Y-66787327D01*
X150730964Y-66932998D01*
X150730961Y-66933008D01*
X150704131Y-67067892D01*
X150671746Y-67129803D01*
X150611030Y-67164377D01*
X150582514Y-67167700D01*
X141318097Y-67167700D01*
X141251058Y-67148015D01*
X141230416Y-67131381D01*
X139188440Y-65089405D01*
X139154955Y-65028082D01*
X139158189Y-64963408D01*
X139181018Y-64893151D01*
X139215503Y-64675422D01*
X139215503Y-64454978D01*
X141494503Y-64454978D01*
X141494503Y-64675421D01*
X141528988Y-64893152D01*
X141597106Y-65102803D01*
X141597107Y-65102806D01*
X141629511Y-65166400D01*
X141697052Y-65298956D01*
X141697190Y-65299225D01*
X141826755Y-65477558D01*
X141826759Y-65477563D01*
X141982639Y-65633443D01*
X141982644Y-65633447D01*
X142096635Y-65716265D01*
X142160981Y-65763015D01*
X142257470Y-65812179D01*
X142357396Y-65863095D01*
X142357399Y-65863096D01*
X142462224Y-65897155D01*
X142567052Y-65931215D01*
X142784781Y-65965700D01*
X142784782Y-65965700D01*
X143005224Y-65965700D01*
X143005225Y-65965700D01*
X143222954Y-65931215D01*
X143432609Y-65863095D01*
X143629025Y-65763015D01*
X143807368Y-65633442D01*
X143963245Y-65477565D01*
X144092818Y-65299222D01*
X144192898Y-65102806D01*
X144261018Y-64893151D01*
X144295503Y-64675422D01*
X144295503Y-64454978D01*
X144261018Y-64237249D01*
X144211968Y-64086286D01*
X144192899Y-64027596D01*
X144192898Y-64027593D01*
X144158240Y-63959575D01*
X144092818Y-63831178D01*
X144046688Y-63767685D01*
X143963250Y-63652841D01*
X143963246Y-63652836D01*
X143807366Y-63496956D01*
X143807361Y-63496952D01*
X143629028Y-63367387D01*
X143629027Y-63367386D01*
X143629025Y-63367385D01*
X143566099Y-63335322D01*
X143432609Y-63267304D01*
X143432606Y-63267303D01*
X143222955Y-63199185D01*
X143114089Y-63181942D01*
X143005225Y-63164700D01*
X142784781Y-63164700D01*
X142712204Y-63176195D01*
X142567050Y-63199185D01*
X142357399Y-63267303D01*
X142357396Y-63267304D01*
X142160977Y-63367387D01*
X141982644Y-63496952D01*
X141982639Y-63496956D01*
X141826759Y-63652836D01*
X141826755Y-63652841D01*
X141697190Y-63831174D01*
X141597107Y-64027593D01*
X141597106Y-64027596D01*
X141528988Y-64237247D01*
X141494503Y-64454978D01*
X139215503Y-64454978D01*
X139181018Y-64237249D01*
X139131968Y-64086286D01*
X139112899Y-64027596D01*
X139112898Y-64027593D01*
X139078240Y-63959575D01*
X139012818Y-63831178D01*
X138966688Y-63767685D01*
X138883250Y-63652841D01*
X138883246Y-63652836D01*
X138727366Y-63496956D01*
X138727361Y-63496952D01*
X138549028Y-63367387D01*
X138549027Y-63367386D01*
X138549025Y-63367385D01*
X138486099Y-63335322D01*
X138352609Y-63267304D01*
X138352606Y-63267303D01*
X138142955Y-63199185D01*
X138034089Y-63181942D01*
X137925225Y-63164700D01*
X137704781Y-63164700D01*
X137632204Y-63176195D01*
X137487050Y-63199185D01*
X137277399Y-63267303D01*
X137277396Y-63267304D01*
X137080977Y-63367387D01*
X136902644Y-63496952D01*
X136902639Y-63496956D01*
X136746759Y-63652836D01*
X136746755Y-63652841D01*
X136617190Y-63831174D01*
X136517107Y-64027593D01*
X136517106Y-64027596D01*
X136448988Y-64237247D01*
X136414503Y-64454978D01*
X136414503Y-64675421D01*
X136448988Y-64893152D01*
X136517106Y-65102803D01*
X136517107Y-65102806D01*
X136549511Y-65166400D01*
X136617052Y-65298956D01*
X136617190Y-65299225D01*
X136746755Y-65477558D01*
X136746759Y-65477563D01*
X136902639Y-65633443D01*
X136902644Y-65633447D01*
X137016635Y-65716265D01*
X137080981Y-65763015D01*
X137177470Y-65812179D01*
X137277396Y-65863095D01*
X137277399Y-65863096D01*
X137382224Y-65897155D01*
X137487052Y-65931215D01*
X137704781Y-65965700D01*
X137704782Y-65965700D01*
X137925224Y-65965700D01*
X137925225Y-65965700D01*
X138142954Y-65931215D01*
X138213205Y-65908388D01*
X138283046Y-65906394D01*
X138339204Y-65938639D01*
X139908984Y-67508419D01*
X139942469Y-67569742D01*
X139937485Y-67639434D01*
X139895613Y-67695367D01*
X139830149Y-67719784D01*
X139821303Y-67720100D01*
X136440542Y-67720100D01*
X136287814Y-67761023D01*
X136287813Y-67761024D01*
X136269568Y-67771556D01*
X136269569Y-67771557D01*
X136150887Y-67840077D01*
X136150882Y-67840081D01*
X136039078Y-67951886D01*
X135799203Y-68191760D01*
X135737880Y-68225245D01*
X135673204Y-68222010D01*
X135602955Y-68199185D01*
X135494089Y-68181942D01*
X135385225Y-68164700D01*
X135164781Y-68164700D01*
X135092204Y-68176195D01*
X134947050Y-68199185D01*
X134737399Y-68267303D01*
X134737396Y-68267304D01*
X134540977Y-68367387D01*
X134362644Y-68496952D01*
X134362639Y-68496956D01*
X134206759Y-68652836D01*
X134206755Y-68652841D01*
X134077190Y-68831174D01*
X133977107Y-69027593D01*
X133977106Y-69027596D01*
X133908988Y-69237247D01*
X133874503Y-69454978D01*
X127500500Y-69454978D01*
X127500500Y-64455018D01*
X131335000Y-64455018D01*
X131335000Y-64675381D01*
X131369473Y-64893035D01*
X131437567Y-65102610D01*
X131537611Y-65298956D01*
X131583932Y-65362713D01*
X132211212Y-64735433D01*
X132222482Y-64777492D01*
X132294890Y-64902908D01*
X132397292Y-65005310D01*
X132522708Y-65077718D01*
X132564765Y-65088987D01*
X131937485Y-65716265D01*
X131937485Y-65716266D01*
X132001243Y-65762588D01*
X132197589Y-65862632D01*
X132407164Y-65930726D01*
X132624819Y-65965200D01*
X132845181Y-65965200D01*
X133062835Y-65930726D01*
X133272410Y-65862632D01*
X133468760Y-65762586D01*
X133532513Y-65716266D01*
X133532514Y-65716266D01*
X132905234Y-65088987D01*
X132947292Y-65077718D01*
X133072708Y-65005310D01*
X133175110Y-64902908D01*
X133247518Y-64777492D01*
X133258787Y-64735434D01*
X133886066Y-65362714D01*
X133886066Y-65362713D01*
X133932386Y-65298960D01*
X134032432Y-65102610D01*
X134100526Y-64893035D01*
X134135000Y-64675381D01*
X134135000Y-64455018D01*
X134100526Y-64237364D01*
X134032432Y-64027789D01*
X133932388Y-63831443D01*
X133886066Y-63767685D01*
X133886065Y-63767685D01*
X133258787Y-64394964D01*
X133247518Y-64352908D01*
X133175110Y-64227492D01*
X133072708Y-64125090D01*
X132947292Y-64052682D01*
X132905232Y-64041412D01*
X133532513Y-63414132D01*
X133468756Y-63367811D01*
X133272410Y-63267767D01*
X133062835Y-63199673D01*
X132845181Y-63165200D01*
X132624819Y-63165200D01*
X132407164Y-63199673D01*
X132197589Y-63267767D01*
X132001233Y-63367816D01*
X131937485Y-63414131D01*
X131937485Y-63414132D01*
X132564765Y-64041412D01*
X132522708Y-64052682D01*
X132397292Y-64125090D01*
X132294890Y-64227492D01*
X132222482Y-64352908D01*
X132211212Y-64394965D01*
X131583932Y-63767685D01*
X131583931Y-63767685D01*
X131537616Y-63831433D01*
X131437567Y-64027789D01*
X131369473Y-64237364D01*
X131335000Y-64455018D01*
X127500500Y-64455018D01*
X127500500Y-62006961D01*
X127501280Y-61993077D01*
X127501280Y-61993076D01*
X127511460Y-61902729D01*
X127517635Y-61875670D01*
X127545353Y-61796456D01*
X127557396Y-61771450D01*
X127602046Y-61700389D01*
X127619351Y-61678690D01*
X127678690Y-61619351D01*
X127700389Y-61602046D01*
X127771450Y-61557396D01*
X127796456Y-61545353D01*
X127875670Y-61517635D01*
X127902733Y-61511459D01*
X127965419Y-61504396D01*
X127993079Y-61501280D01*
X128006962Y-61500500D01*
X128065892Y-61500500D01*
X174934108Y-61500500D01*
X174993038Y-61500500D01*
X175006922Y-61501280D01*
G37*
%TD.AperFunction*%
%TD*%
M02*
