M48
INCH
T1C0.0118
T2C0.0394
T3C0.0433
T4C0.1693
%
G90
G05
T1
X5.5065Y-3.6825
X5.6198Y-3.1537
X5.6467Y-2.9948
X5.7008Y-3.6769
X5.7246Y-3.8739
X5.8388Y-3.7692
X5.9646Y-2.6444
X6.0004Y-3.7652
X6.0019Y-3.1518
X6.0636Y-3.6918
X6.066Y-4.2905
X6.0984Y-4.1866
X6.1184Y-3.9964
X6.1715Y-3.8662
X6.1794Y-3.114
X6.1816Y-4.3468
X6.5304Y-4.1009
X6.5522Y-3.1468
X6.5971Y-3.7754
X6.618Y-4.2111
X6.7487Y-2.5615
X6.8445Y-3.574
T2
X6.6913Y-2.5189
X6.6913Y-2.6189
X6.6913Y-2.7189
X6.6913Y-2.8189
X6.6913Y-2.9189
X6.6913Y-3.0189
X6.6913Y-3.1189
X6.6913Y-3.2189
X6.6913Y-3.3189
X6.6913Y-3.4189
X6.6913Y-3.5189
X6.6913Y-3.6189
X6.6913Y-3.7189
X6.6913Y-3.8189
X6.6913Y-3.9189
X6.6913Y-4.0189
X6.6913Y-4.1189
X6.6913Y-4.2189
X6.6913Y-4.3189
X6.6913Y-4.4189
X6.7913Y-2.5189
X6.7913Y-2.6189
X6.7913Y-2.7189
X6.7913Y-2.8189
X6.7913Y-2.9189
X6.7913Y-3.0189
X6.7913Y-3.1189
X6.7913Y-3.2189
X6.7913Y-3.3189
X6.7913Y-3.4189
X6.7913Y-3.5189
X6.7913Y-3.6189
X6.7913Y-3.7189
X6.7913Y-3.8189
X6.7913Y-3.9189
X6.7913Y-4.0189
X6.7913Y-4.1189
X6.7913Y-4.2189
X6.7913Y-4.3189
X6.7913Y-4.4189
T3
X5.2258Y-2.5419
X5.2258Y-3.0797
X5.2258Y-3.6176
X5.2258Y-4.1554
X5.3258Y-2.7388
X5.3258Y-3.2766
X5.3258Y-3.8144
X5.3258Y-4.3522
X5.4258Y-2.5419
X5.4258Y-3.0797
X5.4258Y-3.6176
X5.4258Y-4.1554
X5.5258Y-2.7388
X5.5258Y-3.2766
X5.5258Y-3.8144
X5.5258Y-4.3522
X5.6258Y-2.5419
X5.6258Y-3.0797
X5.6258Y-3.6176
X5.6258Y-4.1554
X5.7258Y-2.7388
X5.7258Y-3.2766
X5.7258Y-3.8144
X5.7258Y-4.3522
X5.8258Y-2.5419
X5.8258Y-3.0797
X5.8258Y-3.6176
X5.8258Y-4.1554
X5.9258Y-2.7388
X5.9258Y-3.2766
X5.9258Y-3.8144
X5.9258Y-4.3522
X6.0258Y-2.5419
X6.0258Y-3.0797
X6.0258Y-3.6176
X6.0258Y-4.1554
X6.1258Y-2.7388
X6.1258Y-3.2766
X6.1258Y-3.8144
X6.1258Y-4.3522
T4
X6.4178Y-3.504
M30
